<?xml version="1.0" encoding="utf-8"?>
<svg xmlns="http://www.w3.org/2000/svg" xmlns:xlink="http://www.w3.org/1999/xlink" width="600" height="400" viewBox="0 0 2400 1600">
<defs>
  <clipPath id="clip280">
    <rect x="0" y="0" width="2400" height="1600"/>
  </clipPath>
</defs>
<path clip-path="url(#clip280)" d="
M0 1600 L2400 1600 L2400 0 L0 0  Z
  " fill="#ffffff" fill-rule="evenodd" fill-opacity="1"/>
<defs>
  <clipPath id="clip281">
    <rect x="480" y="0" width="1681" height="1600"/>
  </clipPath>
</defs>
<path clip-path="url(#clip280)" d="
M175.445 1423.18 L2352.76 1423.18 L2352.76 183.952 L175.445 183.952  Z
  " fill="#ffffff" fill-rule="evenodd" fill-opacity="1"/>
<defs>
  <clipPath id="clip282">
    <rect x="175" y="183" width="2178" height="1240"/>
  </clipPath>
</defs>
<polyline clip-path="url(#clip282)" style="stroke:#000000; stroke-linecap:butt; stroke-linejoin:round; stroke-width:2; stroke-opacity:0.1; fill:none" points="
  340.808,1423.18 340.808,183.952 
  "/>
<polyline clip-path="url(#clip282)" style="stroke:#000000; stroke-linecap:butt; stroke-linejoin:round; stroke-width:2; stroke-opacity:0.1; fill:none" points="
  755.771,1423.18 755.771,183.952 
  "/>
<polyline clip-path="url(#clip282)" style="stroke:#000000; stroke-linecap:butt; stroke-linejoin:round; stroke-width:2; stroke-opacity:0.1; fill:none" points="
  1170.73,1423.18 1170.73,183.952 
  "/>
<polyline clip-path="url(#clip282)" style="stroke:#000000; stroke-linecap:butt; stroke-linejoin:round; stroke-width:2; stroke-opacity:0.1; fill:none" points="
  1585.7,1423.18 1585.7,183.952 
  "/>
<polyline clip-path="url(#clip282)" style="stroke:#000000; stroke-linecap:butt; stroke-linejoin:round; stroke-width:2; stroke-opacity:0.1; fill:none" points="
  2000.66,1423.18 2000.66,183.952 
  "/>
<polyline clip-path="url(#clip280)" style="stroke:#000000; stroke-linecap:butt; stroke-linejoin:round; stroke-width:4; stroke-opacity:1; fill:none" points="
  175.445,1423.18 2352.76,1423.18 
  "/>
<polyline clip-path="url(#clip280)" style="stroke:#000000; stroke-linecap:butt; stroke-linejoin:round; stroke-width:4; stroke-opacity:1; fill:none" points="
  340.808,1423.18 340.808,1404.28 
  "/>
<polyline clip-path="url(#clip280)" style="stroke:#000000; stroke-linecap:butt; stroke-linejoin:round; stroke-width:4; stroke-opacity:1; fill:none" points="
  755.771,1423.18 755.771,1404.28 
  "/>
<polyline clip-path="url(#clip280)" style="stroke:#000000; stroke-linecap:butt; stroke-linejoin:round; stroke-width:4; stroke-opacity:1; fill:none" points="
  1170.73,1423.18 1170.73,1404.28 
  "/>
<polyline clip-path="url(#clip280)" style="stroke:#000000; stroke-linecap:butt; stroke-linejoin:round; stroke-width:4; stroke-opacity:1; fill:none" points="
  1585.7,1423.18 1585.7,1404.28 
  "/>
<polyline clip-path="url(#clip280)" style="stroke:#000000; stroke-linecap:butt; stroke-linejoin:round; stroke-width:4; stroke-opacity:1; fill:none" points="
  2000.66,1423.18 2000.66,1404.28 
  "/>
<path clip-path="url(#clip280)" d="M300.854 1484.86 L300.854 1480.6 Q302.614 1481.44 304.419 1481.88 Q306.225 1482.32 307.961 1482.32 Q312.591 1482.32 315.021 1479.21 Q317.475 1476.09 317.822 1469.75 Q316.479 1471.74 314.419 1472.8 Q312.359 1473.87 309.859 1473.87 Q304.674 1473.87 301.641 1470.74 Q298.632 1467.59 298.632 1462.15 Q298.632 1456.83 301.78 1453.61 Q304.929 1450.39 310.16 1450.39 Q316.155 1450.39 319.303 1455 Q322.475 1459.58 322.475 1468.33 Q322.475 1476.51 318.586 1481.39 Q314.72 1486.25 308.169 1486.25 Q306.41 1486.25 304.604 1485.9 Q302.799 1485.56 300.854 1484.86 M310.16 1470.21 Q313.308 1470.21 315.137 1468.06 Q316.989 1465.9 316.989 1462.15 Q316.989 1458.43 315.137 1456.27 Q313.308 1454.1 310.16 1454.1 Q307.012 1454.1 305.16 1456.27 Q303.331 1458.43 303.331 1462.15 Q303.331 1465.9 305.16 1468.06 Q307.012 1470.21 310.16 1470.21 Z" fill="#000000" fill-rule="evenodd" fill-opacity="1" /><path clip-path="url(#clip280)" d="M340.877 1469.17 Q337.544 1469.17 335.623 1470.95 Q333.725 1472.73 333.725 1475.86 Q333.725 1478.98 335.623 1480.77 Q337.544 1482.55 340.877 1482.55 Q344.211 1482.55 346.132 1480.77 Q348.053 1478.96 348.053 1475.86 Q348.053 1472.73 346.132 1470.95 Q344.234 1469.17 340.877 1469.17 M336.201 1467.18 Q333.192 1466.44 331.502 1464.38 Q329.836 1462.32 329.836 1459.35 Q329.836 1455.21 332.776 1452.8 Q335.739 1450.39 340.877 1450.39 Q346.039 1450.39 348.979 1452.8 Q351.919 1455.21 351.919 1459.35 Q351.919 1462.32 350.229 1464.38 Q348.563 1466.44 345.576 1467.18 Q348.956 1467.96 350.831 1470.26 Q352.729 1472.55 352.729 1475.86 Q352.729 1480.88 349.65 1483.57 Q346.595 1486.25 340.877 1486.25 Q335.16 1486.25 332.081 1483.57 Q329.026 1480.88 329.026 1475.86 Q329.026 1472.55 330.924 1470.26 Q332.822 1467.96 336.201 1467.18 M334.489 1459.79 Q334.489 1462.48 336.155 1463.98 Q337.845 1465.49 340.877 1465.49 Q343.887 1465.49 345.576 1463.98 Q347.289 1462.48 347.289 1459.79 Q347.289 1457.11 345.576 1455.6 Q343.887 1454.1 340.877 1454.1 Q337.845 1454.1 336.155 1455.6 Q334.489 1457.11 334.489 1459.79 Z" fill="#000000" fill-rule="evenodd" fill-opacity="1" /><path clip-path="url(#clip280)" d="M371.039 1454.1 Q367.428 1454.1 365.599 1457.66 Q363.794 1461.2 363.794 1468.33 Q363.794 1475.44 365.599 1479.01 Q367.428 1482.55 371.039 1482.55 Q374.674 1482.55 376.479 1479.01 Q378.308 1475.44 378.308 1468.33 Q378.308 1461.2 376.479 1457.66 Q374.674 1454.1 371.039 1454.1 M371.039 1450.39 Q376.849 1450.39 379.905 1455 Q382.984 1459.58 382.984 1468.33 Q382.984 1477.06 379.905 1481.67 Q376.849 1486.25 371.039 1486.25 Q365.229 1486.25 362.15 1481.67 Q359.095 1477.06 359.095 1468.33 Q359.095 1459.58 362.15 1455 Q365.229 1450.39 371.039 1450.39 Z" fill="#000000" fill-rule="evenodd" fill-opacity="1" /><path clip-path="url(#clip280)" d="M700.297 1481.64 L707.936 1481.64 L707.936 1455.28 L699.625 1456.95 L699.625 1452.69 L707.889 1451.02 L712.565 1451.02 L712.565 1481.64 L720.204 1481.64 L720.204 1485.58 L700.297 1485.58 L700.297 1481.64 Z" fill="#000000" fill-rule="evenodd" fill-opacity="1" /><path clip-path="url(#clip280)" d="M739.648 1454.1 Q736.037 1454.1 734.209 1457.66 Q732.403 1461.2 732.403 1468.33 Q732.403 1475.44 734.209 1479.01 Q736.037 1482.55 739.648 1482.55 Q743.283 1482.55 745.088 1479.01 Q746.917 1475.44 746.917 1468.33 Q746.917 1461.2 745.088 1457.66 Q743.283 1454.1 739.648 1454.1 M739.648 1450.39 Q745.458 1450.39 748.514 1455 Q751.593 1459.58 751.593 1468.33 Q751.593 1477.06 748.514 1481.67 Q745.458 1486.25 739.648 1486.25 Q733.838 1486.25 730.759 1481.67 Q727.704 1477.06 727.704 1468.33 Q727.704 1459.58 730.759 1455 Q733.838 1450.39 739.648 1450.39 Z" fill="#000000" fill-rule="evenodd" fill-opacity="1" /><path clip-path="url(#clip280)" d="M769.81 1454.1 Q766.199 1454.1 764.37 1457.66 Q762.565 1461.2 762.565 1468.33 Q762.565 1475.44 764.37 1479.01 Q766.199 1482.55 769.81 1482.55 Q773.444 1482.55 775.25 1479.01 Q777.079 1475.44 777.079 1468.33 Q777.079 1461.2 775.25 1457.66 Q773.444 1454.1 769.81 1454.1 M769.81 1450.39 Q775.62 1450.39 778.676 1455 Q781.755 1459.58 781.755 1468.33 Q781.755 1477.06 778.676 1481.67 Q775.62 1486.25 769.81 1486.25 Q764 1486.25 760.921 1481.67 Q757.866 1477.06 757.866 1468.33 Q757.866 1459.58 760.921 1455 Q764 1450.39 769.81 1450.39 Z" fill="#000000" fill-rule="evenodd" fill-opacity="1" /><path clip-path="url(#clip280)" d="M799.972 1454.1 Q796.361 1454.1 794.532 1457.66 Q792.727 1461.2 792.727 1468.33 Q792.727 1475.44 794.532 1479.01 Q796.361 1482.55 799.972 1482.55 Q803.606 1482.55 805.412 1479.01 Q807.241 1475.44 807.241 1468.33 Q807.241 1461.2 805.412 1457.66 Q803.606 1454.1 799.972 1454.1 M799.972 1450.39 Q805.782 1450.39 808.838 1455 Q811.916 1459.58 811.916 1468.33 Q811.916 1477.06 808.838 1481.67 Q805.782 1486.25 799.972 1486.25 Q794.162 1486.25 791.083 1481.67 Q788.028 1477.06 788.028 1468.33 Q788.028 1459.58 791.083 1455 Q794.162 1450.39 799.972 1450.39 Z" fill="#000000" fill-rule="evenodd" fill-opacity="1" /><path clip-path="url(#clip280)" d="M1115.26 1481.64 L1122.9 1481.64 L1122.9 1455.28 L1114.59 1456.95 L1114.59 1452.69 L1122.85 1451.02 L1127.53 1451.02 L1127.53 1481.64 L1135.17 1481.64 L1135.17 1485.58 L1115.26 1485.58 L1115.26 1481.64 Z" fill="#000000" fill-rule="evenodd" fill-opacity="1" /><path clip-path="url(#clip280)" d="M1154.61 1454.1 Q1151 1454.1 1149.17 1457.66 Q1147.37 1461.2 1147.37 1468.33 Q1147.37 1475.44 1149.17 1479.01 Q1151 1482.55 1154.61 1482.55 Q1158.25 1482.55 1160.05 1479.01 Q1161.88 1475.44 1161.88 1468.33 Q1161.88 1461.2 1160.05 1457.66 Q1158.25 1454.1 1154.61 1454.1 M1154.61 1450.39 Q1160.42 1450.39 1163.48 1455 Q1166.56 1459.58 1166.56 1468.33 Q1166.56 1477.06 1163.48 1481.67 Q1160.42 1486.25 1154.61 1486.25 Q1148.8 1486.25 1145.72 1481.67 Q1142.67 1477.06 1142.67 1468.33 Q1142.67 1459.58 1145.72 1455 Q1148.8 1450.39 1154.61 1450.39 Z" fill="#000000" fill-rule="evenodd" fill-opacity="1" /><path clip-path="url(#clip280)" d="M1178.8 1481.64 L1195.12 1481.64 L1195.12 1485.58 L1173.18 1485.58 L1173.18 1481.64 Q1175.84 1478.89 1180.42 1474.26 Q1185.03 1469.61 1186.21 1468.27 Q1188.45 1465.74 1189.33 1464.01 Q1190.24 1462.25 1190.24 1460.56 Q1190.24 1457.8 1188.29 1456.07 Q1186.37 1454.33 1183.27 1454.33 Q1181.07 1454.33 1178.62 1455.09 Q1176.19 1455.86 1173.41 1457.41 L1173.41 1452.69 Q1176.23 1451.55 1178.69 1450.97 Q1181.14 1450.39 1183.18 1450.39 Q1188.55 1450.39 1191.74 1453.08 Q1194.94 1455.77 1194.94 1460.26 Q1194.94 1462.39 1194.12 1464.31 Q1193.34 1466.2 1191.23 1468.8 Q1190.65 1469.47 1187.55 1472.69 Q1184.45 1475.88 1178.8 1481.64 Z" fill="#000000" fill-rule="evenodd" fill-opacity="1" /><path clip-path="url(#clip280)" d="M1214.94 1454.1 Q1211.32 1454.1 1209.5 1457.66 Q1207.69 1461.2 1207.69 1468.33 Q1207.69 1475.44 1209.5 1479.01 Q1211.32 1482.55 1214.94 1482.55 Q1218.57 1482.55 1220.37 1479.01 Q1222.2 1475.44 1222.2 1468.33 Q1222.2 1461.2 1220.37 1457.66 Q1218.57 1454.1 1214.94 1454.1 M1214.94 1450.39 Q1220.75 1450.39 1223.8 1455 Q1226.88 1459.58 1226.88 1468.33 Q1226.88 1477.06 1223.8 1481.67 Q1220.75 1486.25 1214.94 1486.25 Q1209.12 1486.25 1206.05 1481.67 Q1202.99 1477.06 1202.99 1468.33 Q1202.99 1459.58 1206.05 1455 Q1209.12 1450.39 1214.94 1450.39 Z" fill="#000000" fill-rule="evenodd" fill-opacity="1" /><path clip-path="url(#clip280)" d="M1530.22 1481.64 L1537.86 1481.64 L1537.86 1455.28 L1529.55 1456.95 L1529.55 1452.69 L1537.82 1451.02 L1542.49 1451.02 L1542.49 1481.64 L1550.13 1481.64 L1550.13 1485.58 L1530.22 1485.58 L1530.22 1481.64 Z" fill="#000000" fill-rule="evenodd" fill-opacity="1" /><path clip-path="url(#clip280)" d="M1569.57 1454.1 Q1565.96 1454.1 1564.13 1457.66 Q1562.33 1461.2 1562.33 1468.33 Q1562.33 1475.44 1564.13 1479.01 Q1565.96 1482.55 1569.57 1482.55 Q1573.21 1482.55 1575.01 1479.01 Q1576.84 1475.44 1576.84 1468.33 Q1576.84 1461.2 1575.01 1457.66 Q1573.21 1454.1 1569.57 1454.1 M1569.57 1450.39 Q1575.38 1450.39 1578.44 1455 Q1581.52 1459.58 1581.52 1468.33 Q1581.52 1477.06 1578.44 1481.67 Q1575.38 1486.25 1569.57 1486.25 Q1563.76 1486.25 1560.69 1481.67 Q1557.63 1477.06 1557.63 1468.33 Q1557.63 1459.58 1560.69 1455 Q1563.76 1450.39 1569.57 1450.39 Z" fill="#000000" fill-rule="evenodd" fill-opacity="1" /><path clip-path="url(#clip280)" d="M1602.58 1455.09 L1590.78 1473.54 L1602.58 1473.54 L1602.58 1455.09 M1601.36 1451.02 L1607.24 1451.02 L1607.24 1473.54 L1612.17 1473.54 L1612.17 1477.43 L1607.24 1477.43 L1607.24 1485.58 L1602.58 1485.58 L1602.58 1477.43 L1586.98 1477.43 L1586.98 1472.92 L1601.36 1451.02 Z" fill="#000000" fill-rule="evenodd" fill-opacity="1" /><path clip-path="url(#clip280)" d="M1629.9 1454.1 Q1626.29 1454.1 1624.46 1457.66 Q1622.65 1461.2 1622.65 1468.33 Q1622.65 1475.44 1624.46 1479.01 Q1626.29 1482.55 1629.9 1482.55 Q1633.53 1482.55 1635.34 1479.01 Q1637.17 1475.44 1637.17 1468.33 Q1637.17 1461.2 1635.34 1457.66 Q1633.53 1454.1 1629.9 1454.1 M1629.9 1450.39 Q1635.71 1450.39 1638.76 1455 Q1641.84 1459.58 1641.84 1468.33 Q1641.84 1477.06 1638.76 1481.67 Q1635.71 1486.25 1629.9 1486.25 Q1624.09 1486.25 1621.01 1481.67 Q1617.95 1477.06 1617.95 1468.33 Q1617.95 1459.58 1621.01 1455 Q1624.09 1450.39 1629.9 1450.39 Z" fill="#000000" fill-rule="evenodd" fill-opacity="1" /><path clip-path="url(#clip280)" d="M1945.19 1481.64 L1952.82 1481.64 L1952.82 1455.28 L1944.51 1456.95 L1944.51 1452.69 L1952.78 1451.02 L1957.45 1451.02 L1957.45 1481.64 L1965.09 1481.64 L1965.09 1485.58 L1945.19 1485.58 L1945.19 1481.64 Z" fill="#000000" fill-rule="evenodd" fill-opacity="1" /><path clip-path="url(#clip280)" d="M1984.54 1454.1 Q1980.93 1454.1 1979.1 1457.66 Q1977.29 1461.2 1977.29 1468.33 Q1977.29 1475.44 1979.1 1479.01 Q1980.93 1482.55 1984.54 1482.55 Q1988.17 1482.55 1989.98 1479.01 Q1991.81 1475.44 1991.81 1468.33 Q1991.81 1461.2 1989.98 1457.66 Q1988.17 1454.1 1984.54 1454.1 M1984.54 1450.39 Q1990.35 1450.39 1993.4 1455 Q1996.48 1459.58 1996.48 1468.33 Q1996.48 1477.06 1993.4 1481.67 Q1990.35 1486.25 1984.54 1486.25 Q1978.73 1486.25 1975.65 1481.67 Q1972.59 1477.06 1972.59 1468.33 Q1972.59 1459.58 1975.65 1455 Q1978.73 1450.39 1984.54 1450.39 Z" fill="#000000" fill-rule="evenodd" fill-opacity="1" /><path clip-path="url(#clip280)" d="M2015.28 1466.44 Q2012.13 1466.44 2010.28 1468.59 Q2008.45 1470.74 2008.45 1474.49 Q2008.45 1478.22 2010.28 1480.39 Q2012.13 1482.55 2015.28 1482.55 Q2018.43 1482.55 2020.25 1480.39 Q2022.11 1478.22 2022.11 1474.49 Q2022.11 1470.74 2020.25 1468.59 Q2018.43 1466.44 2015.28 1466.44 M2024.56 1451.78 L2024.56 1456.04 Q2022.8 1455.21 2021 1454.77 Q2019.21 1454.33 2017.45 1454.33 Q2012.82 1454.33 2010.37 1457.45 Q2007.94 1460.58 2007.59 1466.9 Q2008.96 1464.89 2011.02 1463.82 Q2013.08 1462.73 2015.56 1462.73 Q2020.76 1462.73 2023.77 1465.9 Q2026.81 1469.05 2026.81 1474.49 Q2026.81 1479.82 2023.66 1483.03 Q2020.51 1486.25 2015.28 1486.25 Q2009.28 1486.25 2006.11 1481.67 Q2002.94 1477.06 2002.94 1468.33 Q2002.94 1460.14 2006.83 1455.28 Q2010.72 1450.39 2017.27 1450.39 Q2019.03 1450.39 2020.81 1450.74 Q2022.62 1451.09 2024.56 1451.78 Z" fill="#000000" fill-rule="evenodd" fill-opacity="1" /><path clip-path="url(#clip280)" d="M2044.86 1454.1 Q2041.25 1454.1 2039.42 1457.66 Q2037.62 1461.2 2037.62 1468.33 Q2037.62 1475.44 2039.42 1479.01 Q2041.25 1482.55 2044.86 1482.55 Q2048.5 1482.55 2050.3 1479.01 Q2052.13 1475.44 2052.13 1468.33 Q2052.13 1461.2 2050.3 1457.66 Q2048.5 1454.1 2044.86 1454.1 M2044.86 1450.39 Q2050.67 1450.39 2053.73 1455 Q2056.81 1459.58 2056.81 1468.33 Q2056.81 1477.06 2053.73 1481.67 Q2050.67 1486.25 2044.86 1486.25 Q2039.05 1486.25 2035.97 1481.67 Q2032.92 1477.06 2032.92 1468.33 Q2032.92 1459.58 2035.97 1455 Q2039.05 1450.39 2044.86 1450.39 Z" fill="#000000" fill-rule="evenodd" fill-opacity="1" /><path clip-path="url(#clip280)" d="M1152.54 1532.4 L1139.65 1549.74 L1153.21 1568.04 L1146.3 1568.04 L1135.93 1554.04 L1125.55 1568.04 L1118.64 1568.04 L1132.49 1549.39 L1119.82 1532.4 L1126.73 1532.4 L1136.18 1545.1 L1145.63 1532.4 L1152.54 1532.4 Z" fill="#000000" fill-rule="evenodd" fill-opacity="1" /><path clip-path="url(#clip280)" d="M1181.66 1518.52 L1195.16 1518.52 L1195.16 1523.07 L1187.52 1523.07 L1187.52 1572.09 L1195.16 1572.09 L1195.16 1576.64 L1181.66 1576.64 L1181.66 1518.52 Z" fill="#000000" fill-rule="evenodd" fill-opacity="1" /><path clip-path="url(#clip280)" d="M1213.3 1562.7 L1213.3 1581.6 L1207.41 1581.6 L1207.41 1532.4 L1213.3 1532.4 L1213.3 1537.81 Q1215.15 1534.62 1217.95 1533.1 Q1220.78 1531.54 1224.7 1531.54 Q1231.19 1531.54 1235.23 1536.69 Q1239.31 1541.85 1239.31 1550.25 Q1239.31 1558.65 1235.23 1563.81 Q1231.19 1568.97 1224.7 1568.97 Q1220.78 1568.97 1217.95 1567.44 Q1215.15 1565.88 1213.3 1562.7 M1233.23 1550.25 Q1233.23 1543.79 1230.55 1540.13 Q1227.91 1536.44 1223.26 1536.44 Q1218.62 1536.44 1215.94 1540.13 Q1213.3 1543.79 1213.3 1550.25 Q1213.3 1556.71 1215.94 1560.4 Q1218.62 1564.07 1223.26 1564.07 Q1227.91 1564.07 1230.55 1560.4 Q1233.23 1556.71 1233.23 1550.25 Z" fill="#000000" fill-rule="evenodd" fill-opacity="1" /><path clip-path="url(#clip280)" d="M1249.01 1532.4 L1254.87 1532.4 L1254.87 1568.04 L1249.01 1568.04 L1249.01 1532.4 M1249.01 1518.52 L1254.87 1518.52 L1254.87 1525.93 L1249.01 1525.93 L1249.01 1518.52 Z" fill="#000000" fill-rule="evenodd" fill-opacity="1" /><path clip-path="url(#clip280)" d="M1296.76 1532.4 L1283.87 1549.74 L1297.43 1568.04 L1290.52 1568.04 L1280.14 1554.04 L1269.77 1568.04 L1262.86 1568.04 L1276.7 1549.39 L1264.04 1532.4 L1270.94 1532.4 L1280.4 1545.1 L1289.85 1532.4 L1296.76 1532.4 Z" fill="#000000" fill-rule="evenodd" fill-opacity="1" /><path clip-path="url(#clip280)" d="M1334.19 1548.76 L1334.19 1551.62 L1307.26 1551.62 Q1307.64 1557.67 1310.89 1560.85 Q1314.17 1564 1319.99 1564 Q1323.37 1564 1326.52 1563.17 Q1329.7 1562.35 1332.82 1560.69 L1332.82 1566.23 Q1329.67 1567.57 1326.36 1568.27 Q1323.05 1568.97 1319.64 1568.97 Q1311.11 1568.97 1306.11 1564 Q1301.15 1559.04 1301.15 1550.57 Q1301.15 1541.82 1305.86 1536.69 Q1310.6 1531.54 1318.62 1531.54 Q1325.82 1531.54 1329.99 1536.18 Q1334.19 1540.8 1334.19 1548.76 M1328.33 1547.04 Q1328.27 1542.23 1325.63 1539.37 Q1323.02 1536.5 1318.69 1536.5 Q1313.78 1536.5 1310.82 1539.27 Q1307.9 1542.04 1307.45 1547.07 L1328.33 1547.04 Z" fill="#000000" fill-rule="evenodd" fill-opacity="1" /><path clip-path="url(#clip280)" d="M1343.8 1518.52 L1349.66 1518.52 L1349.66 1568.04 L1343.8 1568.04 L1343.8 1518.52 Z" fill="#000000" fill-rule="evenodd" fill-opacity="1" /><path clip-path="url(#clip280)" d="M1384.64 1533.45 L1384.64 1538.98 Q1382.15 1537.71 1379.48 1537.07 Q1376.81 1536.44 1373.94 1536.44 Q1369.58 1536.44 1367.38 1537.77 Q1365.22 1539.11 1365.22 1541.79 Q1365.22 1543.82 1366.78 1545 Q1368.34 1546.15 1373.05 1547.2 L1375.05 1547.64 Q1381.29 1548.98 1383.9 1551.43 Q1386.54 1553.85 1386.54 1558.21 Q1386.54 1563.17 1382.6 1566.07 Q1378.68 1568.97 1371.81 1568.97 Q1368.94 1568.97 1365.82 1568.39 Q1362.74 1567.85 1359.3 1566.74 L1359.3 1560.69 Q1362.55 1562.38 1365.7 1563.24 Q1368.85 1564.07 1371.94 1564.07 Q1376.07 1564.07 1378.3 1562.66 Q1380.53 1561.23 1380.53 1558.65 Q1380.53 1556.27 1378.91 1554.99 Q1377.31 1553.72 1371.87 1552.54 L1369.83 1552.07 Q1364.39 1550.92 1361.97 1548.56 Q1359.55 1546.18 1359.55 1542.04 Q1359.55 1537.01 1363.12 1534.27 Q1366.68 1531.54 1373.24 1531.54 Q1376.49 1531.54 1379.35 1532.01 Q1382.22 1532.49 1384.64 1533.45 Z" fill="#000000" fill-rule="evenodd" fill-opacity="1" /><path clip-path="url(#clip280)" d="M1409.56 1518.52 L1409.56 1576.64 L1396.06 1576.64 L1396.06 1572.09 L1403.67 1572.09 L1403.67 1523.07 L1396.06 1523.07 L1396.06 1518.52 L1409.56 1518.52 Z" fill="#000000" fill-rule="evenodd" fill-opacity="1" /><polyline clip-path="url(#clip282)" style="stroke:#000000; stroke-linecap:butt; stroke-linejoin:round; stroke-width:2; stroke-opacity:0.1; fill:none" points="
  175.445,1346.62 2352.76,1346.62 
  "/>
<polyline clip-path="url(#clip282)" style="stroke:#000000; stroke-linecap:butt; stroke-linejoin:round; stroke-width:2; stroke-opacity:0.1; fill:none" points="
  175.445,1042.57 2352.76,1042.57 
  "/>
<polyline clip-path="url(#clip282)" style="stroke:#000000; stroke-linecap:butt; stroke-linejoin:round; stroke-width:2; stroke-opacity:0.1; fill:none" points="
  175.445,738.513 2352.76,738.513 
  "/>
<polyline clip-path="url(#clip282)" style="stroke:#000000; stroke-linecap:butt; stroke-linejoin:round; stroke-width:2; stroke-opacity:0.1; fill:none" points="
  175.445,434.46 2352.76,434.46 
  "/>
<polyline clip-path="url(#clip280)" style="stroke:#000000; stroke-linecap:butt; stroke-linejoin:round; stroke-width:4; stroke-opacity:1; fill:none" points="
  175.445,1423.18 175.445,183.952 
  "/>
<polyline clip-path="url(#clip280)" style="stroke:#000000; stroke-linecap:butt; stroke-linejoin:round; stroke-width:4; stroke-opacity:1; fill:none" points="
  175.445,1346.62 194.343,1346.62 
  "/>
<polyline clip-path="url(#clip280)" style="stroke:#000000; stroke-linecap:butt; stroke-linejoin:round; stroke-width:4; stroke-opacity:1; fill:none" points="
  175.445,1042.57 194.343,1042.57 
  "/>
<polyline clip-path="url(#clip280)" style="stroke:#000000; stroke-linecap:butt; stroke-linejoin:round; stroke-width:4; stroke-opacity:1; fill:none" points="
  175.445,738.513 194.343,738.513 
  "/>
<polyline clip-path="url(#clip280)" style="stroke:#000000; stroke-linecap:butt; stroke-linejoin:round; stroke-width:4; stroke-opacity:1; fill:none" points="
  175.445,434.46 194.343,434.46 
  "/>
<path clip-path="url(#clip280)" d="M127.501 1332.42 Q123.89 1332.42 122.061 1335.98 Q120.255 1339.52 120.255 1346.65 Q120.255 1353.76 122.061 1357.32 Q123.89 1360.87 127.501 1360.87 Q131.135 1360.87 132.941 1357.32 Q134.769 1353.76 134.769 1346.65 Q134.769 1339.52 132.941 1335.98 Q131.135 1332.42 127.501 1332.42 M127.501 1328.71 Q133.311 1328.71 136.367 1333.32 Q139.445 1337.9 139.445 1346.65 Q139.445 1355.38 136.367 1359.99 Q133.311 1364.57 127.501 1364.57 Q121.691 1364.57 118.612 1359.99 Q115.556 1355.38 115.556 1346.65 Q115.556 1337.9 118.612 1333.32 Q121.691 1328.71 127.501 1328.71 Z" fill="#000000" fill-rule="evenodd" fill-opacity="1" /><path clip-path="url(#clip280)" d="M123.126 1055.91 L139.445 1055.91 L139.445 1059.85 L117.501 1059.85 L117.501 1055.91 Q120.163 1053.16 124.746 1048.53 Q129.353 1043.87 130.533 1042.53 Q132.779 1040.01 133.658 1038.27 Q134.561 1036.51 134.561 1034.82 Q134.561 1032.07 132.617 1030.33 Q130.695 1028.6 127.593 1028.6 Q125.394 1028.6 122.941 1029.36 Q120.51 1030.12 117.732 1031.67 L117.732 1026.95 Q120.556 1025.82 123.01 1025.24 Q125.464 1024.66 127.501 1024.66 Q132.871 1024.66 136.066 1027.35 Q139.26 1030.03 139.26 1034.52 Q139.26 1036.65 138.45 1038.57 Q137.663 1040.47 135.556 1043.06 Q134.978 1043.73 131.876 1046.95 Q128.774 1050.15 123.126 1055.91 Z" fill="#000000" fill-rule="evenodd" fill-opacity="1" /><path clip-path="url(#clip280)" d="M129.862 725.307 L118.056 743.756 L129.862 743.756 L129.862 725.307 M128.635 721.233 L134.515 721.233 L134.515 743.756 L139.445 743.756 L139.445 747.645 L134.515 747.645 L134.515 755.793 L129.862 755.793 L129.862 747.645 L114.26 747.645 L114.26 743.131 L128.635 721.233 Z" fill="#000000" fill-rule="evenodd" fill-opacity="1" /><path clip-path="url(#clip280)" d="M127.917 432.597 Q124.769 432.597 122.918 434.75 Q121.089 436.903 121.089 440.653 Q121.089 444.379 122.918 446.555 Q124.769 448.708 127.917 448.708 Q131.066 448.708 132.894 446.555 Q134.746 444.379 134.746 440.653 Q134.746 436.903 132.894 434.75 Q131.066 432.597 127.917 432.597 M137.2 417.944 L137.2 422.204 Q135.441 421.37 133.635 420.93 Q131.853 420.491 130.093 420.491 Q125.464 420.491 123.01 423.616 Q120.58 426.741 120.232 433.06 Q121.598 431.046 123.658 429.981 Q125.718 428.893 128.195 428.893 Q133.404 428.893 136.413 432.065 Q139.445 435.213 139.445 440.653 Q139.445 445.977 136.297 449.194 Q133.149 452.412 127.917 452.412 Q121.922 452.412 118.751 447.828 Q115.58 443.222 115.58 434.495 Q115.58 426.301 119.468 421.44 Q123.357 416.556 129.908 416.556 Q131.667 416.556 133.45 416.903 Q135.255 417.25 137.2 417.944 Z" fill="#000000" fill-rule="evenodd" fill-opacity="1" /><path clip-path="url(#clip280)" d="M21.7677 978.305 L39.6235 978.305 L39.6235 970.22 Q39.6235 965.732 37.3 963.282 Q34.9765 960.831 30.6797 960.831 Q26.4147 960.831 24.0912 963.282 Q21.7677 965.732 21.7677 970.22 L21.7677 978.305 M16.4842 984.734 L16.4842 970.22 Q16.4842 962.231 20.1126 958.157 Q23.7092 954.051 30.6797 954.051 Q37.7138 954.051 41.3104 958.157 Q44.907 962.231 44.907 970.22 L44.907 978.305 L64.0042 978.305 L64.0042 984.734 L16.4842 984.734 Z" fill="#000000" fill-rule="evenodd" fill-opacity="1" /><path clip-path="url(#clip280)" d="M42.4881 916.048 L64.0042 916.048 L64.0042 921.904 L42.679 921.904 Q37.6183 921.904 35.1038 923.878 Q32.5894 925.851 32.5894 929.798 Q32.5894 934.54 35.6131 937.278 Q38.6368 940.015 43.8567 940.015 L64.0042 940.015 L64.0042 945.903 L14.479 945.903 L14.479 940.015 L33.8944 940.015 Q30.6797 937.914 29.0883 935.081 Q27.4968 932.217 27.4968 928.493 Q27.4968 922.35 31.3163 919.199 Q35.1038 916.048 42.4881 916.048 Z" fill="#000000" fill-rule="evenodd" fill-opacity="1" /><path clip-path="url(#clip280)" d="M46.0847 888.166 Q46.0847 895.264 47.7079 898.001 Q49.3312 900.738 53.2461 900.738 Q56.3653 900.738 58.2114 898.701 Q60.0256 896.633 60.0256 893.1 Q60.0256 888.23 56.5881 885.302 Q53.1188 882.342 47.3897 882.342 L46.0847 882.342 L46.0847 888.166 M43.6657 876.485 L64.0042 876.485 L64.0042 882.342 L58.5933 882.342 Q61.8398 884.347 63.3994 887.339 Q64.9272 890.331 64.9272 894.659 Q64.9272 900.134 61.8716 903.38 Q58.7843 906.595 53.6281 906.595 Q47.6125 906.595 44.5569 902.585 Q41.5014 898.542 41.5014 890.553 L41.5014 882.342 L40.9285 882.342 Q36.8862 882.342 34.6901 885.015 Q32.4621 887.657 32.4621 892.463 Q32.4621 895.519 33.1941 898.415 Q33.9262 901.311 35.3903 903.985 L29.9795 903.985 Q28.7381 900.77 28.1334 897.747 Q27.4968 894.723 27.4968 891.858 Q27.4968 884.124 31.5072 880.305 Q35.5176 876.485 43.6657 876.485 Z" fill="#000000" fill-rule="evenodd" fill-opacity="1" /><path clip-path="url(#clip280)" d="M29.4065 841.697 L34.9447 841.697 Q33.6716 844.179 33.035 846.853 Q32.3984 849.526 32.3984 852.391 Q32.3984 856.751 33.7352 858.948 Q35.072 861.112 37.7456 861.112 Q39.7826 861.112 40.9603 859.552 Q42.1061 857.993 43.1565 853.282 L43.6021 851.277 Q44.9389 845.039 47.3897 842.429 Q49.8086 839.787 54.1691 839.787 Q59.1344 839.787 62.0308 843.734 Q64.9272 847.649 64.9272 854.523 Q64.9272 857.388 64.3543 860.507 Q63.8132 863.595 62.6992 867.032 L56.6518 867.032 Q58.3387 863.786 59.198 860.635 Q60.0256 857.484 60.0256 854.396 Q60.0256 850.258 58.6251 848.03 Q57.1929 845.802 54.6147 845.802 Q52.2276 845.802 50.9545 847.426 Q49.6813 849.017 48.5037 854.46 L48.0262 856.497 Q46.8804 861.94 44.5251 864.358 Q42.138 866.777 38.0002 866.777 Q32.9713 866.777 30.2341 863.213 Q27.4968 859.648 27.4968 853.091 Q27.4968 849.845 27.9743 846.98 Q28.4517 844.116 29.4065 841.697 Z" fill="#000000" fill-rule="evenodd" fill-opacity="1" /><path clip-path="url(#clip280)" d="M44.7161 799.969 L47.5806 799.969 L47.5806 826.896 Q53.6281 826.514 56.8109 823.268 Q59.9619 819.99 59.9619 814.165 Q59.9619 810.791 59.1344 807.64 Q58.3069 804.457 56.6518 801.338 L62.1899 801.338 Q63.5267 804.489 64.227 807.799 Q64.9272 811.109 64.9272 814.515 Q64.9272 823.045 59.9619 828.042 Q54.9967 833.007 46.5303 833.007 Q37.7774 833.007 32.6531 828.297 Q27.4968 823.554 27.4968 815.534 Q27.4968 808.34 32.1438 804.171 Q36.7589 799.969 44.7161 799.969 M42.9973 805.826 Q38.1912 805.889 35.3266 808.531 Q32.4621 811.141 32.4621 815.47 Q32.4621 820.371 35.2312 823.332 Q38.0002 826.26 43.0292 826.705 L42.9973 805.826 Z" fill="#000000" fill-rule="evenodd" fill-opacity="1" /><path clip-path="url(#clip280)" d="M14.479 770.178 L14.479 756.683 L19.0304 756.683 L19.0304 764.321 L68.0464 764.321 L68.0464 756.683 L72.5979 756.683 L72.5979 770.178 L14.479 770.178 Z" fill="#000000" fill-rule="evenodd" fill-opacity="1" /><path clip-path="url(#clip280)" d="M33.8307 723.549 Q33.2578 724.536 33.0032 725.713 Q32.7167 726.859 32.7167 728.26 Q32.7167 733.225 35.9632 735.899 Q39.1779 738.54 45.2253 738.54 L64.0042 738.54 L64.0042 744.429 L28.3562 744.429 L28.3562 738.54 L33.8944 738.54 Q30.6479 736.694 29.0883 733.734 Q27.4968 730.774 27.4968 726.541 Q27.4968 725.936 27.5923 725.204 Q27.656 724.472 27.8151 723.581 L33.8307 723.549 Z" fill="#000000" fill-rule="evenodd" fill-opacity="1" /><path clip-path="url(#clip280)" d="M46.0847 701.205 Q46.0847 708.303 47.7079 711.04 Q49.3312 713.778 53.2461 713.778 Q56.3653 713.778 58.2114 711.741 Q60.0256 709.672 60.0256 706.139 Q60.0256 701.269 56.5881 698.341 Q53.1188 695.381 47.3897 695.381 L46.0847 695.381 L46.0847 701.205 M43.6657 689.524 L64.0042 689.524 L64.0042 695.381 L58.5933 695.381 Q61.8398 697.386 63.3994 700.378 Q64.9272 703.37 64.9272 707.698 Q64.9272 713.173 61.8716 716.419 Q58.7843 719.634 53.6281 719.634 Q47.6125 719.634 44.5569 715.624 Q41.5014 711.582 41.5014 703.593 L41.5014 695.381 L40.9285 695.381 Q36.8862 695.381 34.6901 698.054 Q32.4621 700.696 32.4621 705.502 Q32.4621 708.558 33.1941 711.454 Q33.9262 714.351 35.3903 717.024 L29.9795 717.024 Q28.7381 713.81 28.1334 710.786 Q27.4968 707.762 27.4968 704.898 Q27.4968 697.163 31.5072 693.344 Q35.5176 689.524 43.6657 689.524 Z" fill="#000000" fill-rule="evenodd" fill-opacity="1" /><path clip-path="url(#clip280)" d="M33.7671 654.004 L14.479 654.004 L14.479 648.147 L64.0042 648.147 L64.0042 654.004 L58.657 654.004 Q61.8398 655.85 63.3994 658.683 Q64.9272 661.483 64.9272 665.43 Q64.9272 671.891 59.771 675.965 Q54.6147 680.008 46.212 680.008 Q37.8093 680.008 32.6531 675.965 Q27.4968 671.891 27.4968 665.43 Q27.4968 661.483 29.0564 658.683 Q30.5842 655.85 33.7671 654.004 M46.212 673.96 Q52.6732 673.96 56.3653 671.318 Q60.0256 668.645 60.0256 663.998 Q60.0256 659.351 56.3653 656.677 Q52.6732 654.004 46.212 654.004 Q39.7508 654.004 36.0905 656.677 Q32.3984 659.351 32.3984 663.998 Q32.3984 668.645 36.0905 671.318 Q39.7508 673.96 46.212 673.96 Z" fill="#000000" fill-rule="evenodd" fill-opacity="1" /><path clip-path="url(#clip280)" d="M14.479 622.398 L72.5979 622.398 L72.5979 635.893 L68.0464 635.893 L68.0464 628.286 L19.0304 628.286 L19.0304 635.893 L14.479 635.893 L14.479 622.398 Z" fill="#000000" fill-rule="evenodd" fill-opacity="1" /><path clip-path="url(#clip280)" d="M172.665 65.3877 Q175.299 66.2789 177.77 69.1955 Q180.281 72.1122 182.793 77.2163 L191.097 93.744 L182.307 93.744 L174.569 78.229 Q171.572 72.1527 168.736 70.1677 Q165.941 68.1828 161.08 68.1828 L152.168 68.1828 L152.168 93.744 L143.985 93.744 L143.985 33.264 L162.457 33.264 Q172.827 33.264 177.932 37.5985 Q183.036 41.9329 183.036 50.6829 Q183.036 56.3947 180.362 60.162 Q177.729 63.9293 172.665 65.3877 M152.168 39.9885 L152.168 61.4583 L162.457 61.4583 Q168.371 61.4583 171.369 58.7442 Q174.407 55.9896 174.407 50.6829 Q174.407 45.3762 171.369 42.7026 Q168.371 39.9885 162.457 39.9885 L152.168 39.9885 Z" fill="#000000" fill-rule="evenodd" fill-opacity="1" /><path clip-path="url(#clip280)" d="M220.102 70.9374 Q211.068 70.9374 207.584 73.0034 Q204.1 75.0693 204.1 80.0519 Q204.1 84.0218 206.693 86.3714 Q209.326 88.6804 213.823 88.6804 Q220.021 88.6804 223.747 84.3054 Q227.515 79.8899 227.515 72.5983 L227.515 70.9374 L220.102 70.9374 M234.968 67.8587 L234.968 93.744 L227.515 93.744 L227.515 86.8575 Q224.963 90.9894 221.155 92.9743 Q217.347 94.9188 211.838 94.9188 Q204.87 94.9188 200.738 91.0299 Q196.647 87.1005 196.647 80.5381 Q196.647 72.8818 201.751 68.993 Q206.896 65.1041 217.063 65.1041 L227.515 65.1041 L227.515 64.3749 Q227.515 59.2303 224.112 56.4352 Q220.75 53.5995 214.633 53.5995 Q210.744 53.5995 207.058 54.5312 Q203.371 55.463 199.969 57.3264 L199.969 50.4398 Q204.06 48.86 207.908 48.0903 Q211.757 47.2801 215.402 47.2801 Q225.246 47.2801 230.107 52.3843 Q234.968 57.4884 234.968 67.8587 Z" fill="#000000" fill-rule="evenodd" fill-opacity="1" /><path clip-path="url(#clip280)" d="M280.176 55.2604 L280.176 30.7119 L287.63 30.7119 L287.63 93.744 L280.176 93.744 L280.176 86.9385 Q277.827 90.9894 274.222 92.9743 Q270.657 94.9188 265.634 94.9188 Q257.41 94.9188 252.225 88.3563 Q247.081 81.7938 247.081 71.0994 Q247.081 60.4051 252.225 53.8426 Q257.41 47.2801 265.634 47.2801 Q270.657 47.2801 274.222 49.2651 Q277.827 51.2095 280.176 55.2604 M254.777 71.0994 Q254.777 79.3228 258.14 84.0218 Q261.542 88.6804 267.457 88.6804 Q273.371 88.6804 276.774 84.0218 Q280.176 79.3228 280.176 71.0994 Q280.176 62.8761 276.774 58.2176 Q273.371 53.5185 267.457 53.5185 Q261.542 53.5185 258.14 58.2176 Q254.777 62.8761 254.777 71.0994 Z" fill="#000000" fill-rule="evenodd" fill-opacity="1" /><path clip-path="url(#clip280)" d="M302.983 48.3739 L310.437 48.3739 L310.437 93.744 L302.983 93.744 L302.983 48.3739 M302.983 30.7119 L310.437 30.7119 L310.437 40.1505 L302.983 40.1505 L302.983 30.7119 Z" fill="#000000" fill-rule="evenodd" fill-opacity="1" /><path clip-path="url(#clip280)" d="M325.263 75.839 L325.263 48.3739 L332.717 48.3739 L332.717 75.5554 Q332.717 81.9964 335.228 85.2371 Q337.74 88.4373 342.763 88.4373 Q348.799 88.4373 352.283 84.589 Q355.807 80.7406 355.807 74.0971 L355.807 48.3739 L363.26 48.3739 L363.26 93.744 L355.807 93.744 L355.807 86.7764 Q353.093 90.9084 349.487 92.9338 Q345.923 94.9188 341.183 94.9188 Q333.365 94.9188 329.314 90.0577 Q325.263 85.1966 325.263 75.839 M344.019 47.2801 L344.019 47.2801 Z" fill="#000000" fill-rule="evenodd" fill-opacity="1" /><path clip-path="url(#clip280)" d="M407.537 49.7107 L407.537 56.7592 Q404.377 55.1389 400.974 54.3287 Q397.572 53.5185 393.926 53.5185 Q388.376 53.5185 385.581 55.2199 Q382.826 56.9213 382.826 60.324 Q382.826 62.9166 384.811 64.4155 Q386.796 65.8738 392.792 67.2106 L395.344 67.7777 Q403.283 69.4791 406.605 72.5983 Q409.967 75.677 409.967 81.2267 Q409.967 87.5461 404.944 91.2324 Q399.962 94.9188 391.212 94.9188 Q387.566 94.9188 383.596 94.1896 Q379.667 93.5009 375.292 92.0831 L375.292 84.3864 Q379.424 86.5334 383.434 87.6271 Q387.444 88.6804 391.374 88.6804 Q396.64 88.6804 399.476 86.898 Q402.311 85.0751 402.311 81.7938 Q402.311 78.7557 400.245 77.1353 Q398.22 75.5149 391.293 74.0161 L388.7 73.4085 Q381.773 71.9501 378.694 68.9525 Q375.616 65.9143 375.616 60.6481 Q375.616 54.2477 380.153 50.7639 Q384.69 47.2801 393.035 47.2801 Q397.167 47.2801 400.812 47.8878 Q404.458 48.4954 407.537 49.7107 Z" fill="#000000" fill-rule="evenodd" fill-opacity="1" /><path clip-path="url(#clip280)" d="M423.74 83.4547 L432.288 83.4547 L432.288 93.744 L423.74 93.744 L423.74 83.4547 M423.74 50.8449 L432.288 50.8449 L432.288 61.1342 L423.74 61.1342 L423.74 50.8449 Z" fill="#000000" fill-rule="evenodd" fill-opacity="1" /><path clip-path="url(#clip280)" d="M478.63 86.8575 L491.998 86.8575 L491.998 40.7177 L477.455 43.6343 L477.455 36.1807 L491.917 33.264 L500.1 33.264 L500.1 86.8575 L513.468 86.8575 L513.468 93.744 L478.63 93.744 L478.63 86.8575 Z" fill="#000000" fill-rule="evenodd" fill-opacity="1" /><path clip-path="url(#clip280)" d="M547.496 38.6517 Q541.176 38.6517 537.976 44.8901 Q534.816 51.088 534.816 63.5648 Q534.816 76.001 537.976 82.2394 Q541.176 88.4373 547.496 88.4373 Q553.856 88.4373 557.015 82.2394 Q560.215 76.001 560.215 63.5648 Q560.215 51.088 557.015 44.8901 Q553.856 38.6517 547.496 38.6517 M547.496 32.1703 Q557.663 32.1703 563.011 40.2316 Q568.398 48.2523 568.398 63.5648 Q568.398 78.8367 563.011 86.898 Q557.663 94.9188 547.496 94.9188 Q537.328 94.9188 531.94 86.898 Q526.593 78.8367 526.593 63.5648 Q526.593 48.2523 531.94 40.2316 Q537.328 32.1703 547.496 32.1703 Z" fill="#000000" fill-rule="evenodd" fill-opacity="1" /><path clip-path="url(#clip280)" d="M600.279 38.6517 Q593.959 38.6517 590.759 44.8901 Q587.6 51.088 587.6 63.5648 Q587.6 76.001 590.759 82.2394 Q593.959 88.4373 600.279 88.4373 Q606.639 88.4373 609.799 82.2394 Q612.999 76.001 612.999 63.5648 Q612.999 51.088 609.799 44.8901 Q606.639 38.6517 600.279 38.6517 M600.279 32.1703 Q610.447 32.1703 615.794 40.2316 Q621.182 48.2523 621.182 63.5648 Q621.182 78.8367 615.794 86.898 Q610.447 94.9188 600.279 94.9188 Q590.111 94.9188 584.723 86.898 Q579.376 78.8367 579.376 63.5648 Q579.376 48.2523 584.723 40.2316 Q590.111 32.1703 600.279 32.1703 Z" fill="#000000" fill-rule="evenodd" fill-opacity="1" /><path clip-path="url(#clip280)" d="M635.562 83.4547 L644.11 83.4547 L644.11 93.744 L635.562 93.744 L635.562 83.4547 Z" fill="#000000" fill-rule="evenodd" fill-opacity="1" /><path clip-path="url(#clip280)" d="M679.434 38.6517 Q673.114 38.6517 669.914 44.8901 Q666.754 51.088 666.754 63.5648 Q666.754 76.001 669.914 82.2394 Q673.114 88.4373 679.434 88.4373 Q685.793 88.4373 688.953 82.2394 Q692.153 76.001 692.153 63.5648 Q692.153 51.088 688.953 44.8901 Q685.793 38.6517 679.434 38.6517 M679.434 32.1703 Q689.601 32.1703 694.949 40.2316 Q700.336 48.2523 700.336 63.5648 Q700.336 78.8367 694.949 86.898 Q689.601 94.9188 679.434 94.9188 Q669.266 94.9188 663.878 86.898 Q658.531 78.8367 658.531 63.5648 Q658.531 48.2523 663.878 40.2316 Q669.266 32.1703 679.434 32.1703 Z" fill="#000000" fill-rule="evenodd" fill-opacity="1" /><path clip-path="url(#clip280)" d="M739.265 111.001 L739.265 48.3739 L746.719 48.3739 L746.719 76.5682 Q746.719 82.442 749.514 85.4396 Q752.309 88.4373 757.778 88.4373 Q763.773 88.4373 766.771 85.0346 Q769.809 81.6318 769.809 74.8263 L769.809 48.3739 L777.263 48.3739 L777.263 83.2927 Q777.263 85.7232 777.952 86.898 Q778.681 88.0322 780.18 88.0322 Q780.544 88.0322 781.192 87.8297 Q781.84 87.5866 782.975 87.1005 L782.975 93.0959 Q781.314 94.0276 779.815 94.4732 Q778.357 94.9188 776.939 94.9188 Q774.144 94.9188 772.483 93.3389 Q770.822 91.7591 770.214 88.5183 Q768.189 91.7185 765.232 93.3389 Q762.315 94.9188 758.345 94.9188 Q754.213 94.9188 751.297 93.3389 Q748.42 91.7591 746.719 88.5994 L746.719 111.001 L739.265 111.001 Z" fill="#000000" fill-rule="evenodd" fill-opacity="1" /><path clip-path="url(#clip280)" d="M828.142 57.0833 Q830.937 52.0602 834.826 49.6702 Q838.715 47.2801 843.981 47.2801 Q851.07 47.2801 854.919 52.2627 Q858.767 57.2048 858.767 66.3599 L858.767 93.744 L851.273 93.744 L851.273 66.6029 Q851.273 60.081 848.964 56.9213 Q846.655 53.7616 841.915 53.7616 Q836.123 53.7616 832.76 57.6099 Q829.398 61.4583 829.398 68.1018 L829.398 93.744 L821.904 93.744 L821.904 66.6029 Q821.904 60.0405 819.595 56.9213 Q817.286 53.7616 812.465 53.7616 Q806.753 53.7616 803.391 57.6504 Q800.029 61.4988 800.029 68.1018 L800.029 93.744 L792.535 93.744 L792.535 48.3739 L800.029 48.3739 L800.029 55.4224 Q802.581 51.25 806.146 49.2651 Q809.711 47.2801 814.612 47.2801 Q819.554 47.2801 822.998 49.7917 Q826.481 52.3032 828.142 57.0833 Z" fill="#000000" fill-rule="evenodd" fill-opacity="1" /><path clip-path="url(#clip280)" d="M875.538 83.4547 L884.085 83.4547 L884.085 90.4223 L877.442 103.385 L872.216 103.385 L875.538 90.4223 L875.538 83.4547 Z" fill="#000000" fill-rule="evenodd" fill-opacity="1" /><path clip-path="url(#clip280)" d="M923.136 48.3739 L958.541 48.3739 L958.541 55.1794 L930.509 87.7892 L958.541 87.7892 L958.541 93.744 L922.123 93.744 L922.123 86.9385 L950.155 54.3287 L923.136 54.3287 L923.136 48.3739 Z" fill="#000000" fill-rule="evenodd" fill-opacity="1" /><path clip-path="url(#clip280)" d="M972.395 86.8575 L985.763 86.8575 L985.763 40.7177 L971.22 43.6343 L971.22 36.1807 L985.682 33.264 L993.865 33.264 L993.865 86.8575 L1007.23 86.8575 L1007.23 93.744 L972.395 93.744 L972.395 86.8575 Z" fill="#000000" fill-rule="evenodd" fill-opacity="1" /><path clip-path="url(#clip280)" d="M1024.61 83.4547 L1033.16 83.4547 L1033.16 93.744 L1024.61 93.744 L1024.61 83.4547 M1024.61 50.8449 L1033.16 50.8449 L1033.16 61.1342 L1024.61 61.1342 L1024.61 50.8449 Z" fill="#000000" fill-rule="evenodd" fill-opacity="1" /><path clip-path="url(#clip280)" d="M1078.16 33.264 L1110.29 33.264 L1110.29 40.1505 L1085.66 40.1505 L1085.66 54.9768 Q1087.44 54.3692 1089.22 54.0856 Q1091.01 53.7616 1092.79 53.7616 Q1102.92 53.7616 1108.83 59.3113 Q1114.74 64.8611 1114.74 74.3402 Q1114.74 84.1028 1108.67 89.5311 Q1102.59 94.9188 1091.53 94.9188 Q1087.72 94.9188 1083.75 94.2706 Q1079.82 93.6225 1075.61 92.3262 L1075.61 84.1028 Q1079.26 86.0878 1083.15 87.06 Q1087.04 88.0322 1091.37 88.0322 Q1098.38 88.0322 1102.47 84.3459 Q1106.56 80.6596 1106.56 74.3402 Q1106.56 68.0208 1102.47 64.3344 Q1098.38 60.6481 1091.37 60.6481 Q1088.09 60.6481 1084.81 61.3773 Q1081.57 62.1064 1078.16 63.6458 L1078.16 33.264 Z" fill="#000000" fill-rule="evenodd" fill-opacity="1" /><path clip-path="url(#clip280)" d="M1148.37 38.6517 Q1142.05 38.6517 1138.85 44.8901 Q1135.69 51.088 1135.69 63.5648 Q1135.69 76.001 1138.85 82.2394 Q1142.05 88.4373 1148.37 88.4373 Q1154.73 88.4373 1157.89 82.2394 Q1161.09 76.001 1161.09 63.5648 Q1161.09 51.088 1157.89 44.8901 Q1154.73 38.6517 1148.37 38.6517 M1148.37 32.1703 Q1158.53 32.1703 1163.88 40.2316 Q1169.27 48.2523 1169.27 63.5648 Q1169.27 78.8367 1163.88 86.898 Q1158.53 94.9188 1148.37 94.9188 Q1138.2 94.9188 1132.81 86.898 Q1127.46 78.8367 1127.46 63.5648 Q1127.46 48.2523 1132.81 40.2316 Q1138.2 32.1703 1148.37 32.1703 Z" fill="#000000" fill-rule="evenodd" fill-opacity="1" /><path clip-path="url(#clip280)" d="M1201.15 38.6517 Q1194.83 38.6517 1191.63 44.8901 Q1188.47 51.088 1188.47 63.5648 Q1188.47 76.001 1191.63 82.2394 Q1194.83 88.4373 1201.15 88.4373 Q1207.51 88.4373 1210.67 82.2394 Q1213.87 76.001 1213.87 63.5648 Q1213.87 51.088 1210.67 44.8901 Q1207.51 38.6517 1201.15 38.6517 M1201.15 32.1703 Q1211.32 32.1703 1216.66 40.2316 Q1222.05 48.2523 1222.05 63.5648 Q1222.05 78.8367 1216.66 86.898 Q1211.32 94.9188 1201.15 94.9188 Q1190.98 94.9188 1185.59 86.898 Q1180.25 78.8367 1180.25 63.5648 Q1180.25 48.2523 1185.59 40.2316 Q1190.98 32.1703 1201.15 32.1703 Z" fill="#000000" fill-rule="evenodd" fill-opacity="1" /><path clip-path="url(#clip280)" d="M1253.93 38.6517 Q1247.61 38.6517 1244.41 44.8901 Q1241.25 51.088 1241.25 63.5648 Q1241.25 76.001 1244.41 82.2394 Q1247.61 88.4373 1253.93 88.4373 Q1260.29 88.4373 1263.45 82.2394 Q1266.65 76.001 1266.65 63.5648 Q1266.65 51.088 1263.45 44.8901 Q1260.29 38.6517 1253.93 38.6517 M1253.93 32.1703 Q1264.1 32.1703 1269.45 40.2316 Q1274.84 48.2523 1274.84 63.5648 Q1274.84 78.8367 1269.45 86.898 Q1264.1 94.9188 1253.93 94.9188 Q1243.77 94.9188 1238.38 86.898 Q1233.03 78.8367 1233.03 63.5648 Q1233.03 48.2523 1238.38 40.2316 Q1243.77 32.1703 1253.93 32.1703 Z" fill="#000000" fill-rule="evenodd" fill-opacity="1" /><path clip-path="url(#clip280)" d="M1306.72 38.6517 Q1300.4 38.6517 1297.2 44.8901 Q1294.04 51.088 1294.04 63.5648 Q1294.04 76.001 1297.2 82.2394 Q1300.4 88.4373 1306.72 88.4373 Q1313.08 88.4373 1316.24 82.2394 Q1319.44 76.001 1319.44 63.5648 Q1319.44 51.088 1316.24 44.8901 Q1313.08 38.6517 1306.72 38.6517 M1306.72 32.1703 Q1316.88 32.1703 1322.23 40.2316 Q1327.62 48.2523 1327.62 63.5648 Q1327.62 78.8367 1322.23 86.898 Q1316.88 94.9188 1306.72 94.9188 Q1296.55 94.9188 1291.16 86.898 Q1285.81 78.8367 1285.81 63.5648 Q1285.81 48.2523 1291.16 40.2316 Q1296.55 32.1703 1306.72 32.1703 Z" fill="#000000" fill-rule="evenodd" fill-opacity="1" /><path clip-path="url(#clip280)" d="M1342 83.4547 L1350.55 83.4547 L1350.55 93.744 L1342 93.744 L1342 83.4547 Z" fill="#000000" fill-rule="evenodd" fill-opacity="1" /><path clip-path="url(#clip280)" d="M1385.87 38.6517 Q1379.55 38.6517 1376.35 44.8901 Q1373.19 51.088 1373.19 63.5648 Q1373.19 76.001 1376.35 82.2394 Q1379.55 88.4373 1385.87 88.4373 Q1392.23 88.4373 1395.39 82.2394 Q1398.59 76.001 1398.59 63.5648 Q1398.59 51.088 1395.39 44.8901 Q1392.23 38.6517 1385.87 38.6517 M1385.87 32.1703 Q1396.04 32.1703 1401.39 40.2316 Q1406.77 48.2523 1406.77 63.5648 Q1406.77 78.8367 1401.39 86.898 Q1396.04 94.9188 1385.87 94.9188 Q1375.7 94.9188 1370.32 86.898 Q1364.97 78.8367 1364.97 63.5648 Q1364.97 48.2523 1370.32 40.2316 Q1375.7 32.1703 1385.87 32.1703 Z" fill="#000000" fill-rule="evenodd" fill-opacity="1" /><path clip-path="url(#clip280)" d="M1445.7 111.001 L1445.7 48.3739 L1453.16 48.3739 L1453.16 76.5682 Q1453.16 82.442 1455.95 85.4396 Q1458.75 88.4373 1464.22 88.4373 Q1470.21 88.4373 1473.21 85.0346 Q1476.25 81.6318 1476.25 74.8263 L1476.25 48.3739 L1483.7 48.3739 L1483.7 83.2927 Q1483.7 85.7232 1484.39 86.898 Q1485.12 88.0322 1486.62 88.0322 Q1486.98 88.0322 1487.63 87.8297 Q1488.28 87.5866 1489.41 87.1005 L1489.41 93.0959 Q1487.75 94.0276 1486.25 94.4732 Q1484.79 94.9188 1483.38 94.9188 Q1480.58 94.9188 1478.92 93.3389 Q1477.26 91.7591 1476.65 88.5183 Q1474.63 91.7185 1471.67 93.3389 Q1468.75 94.9188 1464.78 94.9188 Q1460.65 94.9188 1457.73 93.3389 Q1454.86 91.7591 1453.16 88.5994 L1453.16 111.001 L1445.7 111.001 Z" fill="#000000" fill-rule="evenodd" fill-opacity="1" /><path clip-path="url(#clip280)" d="M1534.58 57.0833 Q1537.37 52.0602 1541.26 49.6702 Q1545.15 47.2801 1550.42 47.2801 Q1557.51 47.2801 1561.36 52.2627 Q1565.2 57.2048 1565.2 66.3599 L1565.2 93.744 L1557.71 93.744 L1557.71 66.6029 Q1557.71 60.081 1555.4 56.9213 Q1553.09 53.7616 1548.35 53.7616 Q1542.56 53.7616 1539.2 57.6099 Q1535.84 61.4583 1535.84 68.1018 L1535.84 93.744 L1528.34 93.744 L1528.34 66.6029 Q1528.34 60.0405 1526.03 56.9213 Q1523.72 53.7616 1518.9 53.7616 Q1513.19 53.7616 1509.83 57.6504 Q1506.47 61.4988 1506.47 68.1018 L1506.47 93.744 L1498.97 93.744 L1498.97 48.3739 L1506.47 48.3739 L1506.47 55.4224 Q1509.02 51.25 1512.58 49.2651 Q1516.15 47.2801 1521.05 47.2801 Q1525.99 47.2801 1529.43 49.7917 Q1532.92 52.3032 1534.58 57.0833 Z" fill="#000000" fill-rule="evenodd" fill-opacity="1" /><path clip-path="url(#clip280)" d="M1581.98 83.4547 L1590.52 83.4547 L1590.52 90.4223 L1583.88 103.385 L1578.65 103.385 L1581.98 90.4223 L1581.98 83.4547 Z" fill="#000000" fill-rule="evenodd" fill-opacity="1" /><path clip-path="url(#clip280)" d="M1629.57 48.3739 L1664.98 48.3739 L1664.98 55.1794 L1636.95 87.7892 L1664.98 87.7892 L1664.98 93.744 L1628.56 93.744 L1628.56 86.9385 L1656.59 54.3287 L1629.57 54.3287 L1629.57 48.3739 Z" fill="#000000" fill-rule="evenodd" fill-opacity="1" /><path clip-path="url(#clip280)" d="M1684.46 86.8575 L1713.02 86.8575 L1713.02 93.744 L1674.62 93.744 L1674.62 86.8575 Q1679.28 82.0369 1687.3 73.9351 Q1695.36 65.7928 1697.43 63.4432 Q1701.36 59.0278 1702.89 55.9896 Q1704.47 52.9109 1704.47 49.9537 Q1704.47 45.1331 1701.07 42.095 Q1697.71 39.0568 1692.28 39.0568 Q1688.43 39.0568 1684.14 40.3936 Q1679.89 41.7304 1675.02 44.4445 L1675.02 36.1807 Q1679.97 34.1957 1684.26 33.183 Q1688.55 32.1703 1692.12 32.1703 Q1701.52 32.1703 1707.11 36.8693 Q1712.7 41.5684 1712.7 49.4271 Q1712.7 53.1539 1711.28 56.5162 Q1709.9 59.8379 1706.22 64.3749 Q1705.2 65.5497 1699.78 71.1805 Q1694.35 76.7707 1684.46 86.8575 Z" fill="#000000" fill-rule="evenodd" fill-opacity="1" /><path clip-path="url(#clip280)" d="M1731.05 83.4547 L1739.6 83.4547 L1739.6 93.744 L1731.05 93.744 L1731.05 83.4547 M1731.05 50.8449 L1739.6 50.8449 L1739.6 61.1342 L1731.05 61.1342 L1731.05 50.8449 Z" fill="#000000" fill-rule="evenodd" fill-opacity="1" /><path clip-path="url(#clip280)" d="M1785.94 86.8575 L1799.31 86.8575 L1799.31 40.7177 L1784.76 43.6343 L1784.76 36.1807 L1799.23 33.264 L1807.41 33.264 L1807.41 86.8575 L1820.78 86.8575 L1820.78 93.744 L1785.94 93.744 L1785.94 86.8575 Z" fill="#000000" fill-rule="evenodd" fill-opacity="1" /><path clip-path="url(#clip280)" d="M1854.8 38.6517 Q1848.48 38.6517 1845.28 44.8901 Q1842.12 51.088 1842.12 63.5648 Q1842.12 76.001 1845.28 82.2394 Q1848.48 88.4373 1854.8 88.4373 Q1861.16 88.4373 1864.32 82.2394 Q1867.52 76.001 1867.52 63.5648 Q1867.52 51.088 1864.32 44.8901 Q1861.16 38.6517 1854.8 38.6517 M1854.8 32.1703 Q1864.97 32.1703 1870.32 40.2316 Q1875.71 48.2523 1875.71 63.5648 Q1875.71 78.8367 1870.32 86.898 Q1864.97 94.9188 1854.8 94.9188 Q1844.64 94.9188 1839.25 86.898 Q1833.9 78.8367 1833.9 63.5648 Q1833.9 48.2523 1839.25 40.2316 Q1844.64 32.1703 1854.8 32.1703 Z" fill="#000000" fill-rule="evenodd" fill-opacity="1" /><path clip-path="url(#clip280)" d="M1907.59 38.6517 Q1901.27 38.6517 1898.07 44.8901 Q1894.91 51.088 1894.91 63.5648 Q1894.91 76.001 1898.07 82.2394 Q1901.27 88.4373 1907.59 88.4373 Q1913.95 88.4373 1917.11 82.2394 Q1920.31 76.001 1920.31 63.5648 Q1920.31 51.088 1917.11 44.8901 Q1913.95 38.6517 1907.59 38.6517 M1907.59 32.1703 Q1917.75 32.1703 1923.1 40.2316 Q1928.49 48.2523 1928.49 63.5648 Q1928.49 78.8367 1923.1 86.898 Q1917.75 94.9188 1907.59 94.9188 Q1897.42 94.9188 1892.03 86.898 Q1886.68 78.8367 1886.68 63.5648 Q1886.68 48.2523 1892.03 40.2316 Q1897.42 32.1703 1907.59 32.1703 Z" fill="#000000" fill-rule="evenodd" fill-opacity="1" /><path clip-path="url(#clip280)" d="M1960.37 38.6517 Q1954.05 38.6517 1950.85 44.8901 Q1947.69 51.088 1947.69 63.5648 Q1947.69 76.001 1950.85 82.2394 Q1954.05 88.4373 1960.37 88.4373 Q1966.73 88.4373 1969.89 82.2394 Q1973.09 76.001 1973.09 63.5648 Q1973.09 51.088 1969.89 44.8901 Q1966.73 38.6517 1960.37 38.6517 M1960.37 32.1703 Q1970.54 32.1703 1975.88 40.2316 Q1981.27 48.2523 1981.27 63.5648 Q1981.27 78.8367 1975.88 86.898 Q1970.54 94.9188 1960.37 94.9188 Q1950.2 94.9188 1944.81 86.898 Q1939.47 78.8367 1939.47 63.5648 Q1939.47 48.2523 1944.81 40.2316 Q1950.2 32.1703 1960.37 32.1703 Z" fill="#000000" fill-rule="evenodd" fill-opacity="1" /><path clip-path="url(#clip280)" d="M2013.15 38.6517 Q2006.83 38.6517 2003.63 44.8901 Q2000.47 51.088 2000.47 63.5648 Q2000.47 76.001 2003.63 82.2394 Q2006.83 88.4373 2013.15 88.4373 Q2019.51 88.4373 2022.67 82.2394 Q2025.87 76.001 2025.87 63.5648 Q2025.87 51.088 2022.67 44.8901 Q2019.51 38.6517 2013.15 38.6517 M2013.15 32.1703 Q2023.32 32.1703 2028.67 40.2316 Q2034.06 48.2523 2034.06 63.5648 Q2034.06 78.8367 2028.67 86.898 Q2023.32 94.9188 2013.15 94.9188 Q2002.99 94.9188 1997.6 86.898 Q1992.25 78.8367 1992.25 63.5648 Q1992.25 48.2523 1997.6 40.2316 Q2002.99 32.1703 2013.15 32.1703 Z" fill="#000000" fill-rule="evenodd" fill-opacity="1" /><path clip-path="url(#clip280)" d="M2065.94 38.6517 Q2059.62 38.6517 2056.42 44.8901 Q2053.26 51.088 2053.26 63.5648 Q2053.26 76.001 2056.42 82.2394 Q2059.62 88.4373 2065.94 88.4373 Q2072.3 88.4373 2075.46 82.2394 Q2078.66 76.001 2078.66 63.5648 Q2078.66 51.088 2075.46 44.8901 Q2072.3 38.6517 2065.94 38.6517 M2065.94 32.1703 Q2076.1 32.1703 2081.45 40.2316 Q2086.84 48.2523 2086.84 63.5648 Q2086.84 78.8367 2081.45 86.898 Q2076.1 94.9188 2065.94 94.9188 Q2055.77 94.9188 2050.38 86.898 Q2045.03 78.8367 2045.03 63.5648 Q2045.03 48.2523 2050.38 40.2316 Q2055.77 32.1703 2065.94 32.1703 Z" fill="#000000" fill-rule="evenodd" fill-opacity="1" /><path clip-path="url(#clip280)" d="M2101.22 83.4547 L2109.77 83.4547 L2109.77 93.744 L2101.22 93.744 L2101.22 83.4547 Z" fill="#000000" fill-rule="evenodd" fill-opacity="1" /><path clip-path="url(#clip280)" d="M2145.09 38.6517 Q2138.77 38.6517 2135.57 44.8901 Q2132.41 51.088 2132.41 63.5648 Q2132.41 76.001 2135.57 82.2394 Q2138.77 88.4373 2145.09 88.4373 Q2151.45 88.4373 2154.61 82.2394 Q2157.81 76.001 2157.81 63.5648 Q2157.81 51.088 2154.61 44.8901 Q2151.45 38.6517 2145.09 38.6517 M2145.09 32.1703 Q2155.26 32.1703 2160.61 40.2316 Q2165.99 48.2523 2165.99 63.5648 Q2165.99 78.8367 2160.61 86.898 Q2155.26 94.9188 2145.09 94.9188 Q2134.92 94.9188 2129.54 86.898 Q2124.19 78.8367 2124.19 63.5648 Q2124.19 48.2523 2129.54 40.2316 Q2134.92 32.1703 2145.09 32.1703 Z" fill="#000000" fill-rule="evenodd" fill-opacity="1" /><path clip-path="url(#clip280)" d="M2204.92 111.001 L2204.92 48.3739 L2212.38 48.3739 L2212.38 76.5682 Q2212.38 82.442 2215.17 85.4396 Q2217.97 88.4373 2223.44 88.4373 Q2229.43 88.4373 2232.43 85.0346 Q2235.47 81.6318 2235.47 74.8263 L2235.47 48.3739 L2242.92 48.3739 L2242.92 83.2927 Q2242.92 85.7232 2243.61 86.898 Q2244.34 88.0322 2245.84 88.0322 Q2246.2 88.0322 2246.85 87.8297 Q2247.5 87.5866 2248.63 87.1005 L2248.63 93.0959 Q2246.97 94.0276 2245.47 94.4732 Q2244.01 94.9188 2242.6 94.9188 Q2239.8 94.9188 2238.14 93.3389 Q2236.48 91.7591 2235.87 88.5183 Q2233.85 91.7185 2230.89 93.3389 Q2227.97 94.9188 2224 94.9188 Q2219.87 94.9188 2216.95 93.3389 Q2214.08 91.7591 2212.38 88.5994 L2212.38 111.001 L2204.92 111.001 Z" fill="#000000" fill-rule="evenodd" fill-opacity="1" /><path clip-path="url(#clip280)" d="M2293.8 57.0833 Q2296.6 52.0602 2300.48 49.6702 Q2304.37 47.2801 2309.64 47.2801 Q2316.73 47.2801 2320.58 52.2627 Q2324.42 57.2048 2324.42 66.3599 L2324.42 93.744 L2316.93 93.744 L2316.93 66.6029 Q2316.93 60.081 2314.62 56.9213 Q2312.31 53.7616 2307.57 53.7616 Q2301.78 53.7616 2298.42 57.6099 Q2295.06 61.4583 2295.06 68.1018 L2295.06 93.744 L2287.56 93.744 L2287.56 66.6029 Q2287.56 60.0405 2285.25 56.9213 Q2282.94 53.7616 2278.12 53.7616 Q2272.41 53.7616 2269.05 57.6504 Q2265.69 61.4988 2265.69 68.1018 L2265.69 93.744 L2258.19 93.744 L2258.19 48.3739 L2265.69 48.3739 L2265.69 55.4224 Q2268.24 51.25 2271.8 49.2651 Q2275.37 47.2801 2280.27 47.2801 Q2285.21 47.2801 2288.66 49.7917 Q2292.14 52.3032 2293.8 57.0833 Z" fill="#000000" fill-rule="evenodd" fill-opacity="1" /><path clip-path="url(#clip280)" d="M2341.2 83.4547 L2349.74 83.4547 L2349.74 90.4223 L2343.1 103.385 L2337.87 103.385 L2341.2 90.4223 L2341.2 83.4547 Z" fill="#000000" fill-rule="evenodd" fill-opacity="1" /><path clip-path="url(#clip280)" d="M504.009 157.08 L504.009 184.464 L496.555 184.464 L496.555 157.323 Q496.555 150.882 494.044 147.682 Q491.532 144.482 486.509 144.482 Q480.473 144.482 476.99 148.33 Q473.506 152.178 473.506 158.822 L473.506 184.464 L466.012 184.464 L466.012 139.094 L473.506 139.094 L473.506 146.142 Q476.179 142.051 479.785 140.026 Q483.431 138 488.17 138 Q495.988 138 499.999 142.861 Q504.009 147.682 504.009 157.08 Z" fill="#000000" fill-rule="evenodd" fill-opacity="1" /><path clip-path="url(#clip280)" d="M548.731 145.98 L548.731 121.432 L556.185 121.432 L556.185 184.464 L548.731 184.464 L548.731 177.658 Q546.382 181.709 542.776 183.694 Q539.212 185.639 534.188 185.639 Q525.965 185.639 520.78 179.076 Q515.635 172.514 515.635 161.819 Q515.635 151.125 520.78 144.563 Q525.965 138 534.188 138 Q539.212 138 542.776 139.985 Q546.382 141.93 548.731 145.98 M523.332 161.819 Q523.332 170.043 526.694 174.742 Q530.097 179.4 536.011 179.4 Q541.926 179.4 545.328 174.742 Q548.731 170.043 548.731 161.819 Q548.731 153.596 545.328 148.938 Q541.926 144.239 536.011 144.239 Q530.097 144.239 526.694 148.938 Q523.332 153.596 523.332 161.819 Z" fill="#000000" fill-rule="evenodd" fill-opacity="1" /><path clip-path="url(#clip280)" d="M573.442 174.175 L581.989 174.175 L581.989 184.464 L573.442 184.464 L573.442 174.175 M573.442 141.565 L581.989 141.565 L581.989 151.854 L573.442 151.854 L573.442 141.565 Z" fill="#000000" fill-rule="evenodd" fill-opacity="1" /><path clip-path="url(#clip280)" d="M628.331 177.577 L641.699 177.577 L641.699 131.438 L627.157 134.354 L627.157 126.901 L641.618 123.984 L649.801 123.984 L649.801 177.577 L663.169 177.577 L663.169 184.464 L628.331 184.464 L628.331 177.577 Z" fill="#000000" fill-rule="evenodd" fill-opacity="1" /><path clip-path="url(#clip280)" d="M679.697 174.175 L688.244 174.175 L688.244 184.464 L679.697 184.464 L679.697 174.175 Z" fill="#000000" fill-rule="evenodd" fill-opacity="1" /><path clip-path="url(#clip280)" d="M706.149 123.984 L738.273 123.984 L738.273 130.871 L713.643 130.871 L713.643 145.697 Q715.426 145.089 717.208 144.806 Q718.991 144.482 720.773 144.482 Q730.9 144.482 736.815 150.031 Q742.729 155.581 742.729 165.06 Q742.729 174.823 736.653 180.251 Q730.576 185.639 719.517 185.639 Q715.709 185.639 711.74 184.991 Q707.81 184.342 703.597 183.046 L703.597 174.823 Q707.243 176.808 711.132 177.78 Q715.021 178.752 719.355 178.752 Q726.363 178.752 730.455 175.066 Q734.546 171.38 734.546 165.06 Q734.546 158.741 730.455 155.054 Q726.363 151.368 719.355 151.368 Q716.074 151.368 712.793 152.097 Q709.552 152.826 706.149 154.366 L706.149 123.984 Z" fill="#000000" fill-rule="evenodd" fill-opacity="1" /><path clip-path="url(#clip280)" d="M765.9 177.577 L794.459 177.577 L794.459 184.464 L756.056 184.464 L756.056 177.577 Q760.715 172.757 768.736 164.655 Q776.797 156.513 778.863 154.163 Q782.792 149.748 784.332 146.71 Q785.912 143.631 785.912 140.674 Q785.912 135.853 782.509 132.815 Q779.147 129.777 773.718 129.777 Q769.87 129.777 765.576 131.114 Q761.323 132.45 756.461 135.164 L756.461 126.901 Q761.404 124.916 765.698 123.903 Q769.992 122.89 773.556 122.89 Q782.954 122.89 788.545 127.589 Q794.135 132.288 794.135 140.147 Q794.135 143.874 792.717 147.236 Q791.34 150.558 787.653 155.095 Q786.641 156.27 781.213 161.9 Q775.784 167.491 765.9 177.577 Z" fill="#000000" fill-rule="evenodd" fill-opacity="1" /><path clip-path="url(#clip280)" d="M812.485 174.175 L821.033 174.175 L821.033 181.142 L814.389 194.105 L809.164 194.105 L812.485 181.142 L812.485 174.175 Z" fill="#000000" fill-rule="evenodd" fill-opacity="1" /><path clip-path="url(#clip280)" d="M901.038 157.08 L901.038 184.464 L893.585 184.464 L893.585 157.323 Q893.585 150.882 891.073 147.682 Q888.561 144.482 883.538 144.482 Q877.503 144.482 874.019 148.33 Q870.535 152.178 870.535 158.822 L870.535 184.464 L863.041 184.464 L863.041 139.094 L870.535 139.094 L870.535 146.142 Q873.209 142.051 876.814 140.026 Q880.46 138 885.199 138 Q893.017 138 897.028 142.861 Q901.038 147.682 901.038 157.08 Z" fill="#000000" fill-rule="evenodd" fill-opacity="1" /><path clip-path="url(#clip280)" d="M933.486 144.32 Q927.491 144.32 924.007 149.019 Q920.523 153.677 920.523 161.819 Q920.523 169.962 923.966 174.661 Q927.45 179.319 933.486 179.319 Q939.441 179.319 942.925 174.62 Q946.408 169.921 946.408 161.819 Q946.408 153.758 942.925 149.059 Q939.441 144.32 933.486 144.32 M933.486 138 Q943.208 138 948.758 144.32 Q954.308 150.639 954.308 161.819 Q954.308 172.959 948.758 179.319 Q943.208 185.639 933.486 185.639 Q923.723 185.639 918.174 179.319 Q912.664 172.959 912.664 161.819 Q912.664 150.639 918.174 144.32 Q923.723 138 933.486 138 Z" fill="#000000" fill-rule="evenodd" fill-opacity="1" /><path clip-path="url(#clip280)" d="M966.663 139.094 L974.117 139.094 L974.117 184.464 L966.663 184.464 L966.663 139.094 M966.663 121.432 L974.117 121.432 L974.117 130.871 L966.663 130.871 L966.663 121.432 Z" fill="#000000" fill-rule="evenodd" fill-opacity="1" /><path clip-path="url(#clip280)" d="M989.713 121.432 L997.166 121.432 L997.166 184.464 L989.713 184.464 L989.713 121.432 Z" fill="#000000" fill-rule="evenodd" fill-opacity="1" /><path clip-path="url(#clip280)" d="M1014.67 174.175 L1023.21 174.175 L1023.21 184.464 L1014.67 184.464 L1014.67 174.175 M1014.67 141.565 L1023.21 141.565 L1023.21 151.854 L1014.67 151.854 L1014.67 141.565 Z" fill="#000000" fill-rule="evenodd" fill-opacity="1" /><path clip-path="url(#clip280)" d="M1069.56 177.577 L1082.92 177.577 L1082.92 131.438 L1068.38 134.354 L1068.38 126.901 L1082.84 123.984 L1091.03 123.984 L1091.03 177.577 L1104.39 177.577 L1104.39 184.464 L1069.56 184.464 L1069.56 177.577 Z" fill="#000000" fill-rule="evenodd" fill-opacity="1" /><path clip-path="url(#clip280)" d="M1120.92 174.175 L1129.47 174.175 L1129.47 184.464 L1120.92 184.464 L1120.92 174.175 Z" fill="#000000" fill-rule="evenodd" fill-opacity="1" /><path clip-path="url(#clip280)" d="M1147.37 123.984 L1179.5 123.984 L1179.5 130.871 L1154.87 130.871 L1154.87 145.697 Q1156.65 145.089 1158.43 144.806 Q1160.22 144.482 1162 144.482 Q1172.12 144.482 1178.04 150.031 Q1183.95 155.581 1183.95 165.06 Q1183.95 174.823 1177.88 180.251 Q1171.8 185.639 1160.74 185.639 Q1156.93 185.639 1152.96 184.991 Q1149.03 184.342 1144.82 183.046 L1144.82 174.823 Q1148.47 176.808 1152.36 177.78 Q1156.25 178.752 1160.58 178.752 Q1167.59 178.752 1171.68 175.066 Q1175.77 171.38 1175.77 165.06 Q1175.77 158.741 1171.68 155.054 Q1167.59 151.368 1160.58 151.368 Q1157.3 151.368 1154.02 152.097 Q1150.78 152.826 1147.37 154.366 L1147.37 123.984 Z" fill="#000000" fill-rule="evenodd" fill-opacity="1" /><path clip-path="url(#clip280)" d="M1201.49 177.577 L1214.86 177.577 L1214.86 131.438 L1200.32 134.354 L1200.32 126.901 L1214.78 123.984 L1222.96 123.984 L1222.96 177.577 L1236.33 177.577 L1236.33 184.464 L1201.49 184.464 L1201.49 177.577 Z" fill="#000000" fill-rule="evenodd" fill-opacity="1" /><path clip-path="url(#clip280)" d="M1259.91 177.577 L1288.47 177.577 L1288.47 184.464 L1250.06 184.464 L1250.06 177.577 Q1254.72 172.757 1262.74 164.655 Q1270.8 156.513 1272.87 154.163 Q1276.8 149.748 1278.34 146.71 Q1279.92 143.631 1279.92 140.674 Q1279.92 135.853 1276.52 132.815 Q1273.15 129.777 1267.73 129.777 Q1263.88 129.777 1259.58 131.114 Q1255.33 132.45 1250.47 135.164 L1250.47 126.901 Q1255.41 124.916 1259.71 123.903 Q1264 122.89 1267.56 122.89 Q1276.96 122.89 1282.55 127.589 Q1288.14 132.288 1288.14 140.147 Q1288.14 143.874 1286.72 147.236 Q1285.35 150.558 1281.66 155.095 Q1280.65 156.27 1275.22 161.9 Q1269.79 167.491 1259.91 177.577 Z" fill="#000000" fill-rule="evenodd" fill-opacity="1" /><path clip-path="url(#clip280)" d="M1305.72 123.984 L1337.85 123.984 L1337.85 130.871 L1313.22 130.871 L1313.22 145.697 Q1315 145.089 1316.78 144.806 Q1318.56 144.482 1320.35 144.482 Q1330.47 144.482 1336.39 150.031 Q1342.3 155.581 1342.3 165.06 Q1342.3 174.823 1336.23 180.251 Q1330.15 185.639 1319.09 185.639 Q1315.28 185.639 1311.31 184.991 Q1307.38 184.342 1303.17 183.046 L1303.17 174.823 Q1306.82 176.808 1310.71 177.78 Q1314.6 178.752 1318.93 178.752 Q1325.94 178.752 1330.03 175.066 Q1334.12 171.38 1334.12 165.06 Q1334.12 158.741 1330.03 155.054 Q1325.94 151.368 1318.93 151.368 Q1315.65 151.368 1312.37 152.097 Q1309.13 152.826 1305.72 154.366 L1305.72 123.984 Z" fill="#000000" fill-rule="evenodd" fill-opacity="1" /><path clip-path="url(#clip280)" d="M1383.22 151.854 Q1389.09 153.11 1392.37 157.08 Q1395.69 161.05 1395.69 166.883 Q1395.69 175.836 1389.54 180.737 Q1383.38 185.639 1372.04 185.639 Q1368.23 185.639 1364.18 184.869 Q1360.17 184.14 1355.87 182.641 L1355.87 174.742 Q1359.28 176.727 1363.33 177.739 Q1367.38 178.752 1371.79 178.752 Q1379.49 178.752 1383.5 175.714 Q1387.55 172.676 1387.55 166.883 Q1387.55 161.536 1383.78 158.538 Q1380.06 155.5 1373.37 155.5 L1366.33 155.5 L1366.33 148.776 L1373.7 148.776 Q1379.73 148.776 1382.93 146.386 Q1386.13 143.955 1386.13 139.418 Q1386.13 134.759 1382.81 132.288 Q1379.53 129.777 1373.37 129.777 Q1370.01 129.777 1366.16 130.506 Q1362.31 131.235 1357.7 132.774 L1357.7 125.483 Q1362.36 124.187 1366.41 123.538 Q1370.5 122.89 1374.1 122.89 Q1383.42 122.89 1388.85 127.144 Q1394.28 131.357 1394.28 138.567 Q1394.28 143.59 1391.4 147.074 Q1388.52 150.517 1383.22 151.854 Z" fill="#000000" fill-rule="evenodd" fill-opacity="1" /><path clip-path="url(#clip280)" d="M1412.06 174.175 L1420.61 174.175 L1420.61 181.142 L1413.96 194.105 L1408.74 194.105 L1412.06 181.142 L1412.06 174.175 Z" fill="#000000" fill-rule="evenodd" fill-opacity="1" /><path clip-path="url(#clip280)" d="M1500.61 157.08 L1500.61 184.464 L1493.16 184.464 L1493.16 157.323 Q1493.16 150.882 1490.65 147.682 Q1488.14 144.482 1483.11 144.482 Q1477.08 144.482 1473.59 148.33 Q1470.11 152.178 1470.11 158.822 L1470.11 184.464 L1462.62 184.464 L1462.62 139.094 L1470.11 139.094 L1470.11 146.142 Q1472.78 142.051 1476.39 140.026 Q1480.03 138 1484.77 138 Q1492.59 138 1496.6 142.861 Q1500.61 147.682 1500.61 157.08 Z" fill="#000000" fill-rule="evenodd" fill-opacity="1" /><path clip-path="url(#clip280)" d="M1510.13 139.094 L1518.03 139.094 L1532.21 177.172 L1546.39 139.094 L1554.29 139.094 L1537.27 184.464 L1527.15 184.464 L1510.13 139.094 Z" fill="#000000" fill-rule="evenodd" fill-opacity="1" /><path clip-path="url(#clip280)" d="M1564.58 139.094 L1572.03 139.094 L1572.03 184.464 L1564.58 184.464 L1564.58 139.094 M1564.58 121.432 L1572.03 121.432 L1572.03 130.871 L1564.58 130.871 L1564.58 121.432 Z" fill="#000000" fill-rule="evenodd" fill-opacity="1" /><path clip-path="url(#clip280)" d="M1625.34 157.08 L1625.34 184.464 L1617.89 184.464 L1617.89 157.323 Q1617.89 150.882 1615.37 147.682 Q1612.86 144.482 1607.84 144.482 Q1601.8 144.482 1598.32 148.33 Q1594.84 152.178 1594.84 158.822 L1594.84 184.464 L1587.34 184.464 L1587.34 139.094 L1594.84 139.094 L1594.84 146.142 Q1597.51 142.051 1601.12 140.026 Q1604.76 138 1609.5 138 Q1617.32 138 1621.33 142.861 Q1625.34 147.682 1625.34 157.08 Z" fill="#000000" fill-rule="evenodd" fill-opacity="1" /><path clip-path="url(#clip280)" d="M1659.08 188.677 Q1655.92 196.779 1652.93 199.25 Q1649.93 201.721 1644.91 201.721 L1638.95 201.721 L1638.95 195.482 L1643.33 195.482 Q1646.4 195.482 1648.11 194.024 Q1649.81 192.566 1651.87 187.138 L1653.21 183.735 L1634.86 139.094 L1642.76 139.094 L1656.94 174.58 L1671.12 139.094 L1679.01 139.094 L1659.08 188.677 Z" fill="#000000" fill-rule="evenodd" fill-opacity="1" /><path clip-path="url(#clip280)" d="M1689.3 121.432 L1696.76 121.432 L1696.76 184.464 L1689.3 184.464 L1689.3 121.432 Z" fill="#000000" fill-rule="evenodd" fill-opacity="1" /><path clip-path="url(#clip280)" d="M1714.26 174.175 L1722.8 174.175 L1722.8 184.464 L1714.26 184.464 L1714.26 174.175 M1714.26 141.565 L1722.8 141.565 L1722.8 151.854 L1714.26 151.854 L1714.26 141.565 Z" fill="#000000" fill-rule="evenodd" fill-opacity="1" /><path clip-path="url(#clip280)" d="M1769.15 177.577 L1782.52 177.577 L1782.52 131.438 L1767.97 134.354 L1767.97 126.901 L1782.43 123.984 L1790.62 123.984 L1790.62 177.577 L1803.98 177.577 L1803.98 184.464 L1769.15 184.464 L1769.15 177.577 Z" fill="#000000" fill-rule="evenodd" fill-opacity="1" /><path clip-path="url(#clip280)" d="M1820.51 174.175 L1829.06 174.175 L1829.06 184.464 L1820.51 184.464 L1820.51 174.175 Z" fill="#000000" fill-rule="evenodd" fill-opacity="1" /><path clip-path="url(#clip280)" d="M1846.96 123.984 L1879.09 123.984 L1879.09 130.871 L1854.46 130.871 L1854.46 145.697 Q1856.24 145.089 1858.02 144.806 Q1859.81 144.482 1861.59 144.482 Q1871.72 144.482 1877.63 150.031 Q1883.54 155.581 1883.54 165.06 Q1883.54 174.823 1877.47 180.251 Q1871.39 185.639 1860.33 185.639 Q1856.53 185.639 1852.56 184.991 Q1848.63 184.342 1844.41 183.046 L1844.41 174.823 Q1848.06 176.808 1851.95 177.78 Q1855.84 178.752 1860.17 178.752 Q1867.18 178.752 1871.27 175.066 Q1875.36 171.38 1875.36 165.06 Q1875.36 158.741 1871.27 155.054 Q1867.18 151.368 1860.17 151.368 Q1856.89 151.368 1853.61 152.097 Q1850.37 152.826 1846.96 154.366 L1846.96 123.984 Z" fill="#000000" fill-rule="evenodd" fill-opacity="1" /><path clip-path="url(#clip280)" d="M1901.08 177.577 L1914.45 177.577 L1914.45 131.438 L1899.91 134.354 L1899.91 126.901 L1914.37 123.984 L1922.55 123.984 L1922.55 177.577 L1935.92 177.577 L1935.92 184.464 L1901.08 184.464 L1901.08 177.577 Z" fill="#000000" fill-rule="evenodd" fill-opacity="1" /><path clip-path="url(#clip280)" d="M1952.53 123.984 L1984.66 123.984 L1984.66 130.871 L1960.03 130.871 L1960.03 145.697 Q1961.81 145.089 1963.59 144.806 Q1965.37 144.482 1967.16 144.482 Q1977.28 144.482 1983.2 150.031 Q1989.11 155.581 1989.11 165.06 Q1989.11 174.823 1983.03 180.251 Q1976.96 185.639 1965.9 185.639 Q1962.09 185.639 1958.12 184.991 Q1954.19 184.342 1949.98 183.046 L1949.98 174.823 Q1953.63 176.808 1957.51 177.78 Q1961.4 178.752 1965.74 178.752 Q1972.75 178.752 1976.84 175.066 Q1980.93 171.38 1980.93 165.06 Q1980.93 158.741 1976.84 155.054 Q1972.75 151.368 1965.74 151.368 Q1962.46 151.368 1959.17 152.097 Q1955.93 152.826 1952.53 154.366 L1952.53 123.984 Z" fill="#000000" fill-rule="evenodd" fill-opacity="1" /><path clip-path="url(#clip280)" d="M2022.73 129.372 Q2016.41 129.372 2013.21 135.61 Q2010.05 141.808 2010.05 154.285 Q2010.05 166.721 2013.21 172.959 Q2016.41 179.157 2022.73 179.157 Q2029.09 179.157 2032.25 172.959 Q2035.45 166.721 2035.45 154.285 Q2035.45 141.808 2032.25 135.61 Q2029.09 129.372 2022.73 129.372 M2022.73 122.89 Q2032.9 122.89 2038.25 130.952 Q2043.64 138.972 2043.64 154.285 Q2043.64 169.557 2038.25 177.618 Q2032.9 185.639 2022.73 185.639 Q2012.57 185.639 2007.18 177.618 Q2001.83 169.557 2001.83 154.285 Q2001.83 138.972 2007.18 130.952 Q2012.57 122.89 2022.73 122.89 Z" fill="#000000" fill-rule="evenodd" fill-opacity="1" /><path clip-path="url(#clip280)" d="M2058.26 183.208 L2058.26 175.755 Q2061.34 177.213 2064.5 177.983 Q2067.66 178.752 2070.7 178.752 Q2078.8 178.752 2083.05 173.324 Q2087.35 167.855 2087.95 156.756 Q2085.6 160.24 2082 162.103 Q2078.39 163.966 2074.02 163.966 Q2064.94 163.966 2059.64 158.498 Q2054.37 152.988 2054.37 143.469 Q2054.37 134.152 2059.88 128.521 Q2065.39 122.89 2074.54 122.89 Q2085.04 122.89 2090.55 130.952 Q2096.1 138.972 2096.1 154.285 Q2096.1 168.584 2089.29 177.132 Q2082.52 185.639 2071.06 185.639 Q2067.98 185.639 2064.82 185.031 Q2061.66 184.423 2058.26 183.208 M2074.54 157.566 Q2080.05 157.566 2083.25 153.799 Q2086.49 150.031 2086.49 143.469 Q2086.49 136.947 2083.25 133.18 Q2080.05 129.372 2074.54 129.372 Q2069.04 129.372 2065.79 133.18 Q2062.59 136.947 2062.59 143.469 Q2062.59 150.031 2065.79 153.799 Q2069.04 157.566 2074.54 157.566 Z" fill="#000000" fill-rule="evenodd" fill-opacity="1" /><polyline clip-path="url(#clip282)" style="stroke:#009af9; stroke-linecap:butt; stroke-linejoin:round; stroke-width:4; stroke-opacity:1; fill:none" points="
  237.067,1346.62 257.815,1346.62 278.564,1346.62 299.312,1346.62 320.06,1346.62 340.808,1346.62 361.556,1346.62 382.304,1346.62 403.052,1346.62 423.801,1346.62 
  444.549,1346.62 465.297,1346.62 486.045,1346.62 506.793,1346.62 527.541,1346.62 548.289,1346.62 569.038,1346.62 589.786,1346.62 610.534,1346.62 631.282,1346.62 
  652.03,1346.62 672.778,1346.62 693.526,1346.62 714.275,1346.62 735.023,1346.62 755.771,1346.62 776.519,1346.62 797.267,1346.62 818.015,1346.62 838.764,1346.62 
  859.512,1346.62 880.26,1346.62 901.008,1346.62 921.756,1346.62 942.504,1346.62 963.252,1055.09 984.001,848.187 1004.75,714.344 1025.5,612.452 1046.24,530.455 
  1066.99,462.798 1087.74,406.381 1108.49,359.274 1129.24,320.196 1149.99,288.256 1170.73,262.823 1191.48,243.447 1212.23,229.813 1232.98,221.712 1253.73,219.025 
  1274.47,221.712 1295.22,229.813 1315.97,243.447 1336.72,262.823 1357.47,288.256 1378.22,320.196 1398.96,359.274 1419.71,406.381 1440.46,462.798 1461.21,530.455 
  1481.96,612.452 1502.7,714.344 1523.45,848.187 1544.2,1055.09 1564.95,1346.62 1585.7,1346.62 1606.45,1346.62 1627.19,1346.62 1647.94,1346.62 1668.69,1346.62 
  1689.44,1346.62 1710.19,1346.62 1730.93,1346.62 1751.68,1346.62 1772.43,1346.62 1793.18,1346.62 1813.93,1346.62 1834.67,1346.62 1855.42,1346.62 1876.17,1346.62 
  1896.92,1346.62 1917.67,1346.62 1938.42,1346.62 1959.16,1346.62 1979.91,1346.62 2000.66,1346.62 2021.41,1346.62 2042.16,1346.62 2062.9,1346.62 2083.65,1346.62 
  2104.4,1346.62 2125.15,1346.62 2145.9,1346.62 2166.65,1346.62 2187.39,1346.62 2208.14,1346.62 2228.89,1346.62 2249.64,1346.62 2270.39,1346.62 2291.13,1346.62 
  
  "/>
<polyline clip-path="url(#clip282)" style="stroke:#e26f46; stroke-linecap:butt; stroke-linejoin:round; stroke-width:4; stroke-opacity:1; fill:none" points="
  237.067,1372.65 257.815,1369.07 278.564,1375.71 299.312,1369.67 320.06,1368.77 340.808,1369.87 361.556,1376.94 382.304,1373.97 403.052,1367.1 423.801,1361.88 
  444.549,1363.04 465.297,1368.31 486.045,1375.4 506.793,1371.25 527.541,1364.44 548.289,1373.51 569.038,1388.11 589.786,1384.32 610.534,1370.29 631.282,1362.48 
  652.03,1356.28 672.778,1357.18 693.526,1358.88 714.275,1359.05 735.023,1357.63 755.771,1366.46 776.519,1377.39 797.267,1385.3 818.015,1364.6 838.764,1350.12 
  859.512,1358.09 880.26,1350.06 901.008,1337.8 921.756,1337.91 942.504,1339.09 963.252,1106.93 984.001,859.775 1004.75,729.823 1025.5,646.58 1046.24,557.997 
  1066.99,487.596 1087.74,432.642 1108.49,387.907 1129.24,380.108 1149.99,360.9 1170.73,325.19 1191.48,289.195 1212.23,259.622 1232.98,236.711 1253.73,219.025 
  1274.47,232.341 1295.22,249.426 1315.97,280.24 1336.72,313.8 1357.47,357.562 1378.22,375.169 1398.96,394.212 1419.71,448.314 1440.46,500.247 1461.21,563.866 
  1481.96,647.21 1502.7,707.952 1523.45,946.869 1544.2,1135.67 1564.95,1344.72 1585.7,1333.05 1606.45,1336.14 1627.19,1370.61 1647.94,1376.15 1668.69,1352.1 
  1689.44,1366.5 1710.19,1370.67 1730.93,1357.28 1751.68,1360.85 1772.43,1368.5 1793.18,1365.18 1813.93,1355.59 1834.67,1367.39 1855.42,1373.63 1876.17,1369.58 
  1896.92,1372.91 1917.67,1379.48 1938.42,1369.28 1959.16,1362.36 1979.91,1366.88 2000.66,1369.21 2021.41,1364.95 2042.16,1364.86 2062.9,1370.14 2083.65,1369.4 
  2104.4,1374.01 2125.15,1372.55 2145.9,1373.62 2166.65,1367.13 2187.39,1371.24 2208.14,1371.1 2228.89,1373.43 2249.64,1365.75 2270.39,1371.43 2291.13,1370.39 
  
  "/>
<path clip-path="url(#clip280)" d="
M1734.74 380.78 L2280.18 380.78 L2280.18 225.26 L1734.74 225.26  Z
  " fill="#ffffff" fill-rule="evenodd" fill-opacity="1"/>
<polyline clip-path="url(#clip280)" style="stroke:#000000; stroke-linecap:butt; stroke-linejoin:round; stroke-width:4; stroke-opacity:1; fill:none" points="
  1734.74,380.78 2280.18,380.78 2280.18,225.26 1734.74,225.26 1734.74,380.78 
  "/>
<polyline clip-path="url(#clip280)" style="stroke:#009af9; stroke-linecap:butt; stroke-linejoin:round; stroke-width:4; stroke-opacity:1; fill:none" points="
  1758.93,277.1 1904.08,277.1 
  "/>
<path clip-path="url(#clip280)" d="M1935.68 261.093 L1935.68 268.454 L1944.46 268.454 L1944.46 271.764 L1935.68 271.764 L1935.68 285.838 Q1935.68 289.009 1936.54 289.912 Q1937.42 290.815 1940.08 290.815 L1944.46 290.815 L1944.46 294.38 L1940.08 294.38 Q1935.15 294.38 1933.28 292.551 Q1931.4 290.699 1931.4 285.838 L1931.4 271.764 L1928.28 271.764 L1928.28 268.454 L1931.4 268.454 L1931.4 261.093 L1935.68 261.093 Z" fill="#000000" fill-rule="evenodd" fill-opacity="1" /><path clip-path="url(#clip280)" d="M1971.61 278.732 L1971.61 294.38 L1967.35 294.38 L1967.35 278.871 Q1967.35 275.19 1965.92 273.361 Q1964.48 271.533 1961.61 271.533 Q1958.16 271.533 1956.17 273.732 Q1954.18 275.931 1954.18 279.727 L1954.18 294.38 L1949.9 294.38 L1949.9 258.361 L1954.18 258.361 L1954.18 272.482 Q1955.71 270.144 1957.77 268.986 Q1959.85 267.829 1962.56 267.829 Q1967.03 267.829 1969.32 270.607 Q1971.61 273.361 1971.61 278.732 Z" fill="#000000" fill-rule="evenodd" fill-opacity="1" /><path clip-path="url(#clip280)" d="M2002.28 280.352 L2002.28 282.435 L1982.7 282.435 Q1982.98 286.833 1985.34 289.148 Q1987.72 291.44 1991.96 291.44 Q1994.41 291.44 1996.7 290.838 Q1999.02 290.236 2001.29 289.033 L2001.29 293.06 Q1998.99 294.032 1996.59 294.542 Q1994.18 295.051 1991.7 295.051 Q1985.5 295.051 1981.86 291.44 Q1978.25 287.829 1978.25 281.671 Q1978.25 275.306 1981.68 271.579 Q1985.13 267.829 1990.96 267.829 Q1996.19 267.829 1999.23 271.209 Q2002.28 274.565 2002.28 280.352 M1998.02 279.102 Q1997.98 275.607 1996.05 273.523 Q1994.16 271.44 1991.01 271.44 Q1987.44 271.44 1985.29 273.454 Q1983.16 275.468 1982.84 279.125 L1998.02 279.102 Z" fill="#000000" fill-rule="evenodd" fill-opacity="1" /><path clip-path="url(#clip280)" d="M2019.32 271.44 Q2015.89 271.44 2013.9 274.125 Q2011.91 276.787 2011.91 281.44 Q2011.91 286.093 2013.88 288.778 Q2015.87 291.44 2019.32 291.44 Q2022.72 291.44 2024.71 288.755 Q2026.7 286.07 2026.7 281.44 Q2026.7 276.834 2024.71 274.148 Q2022.72 271.44 2019.32 271.44 M2019.32 267.829 Q2024.87 267.829 2028.05 271.44 Q2031.22 275.051 2031.22 281.44 Q2031.22 287.806 2028.05 291.44 Q2024.87 295.051 2019.32 295.051 Q2013.74 295.051 2010.57 291.44 Q2007.42 287.806 2007.42 281.44 Q2007.42 275.051 2010.57 271.44 Q2013.74 267.829 2019.32 267.829 Z" fill="#000000" fill-rule="evenodd" fill-opacity="1" /><path clip-path="url(#clip280)" d="M2053.3 272.435 Q2052.58 272.019 2051.73 271.834 Q2050.89 271.625 2049.87 271.625 Q2046.26 271.625 2044.32 273.986 Q2042.4 276.324 2042.4 280.722 L2042.4 294.38 L2038.11 294.38 L2038.11 268.454 L2042.4 268.454 L2042.4 272.482 Q2043.74 270.121 2045.89 268.986 Q2048.05 267.829 2051.12 267.829 Q2051.56 267.829 2052.1 267.898 Q2052.63 267.945 2053.28 268.06 L2053.3 272.435 Z" fill="#000000" fill-rule="evenodd" fill-opacity="1" /><path clip-path="url(#clip280)" d="M2068.55 296.787 Q2066.75 301.417 2065.04 302.829 Q2063.32 304.241 2060.45 304.241 L2057.05 304.241 L2057.05 300.676 L2059.55 300.676 Q2061.31 300.676 2062.28 299.843 Q2063.25 299.009 2064.43 295.907 L2065.2 293.963 L2054.71 268.454 L2059.23 268.454 L2067.33 288.732 L2075.43 268.454 L2079.94 268.454 L2068.55 296.787 Z" fill="#000000" fill-rule="evenodd" fill-opacity="1" /><polyline clip-path="url(#clip280)" style="stroke:#e26f46; stroke-linecap:butt; stroke-linejoin:round; stroke-width:4; stroke-opacity:1; fill:none" points="
  1758.93,328.94 1904.08,328.94 
  "/>
<path clip-path="url(#clip280)" d="M1932.95 315.502 L1932.95 328.488 L1938.83 328.488 Q1942.1 328.488 1943.88 326.799 Q1945.66 325.109 1945.66 321.984 Q1945.66 318.882 1943.88 317.192 Q1942.1 315.502 1938.83 315.502 L1932.95 315.502 M1928.28 311.66 L1938.83 311.66 Q1944.64 311.66 1947.61 314.299 Q1950.59 316.914 1950.59 321.984 Q1950.59 327.099 1947.61 329.715 Q1944.64 332.331 1938.83 332.331 L1932.95 332.331 L1932.95 346.22 L1928.28 346.22 L1928.28 311.66 Z" fill="#000000" fill-rule="evenodd" fill-opacity="1" /><path clip-path="url(#clip280)" d="M1973.25 330.016 Q1974.76 330.525 1976.17 332.192 Q1977.61 333.859 1979.04 336.775 L1983.79 346.22 L1978.76 346.22 L1974.34 337.354 Q1972.63 333.882 1971.01 332.748 Q1969.41 331.613 1966.63 331.613 L1961.54 331.613 L1961.54 346.22 L1956.87 346.22 L1956.87 311.66 L1967.42 311.66 Q1973.35 311.66 1976.26 314.137 Q1979.18 316.613 1979.18 321.613 Q1979.18 324.877 1977.65 327.03 Q1976.15 329.183 1973.25 330.016 M1961.54 315.502 L1961.54 327.771 L1967.42 327.771 Q1970.8 327.771 1972.51 326.22 Q1974.25 324.646 1974.25 321.613 Q1974.25 318.581 1972.51 317.053 Q1970.8 315.502 1967.42 315.502 L1961.54 315.502 Z" fill="#000000" fill-rule="evenodd" fill-opacity="1" /><path clip-path="url(#clip280)" d="M2016.47 333.187 Q2011.31 333.187 2009.32 334.368 Q2007.33 335.548 2007.33 338.396 Q2007.33 340.664 2008.81 342.007 Q2010.31 343.326 2012.88 343.326 Q2016.42 343.326 2018.55 340.826 Q2020.71 338.303 2020.71 334.136 L2020.71 333.187 L2016.47 333.187 M2024.97 331.428 L2024.97 346.22 L2020.71 346.22 L2020.71 342.285 Q2019.25 344.646 2017.07 345.78 Q2014.9 346.891 2011.75 346.891 Q2007.77 346.891 2005.41 344.669 Q2003.07 342.423 2003.07 338.673 Q2003.07 334.298 2005.99 332.076 Q2008.93 329.854 2014.74 329.854 L2020.71 329.854 L2020.71 329.437 Q2020.71 326.498 2018.76 324.9 Q2016.84 323.28 2013.35 323.28 Q2011.12 323.28 2009.02 323.812 Q2006.91 324.345 2004.97 325.41 L2004.97 321.474 Q2007.3 320.572 2009.5 320.132 Q2011.7 319.669 2013.79 319.669 Q2019.41 319.669 2022.19 322.586 Q2024.97 325.502 2024.97 331.428 Z" fill="#000000" fill-rule="evenodd" fill-opacity="1" /><path clip-path="url(#clip280)" d="M2050.8 324.229 L2050.8 310.201 L2055.06 310.201 L2055.06 346.22 L2050.8 346.22 L2050.8 342.331 Q2049.46 344.646 2047.4 345.78 Q2045.36 346.891 2042.49 346.891 Q2037.79 346.891 2034.83 343.141 Q2031.89 339.391 2031.89 333.28 Q2031.89 327.169 2034.83 323.419 Q2037.79 319.669 2042.49 319.669 Q2045.36 319.669 2047.4 320.803 Q2049.46 321.914 2050.8 324.229 M2036.29 333.28 Q2036.29 337.979 2038.21 340.664 Q2040.15 343.326 2043.53 343.326 Q2046.91 343.326 2048.86 340.664 Q2050.8 337.979 2050.8 333.28 Q2050.8 328.581 2048.86 325.919 Q2046.91 323.234 2043.53 323.234 Q2040.15 323.234 2038.21 325.919 Q2036.29 328.581 2036.29 333.28 Z" fill="#000000" fill-rule="evenodd" fill-opacity="1" /><path clip-path="url(#clip280)" d="M2080.89 324.229 L2080.89 310.201 L2085.15 310.201 L2085.15 346.22 L2080.89 346.22 L2080.89 342.331 Q2079.55 344.646 2077.49 345.78 Q2075.45 346.891 2072.58 346.891 Q2067.88 346.891 2064.92 343.141 Q2061.98 339.391 2061.98 333.28 Q2061.98 327.169 2064.92 323.419 Q2067.88 319.669 2072.58 319.669 Q2075.45 319.669 2077.49 320.803 Q2079.55 321.914 2080.89 324.229 M2066.38 333.28 Q2066.38 337.979 2068.3 340.664 Q2070.24 343.326 2073.62 343.326 Q2077 343.326 2078.95 340.664 Q2080.89 337.979 2080.89 333.28 Q2080.89 328.581 2078.95 325.919 Q2077 323.234 2073.62 323.234 Q2070.24 323.234 2068.3 325.919 Q2066.38 328.581 2066.38 333.28 Z" fill="#000000" fill-rule="evenodd" fill-opacity="1" /><path clip-path="url(#clip280)" d="M2127.65 321.289 L2127.65 325.271 Q2125.85 324.275 2124.02 323.789 Q2122.21 323.28 2120.36 323.28 Q2116.22 323.28 2113.92 325.919 Q2111.63 328.535 2111.63 333.28 Q2111.63 338.025 2113.92 340.664 Q2116.22 343.28 2120.36 343.28 Q2122.21 343.28 2124.02 342.794 Q2125.85 342.285 2127.65 341.289 L2127.65 345.224 Q2125.87 346.058 2123.95 346.474 Q2122.05 346.891 2119.9 346.891 Q2114.04 346.891 2110.59 343.21 Q2107.14 339.53 2107.14 333.28 Q2107.14 326.937 2110.61 323.303 Q2114.11 319.669 2120.17 319.669 Q2122.14 319.669 2124.02 320.086 Q2125.89 320.479 2127.65 321.289 Z" fill="#000000" fill-rule="evenodd" fill-opacity="1" /><path clip-path="url(#clip280)" d="M2145.1 323.28 Q2141.68 323.28 2139.69 325.965 Q2137.7 328.627 2137.7 333.28 Q2137.7 337.933 2139.67 340.618 Q2141.66 343.28 2145.1 343.28 Q2148.51 343.28 2150.5 340.595 Q2152.49 337.91 2152.49 333.28 Q2152.49 328.674 2150.5 325.988 Q2148.51 323.28 2145.1 323.28 M2145.1 319.669 Q2150.66 319.669 2153.83 323.28 Q2157 326.891 2157 333.28 Q2157 339.646 2153.83 343.28 Q2150.66 346.891 2145.1 346.891 Q2139.53 346.891 2136.35 343.28 Q2133.21 339.646 2133.21 333.28 Q2133.21 326.891 2136.35 323.28 Q2139.53 319.669 2145.1 319.669 Z" fill="#000000" fill-rule="evenodd" fill-opacity="1" /><path clip-path="url(#clip280)" d="M2185.61 330.572 L2185.61 346.22 L2181.35 346.22 L2181.35 330.711 Q2181.35 327.03 2179.92 325.201 Q2178.48 323.373 2175.61 323.373 Q2172.16 323.373 2170.17 325.572 Q2168.18 327.771 2168.18 331.567 L2168.18 346.22 L2163.9 346.22 L2163.9 320.294 L2168.18 320.294 L2168.18 324.322 Q2169.71 321.984 2171.77 320.826 Q2173.85 319.669 2176.56 319.669 Q2181.03 319.669 2183.32 322.447 Q2185.61 325.201 2185.61 330.572 Z" fill="#000000" fill-rule="evenodd" fill-opacity="1" /><path clip-path="url(#clip280)" d="M2210.64 321.058 L2210.64 325.086 Q2208.83 324.16 2206.89 323.697 Q2204.94 323.234 2202.86 323.234 Q2199.69 323.234 2198.09 324.206 Q2196.52 325.178 2196.52 327.123 Q2196.52 328.604 2197.65 329.461 Q2198.79 330.294 2202.21 331.058 L2203.67 331.382 Q2208.21 332.354 2210.1 334.136 Q2212.03 335.896 2212.03 339.067 Q2212.03 342.678 2209.16 344.785 Q2206.31 346.891 2201.31 346.891 Q2199.22 346.891 2196.96 346.474 Q2194.71 346.081 2192.21 345.271 L2192.21 340.873 Q2194.57 342.099 2196.86 342.724 Q2199.16 343.326 2201.4 343.326 Q2204.41 343.326 2206.03 342.308 Q2207.65 341.266 2207.65 339.391 Q2207.65 337.655 2206.47 336.729 Q2205.31 335.803 2201.35 334.947 L2199.87 334.599 Q2195.91 333.766 2194.16 332.053 Q2192.4 330.317 2192.4 327.308 Q2192.4 323.65 2194.99 321.66 Q2197.58 319.669 2202.35 319.669 Q2204.71 319.669 2206.79 320.016 Q2208.88 320.363 2210.64 321.058 Z" fill="#000000" fill-rule="evenodd" fill-opacity="1" /><path clip-path="url(#clip280)" d="M2223.02 312.933 L2223.02 320.294 L2231.79 320.294 L2231.79 323.604 L2223.02 323.604 L2223.02 337.678 Q2223.02 340.849 2223.88 341.752 Q2224.76 342.655 2227.42 342.655 L2231.79 342.655 L2231.79 346.22 L2227.42 346.22 Q2222.49 346.22 2220.61 344.391 Q2218.74 342.539 2218.74 337.678 L2218.74 323.604 L2215.61 323.604 L2215.61 320.294 L2218.74 320.294 L2218.74 312.933 L2223.02 312.933 Z" fill="#000000" fill-rule="evenodd" fill-opacity="1" /></svg>
