<?xml version="1.0" encoding="utf-8"?>
<svg xmlns="http://www.w3.org/2000/svg" xmlns:xlink="http://www.w3.org/1999/xlink" width="600" height="400" viewBox="0 0 2400 1600">
<defs>
  <clipPath id="clip560">
    <rect x="0" y="0" width="2400" height="1600"/>
  </clipPath>
</defs>
<path clip-path="url(#clip560)" d="
M0 1600 L2400 1600 L2400 0 L0 0  Z
  " fill="#ffffff" fill-rule="evenodd" fill-opacity="1"/>
<defs>
  <clipPath id="clip561">
    <rect x="480" y="0" width="1681" height="1600"/>
  </clipPath>
</defs>
<path clip-path="url(#clip560)" d="
M202.227 1423.18 L2352.76 1423.18 L2352.76 123.472 L202.227 123.472  Z
  " fill="#ffffff" fill-rule="evenodd" fill-opacity="1"/>
<defs>
  <clipPath id="clip562">
    <rect x="202" y="123" width="2152" height="1301"/>
  </clipPath>
</defs>
<polyline clip-path="url(#clip562)" style="stroke:#000000; stroke-linecap:butt; stroke-linejoin:round; stroke-width:2; stroke-opacity:0.1; fill:none" points="
  365.556,1423.18 365.556,123.472 
  "/>
<polyline clip-path="url(#clip562)" style="stroke:#000000; stroke-linecap:butt; stroke-linejoin:round; stroke-width:2; stroke-opacity:0.1; fill:none" points="
  775.415,1423.18 775.415,123.472 
  "/>
<polyline clip-path="url(#clip562)" style="stroke:#000000; stroke-linecap:butt; stroke-linejoin:round; stroke-width:2; stroke-opacity:0.1; fill:none" points="
  1185.27,1423.18 1185.27,123.472 
  "/>
<polyline clip-path="url(#clip562)" style="stroke:#000000; stroke-linecap:butt; stroke-linejoin:round; stroke-width:2; stroke-opacity:0.1; fill:none" points="
  1595.13,1423.18 1595.13,123.472 
  "/>
<polyline clip-path="url(#clip562)" style="stroke:#000000; stroke-linecap:butt; stroke-linejoin:round; stroke-width:2; stroke-opacity:0.1; fill:none" points="
  2004.99,1423.18 2004.99,123.472 
  "/>
<polyline clip-path="url(#clip560)" style="stroke:#000000; stroke-linecap:butt; stroke-linejoin:round; stroke-width:4; stroke-opacity:1; fill:none" points="
  202.227,1423.18 2352.76,1423.18 
  "/>
<polyline clip-path="url(#clip560)" style="stroke:#000000; stroke-linecap:butt; stroke-linejoin:round; stroke-width:4; stroke-opacity:1; fill:none" points="
  365.556,1423.18 365.556,1404.28 
  "/>
<polyline clip-path="url(#clip560)" style="stroke:#000000; stroke-linecap:butt; stroke-linejoin:round; stroke-width:4; stroke-opacity:1; fill:none" points="
  775.415,1423.18 775.415,1404.28 
  "/>
<polyline clip-path="url(#clip560)" style="stroke:#000000; stroke-linecap:butt; stroke-linejoin:round; stroke-width:4; stroke-opacity:1; fill:none" points="
  1185.27,1423.18 1185.27,1404.28 
  "/>
<polyline clip-path="url(#clip560)" style="stroke:#000000; stroke-linecap:butt; stroke-linejoin:round; stroke-width:4; stroke-opacity:1; fill:none" points="
  1595.13,1423.18 1595.13,1404.28 
  "/>
<polyline clip-path="url(#clip560)" style="stroke:#000000; stroke-linecap:butt; stroke-linejoin:round; stroke-width:4; stroke-opacity:1; fill:none" points="
  2004.99,1423.18 2004.99,1404.28 
  "/>
<path clip-path="url(#clip560)" d="M325.603 1484.86 L325.603 1480.6 Q327.362 1481.44 329.167 1481.88 Q330.973 1482.32 332.709 1482.32 Q337.339 1482.32 339.769 1479.21 Q342.223 1476.09 342.57 1469.75 Q341.228 1471.74 339.167 1472.8 Q337.107 1473.87 334.607 1473.87 Q329.422 1473.87 326.39 1470.74 Q323.38 1467.59 323.38 1462.15 Q323.38 1456.83 326.529 1453.61 Q329.677 1450.39 334.908 1450.39 Q340.904 1450.39 344.052 1455 Q347.223 1459.58 347.223 1468.33 Q347.223 1476.51 343.334 1481.39 Q339.468 1486.25 332.917 1486.25 Q331.158 1486.25 329.353 1485.9 Q327.547 1485.56 325.603 1484.86 M334.908 1470.21 Q338.056 1470.21 339.885 1468.06 Q341.737 1465.9 341.737 1462.15 Q341.737 1458.43 339.885 1456.27 Q338.056 1454.1 334.908 1454.1 Q331.76 1454.1 329.908 1456.27 Q328.079 1458.43 328.079 1462.15 Q328.079 1465.9 329.908 1468.06 Q331.76 1470.21 334.908 1470.21 Z" fill="#000000" fill-rule="evenodd" fill-opacity="1" /><path clip-path="url(#clip560)" d="M365.626 1469.17 Q362.292 1469.17 360.371 1470.95 Q358.473 1472.73 358.473 1475.86 Q358.473 1478.98 360.371 1480.77 Q362.292 1482.55 365.626 1482.55 Q368.959 1482.55 370.88 1480.77 Q372.801 1478.96 372.801 1475.86 Q372.801 1472.73 370.88 1470.95 Q368.982 1469.17 365.626 1469.17 M360.95 1467.18 Q357.94 1466.44 356.251 1464.38 Q354.584 1462.32 354.584 1459.35 Q354.584 1455.21 357.524 1452.8 Q360.487 1450.39 365.626 1450.39 Q370.788 1450.39 373.727 1452.8 Q376.667 1455.21 376.667 1459.35 Q376.667 1462.32 374.977 1464.38 Q373.311 1466.44 370.325 1467.18 Q373.704 1467.96 375.579 1470.26 Q377.477 1472.55 377.477 1475.86 Q377.477 1480.88 374.399 1483.57 Q371.343 1486.25 365.626 1486.25 Q359.908 1486.25 356.829 1483.57 Q353.774 1480.88 353.774 1475.86 Q353.774 1472.55 355.672 1470.26 Q357.57 1467.96 360.95 1467.18 M359.237 1459.79 Q359.237 1462.48 360.903 1463.98 Q362.593 1465.49 365.626 1465.49 Q368.635 1465.49 370.325 1463.98 Q372.038 1462.48 372.038 1459.79 Q372.038 1457.11 370.325 1455.6 Q368.635 1454.1 365.626 1454.1 Q362.593 1454.1 360.903 1455.6 Q359.237 1457.11 359.237 1459.79 Z" fill="#000000" fill-rule="evenodd" fill-opacity="1" /><path clip-path="url(#clip560)" d="M395.787 1454.1 Q392.176 1454.1 390.348 1457.66 Q388.542 1461.2 388.542 1468.33 Q388.542 1475.44 390.348 1479.01 Q392.176 1482.55 395.787 1482.55 Q399.422 1482.55 401.227 1479.01 Q403.056 1475.44 403.056 1468.33 Q403.056 1461.2 401.227 1457.66 Q399.422 1454.1 395.787 1454.1 M395.787 1450.39 Q401.598 1450.39 404.653 1455 Q407.732 1459.58 407.732 1468.33 Q407.732 1477.06 404.653 1481.67 Q401.598 1486.25 395.787 1486.25 Q389.977 1486.25 386.899 1481.67 Q383.843 1477.06 383.843 1468.33 Q383.843 1459.58 386.899 1455 Q389.977 1450.39 395.787 1450.39 Z" fill="#000000" fill-rule="evenodd" fill-opacity="1" /><path clip-path="url(#clip560)" d="M719.941 1481.64 L727.579 1481.64 L727.579 1455.28 L719.269 1456.95 L719.269 1452.69 L727.533 1451.02 L732.209 1451.02 L732.209 1481.64 L739.848 1481.64 L739.848 1485.58 L719.941 1485.58 L719.941 1481.64 Z" fill="#000000" fill-rule="evenodd" fill-opacity="1" /><path clip-path="url(#clip560)" d="M759.292 1454.1 Q755.681 1454.1 753.852 1457.66 Q752.047 1461.2 752.047 1468.33 Q752.047 1475.44 753.852 1479.01 Q755.681 1482.55 759.292 1482.55 Q762.926 1482.55 764.732 1479.01 Q766.561 1475.44 766.561 1468.33 Q766.561 1461.2 764.732 1457.66 Q762.926 1454.1 759.292 1454.1 M759.292 1450.39 Q765.102 1450.39 768.158 1455 Q771.237 1459.58 771.237 1468.33 Q771.237 1477.06 768.158 1481.67 Q765.102 1486.25 759.292 1486.25 Q753.482 1486.25 750.403 1481.67 Q747.348 1477.06 747.348 1468.33 Q747.348 1459.58 750.403 1455 Q753.482 1450.39 759.292 1450.39 Z" fill="#000000" fill-rule="evenodd" fill-opacity="1" /><path clip-path="url(#clip560)" d="M789.454 1454.1 Q785.843 1454.1 784.014 1457.66 Q782.209 1461.2 782.209 1468.33 Q782.209 1475.44 784.014 1479.01 Q785.843 1482.55 789.454 1482.55 Q793.088 1482.55 794.894 1479.01 Q796.723 1475.44 796.723 1468.33 Q796.723 1461.2 794.894 1457.66 Q793.088 1454.1 789.454 1454.1 M789.454 1450.39 Q795.264 1450.39 798.32 1455 Q801.398 1459.58 801.398 1468.33 Q801.398 1477.06 798.32 1481.67 Q795.264 1486.25 789.454 1486.25 Q783.644 1486.25 780.565 1481.67 Q777.51 1477.06 777.51 1468.33 Q777.51 1459.58 780.565 1455 Q783.644 1450.39 789.454 1450.39 Z" fill="#000000" fill-rule="evenodd" fill-opacity="1" /><path clip-path="url(#clip560)" d="M819.616 1454.1 Q816.005 1454.1 814.176 1457.66 Q812.371 1461.2 812.371 1468.33 Q812.371 1475.44 814.176 1479.01 Q816.005 1482.55 819.616 1482.55 Q823.25 1482.55 825.056 1479.01 Q826.884 1475.44 826.884 1468.33 Q826.884 1461.2 825.056 1457.66 Q823.25 1454.1 819.616 1454.1 M819.616 1450.39 Q825.426 1450.39 828.482 1455 Q831.56 1459.58 831.56 1468.33 Q831.56 1477.06 828.482 1481.67 Q825.426 1486.25 819.616 1486.25 Q813.806 1486.25 810.727 1481.67 Q807.672 1477.06 807.672 1468.33 Q807.672 1459.58 810.727 1455 Q813.806 1450.39 819.616 1450.39 Z" fill="#000000" fill-rule="evenodd" fill-opacity="1" /><path clip-path="url(#clip560)" d="M1129.8 1481.64 L1137.44 1481.64 L1137.44 1455.28 L1129.13 1456.95 L1129.13 1452.69 L1137.39 1451.02 L1142.07 1451.02 L1142.07 1481.64 L1149.71 1481.64 L1149.71 1485.58 L1129.8 1485.58 L1129.8 1481.64 Z" fill="#000000" fill-rule="evenodd" fill-opacity="1" /><path clip-path="url(#clip560)" d="M1169.15 1454.1 Q1165.54 1454.1 1163.71 1457.66 Q1161.91 1461.2 1161.91 1468.33 Q1161.91 1475.44 1163.71 1479.01 Q1165.54 1482.55 1169.15 1482.55 Q1172.79 1482.55 1174.59 1479.01 Q1176.42 1475.44 1176.42 1468.33 Q1176.42 1461.2 1174.59 1457.66 Q1172.79 1454.1 1169.15 1454.1 M1169.15 1450.39 Q1174.96 1450.39 1178.02 1455 Q1181.1 1459.58 1181.1 1468.33 Q1181.1 1477.06 1178.02 1481.67 Q1174.96 1486.25 1169.15 1486.25 Q1163.34 1486.25 1160.26 1481.67 Q1157.21 1477.06 1157.21 1468.33 Q1157.21 1459.58 1160.26 1455 Q1163.34 1450.39 1169.15 1450.39 Z" fill="#000000" fill-rule="evenodd" fill-opacity="1" /><path clip-path="url(#clip560)" d="M1193.34 1481.64 L1209.66 1481.64 L1209.66 1485.58 L1187.72 1485.58 L1187.72 1481.64 Q1190.38 1478.89 1194.96 1474.26 Q1199.57 1469.61 1200.75 1468.27 Q1202.99 1465.74 1203.87 1464.01 Q1204.78 1462.25 1204.78 1460.56 Q1204.78 1457.8 1202.83 1456.07 Q1200.91 1454.33 1197.81 1454.33 Q1195.61 1454.33 1193.16 1455.09 Q1190.72 1455.86 1187.95 1457.41 L1187.95 1452.69 Q1190.77 1451.55 1193.22 1450.97 Q1195.68 1450.39 1197.72 1450.39 Q1203.09 1450.39 1206.28 1453.08 Q1209.47 1455.77 1209.47 1460.26 Q1209.47 1462.39 1208.66 1464.31 Q1207.88 1466.2 1205.77 1468.8 Q1205.19 1469.47 1202.09 1472.69 Q1198.99 1475.88 1193.34 1481.64 Z" fill="#000000" fill-rule="evenodd" fill-opacity="1" /><path clip-path="url(#clip560)" d="M1229.47 1454.1 Q1225.86 1454.1 1224.03 1457.66 Q1222.23 1461.2 1222.23 1468.33 Q1222.23 1475.44 1224.03 1479.01 Q1225.86 1482.55 1229.47 1482.55 Q1233.11 1482.55 1234.91 1479.01 Q1236.74 1475.44 1236.74 1468.33 Q1236.74 1461.2 1234.91 1457.66 Q1233.11 1454.1 1229.47 1454.1 M1229.47 1450.39 Q1235.28 1450.39 1238.34 1455 Q1241.42 1459.58 1241.42 1468.33 Q1241.42 1477.06 1238.34 1481.67 Q1235.28 1486.25 1229.47 1486.25 Q1223.66 1486.25 1220.59 1481.67 Q1217.53 1477.06 1217.53 1468.33 Q1217.53 1459.58 1220.59 1455 Q1223.66 1450.39 1229.47 1450.39 Z" fill="#000000" fill-rule="evenodd" fill-opacity="1" /><path clip-path="url(#clip560)" d="M1539.66 1481.64 L1547.3 1481.64 L1547.3 1455.28 L1538.99 1456.95 L1538.99 1452.69 L1547.25 1451.02 L1551.93 1451.02 L1551.93 1481.64 L1559.57 1481.64 L1559.57 1485.58 L1539.66 1485.58 L1539.66 1481.64 Z" fill="#000000" fill-rule="evenodd" fill-opacity="1" /><path clip-path="url(#clip560)" d="M1579.01 1454.1 Q1575.4 1454.1 1573.57 1457.66 Q1571.76 1461.2 1571.76 1468.33 Q1571.76 1475.44 1573.57 1479.01 Q1575.4 1482.55 1579.01 1482.55 Q1582.64 1482.55 1584.45 1479.01 Q1586.28 1475.44 1586.28 1468.33 Q1586.28 1461.2 1584.45 1457.66 Q1582.64 1454.1 1579.01 1454.1 M1579.01 1450.39 Q1584.82 1450.39 1587.88 1455 Q1590.95 1459.58 1590.95 1468.33 Q1590.95 1477.06 1587.88 1481.67 Q1584.82 1486.25 1579.01 1486.25 Q1573.2 1486.25 1570.12 1481.67 Q1567.07 1477.06 1567.07 1468.33 Q1567.07 1459.58 1570.12 1455 Q1573.2 1450.39 1579.01 1450.39 Z" fill="#000000" fill-rule="evenodd" fill-opacity="1" /><path clip-path="url(#clip560)" d="M1612.02 1455.09 L1600.21 1473.54 L1612.02 1473.54 L1612.02 1455.09 M1610.79 1451.02 L1616.67 1451.02 L1616.67 1473.54 L1621.6 1473.54 L1621.6 1477.43 L1616.67 1477.43 L1616.67 1485.58 L1612.02 1485.58 L1612.02 1477.43 L1596.42 1477.43 L1596.42 1472.92 L1610.79 1451.02 Z" fill="#000000" fill-rule="evenodd" fill-opacity="1" /><path clip-path="url(#clip560)" d="M1639.33 1454.1 Q1635.72 1454.1 1633.89 1457.66 Q1632.09 1461.2 1632.09 1468.33 Q1632.09 1475.44 1633.89 1479.01 Q1635.72 1482.55 1639.33 1482.55 Q1642.97 1482.55 1644.77 1479.01 Q1646.6 1475.44 1646.6 1468.33 Q1646.6 1461.2 1644.77 1457.66 Q1642.97 1454.1 1639.33 1454.1 M1639.33 1450.39 Q1645.14 1450.39 1648.2 1455 Q1651.28 1459.58 1651.28 1468.33 Q1651.28 1477.06 1648.2 1481.67 Q1645.14 1486.25 1639.33 1486.25 Q1633.52 1486.25 1630.44 1481.67 Q1627.39 1477.06 1627.39 1468.33 Q1627.39 1459.58 1630.44 1455 Q1633.52 1450.39 1639.33 1450.39 Z" fill="#000000" fill-rule="evenodd" fill-opacity="1" /><path clip-path="url(#clip560)" d="M1949.52 1481.64 L1957.16 1481.64 L1957.16 1455.28 L1948.85 1456.95 L1948.85 1452.69 L1957.11 1451.02 L1961.79 1451.02 L1961.79 1481.64 L1969.42 1481.64 L1969.42 1485.58 L1949.52 1485.58 L1949.52 1481.64 Z" fill="#000000" fill-rule="evenodd" fill-opacity="1" /><path clip-path="url(#clip560)" d="M1988.87 1454.1 Q1985.26 1454.1 1983.43 1457.66 Q1981.62 1461.2 1981.62 1468.33 Q1981.62 1475.44 1983.43 1479.01 Q1985.26 1482.55 1988.87 1482.55 Q1992.5 1482.55 1994.31 1479.01 Q1996.14 1475.44 1996.14 1468.33 Q1996.14 1461.2 1994.31 1457.66 Q1992.5 1454.1 1988.87 1454.1 M1988.87 1450.39 Q1994.68 1450.39 1997.73 1455 Q2000.81 1459.58 2000.81 1468.33 Q2000.81 1477.06 1997.73 1481.67 Q1994.68 1486.25 1988.87 1486.25 Q1983.06 1486.25 1979.98 1481.67 Q1976.92 1477.06 1976.92 1468.33 Q1976.92 1459.58 1979.98 1455 Q1983.06 1450.39 1988.87 1450.39 Z" fill="#000000" fill-rule="evenodd" fill-opacity="1" /><path clip-path="url(#clip560)" d="M2019.61 1466.44 Q2016.46 1466.44 2014.61 1468.59 Q2012.78 1470.74 2012.78 1474.49 Q2012.78 1478.22 2014.61 1480.39 Q2016.46 1482.55 2019.61 1482.55 Q2022.76 1482.55 2024.59 1480.39 Q2026.44 1478.22 2026.44 1474.49 Q2026.44 1470.74 2024.59 1468.59 Q2022.76 1466.44 2019.61 1466.44 M2028.89 1451.78 L2028.89 1456.04 Q2027.13 1455.21 2025.33 1454.77 Q2023.54 1454.33 2021.78 1454.33 Q2017.16 1454.33 2014.7 1457.45 Q2012.27 1460.58 2011.92 1466.9 Q2013.29 1464.89 2015.35 1463.82 Q2017.41 1462.73 2019.89 1462.73 Q2025.09 1462.73 2028.1 1465.9 Q2031.14 1469.05 2031.14 1474.49 Q2031.14 1479.82 2027.99 1483.03 Q2024.84 1486.25 2019.61 1486.25 Q2013.61 1486.25 2010.44 1481.67 Q2007.27 1477.06 2007.27 1468.33 Q2007.27 1460.14 2011.16 1455.28 Q2015.05 1450.39 2021.6 1450.39 Q2023.36 1450.39 2025.14 1450.74 Q2026.95 1451.09 2028.89 1451.78 Z" fill="#000000" fill-rule="evenodd" fill-opacity="1" /><path clip-path="url(#clip560)" d="M2049.19 1454.1 Q2045.58 1454.1 2043.75 1457.66 Q2041.95 1461.2 2041.95 1468.33 Q2041.95 1475.44 2043.75 1479.01 Q2045.58 1482.55 2049.19 1482.55 Q2052.83 1482.55 2054.63 1479.01 Q2056.46 1475.44 2056.46 1468.33 Q2056.46 1461.2 2054.63 1457.66 Q2052.83 1454.1 2049.19 1454.1 M2049.19 1450.39 Q2055 1450.39 2058.06 1455 Q2061.14 1459.58 2061.14 1468.33 Q2061.14 1477.06 2058.06 1481.67 Q2055 1486.25 2049.19 1486.25 Q2043.38 1486.25 2040.3 1481.67 Q2037.25 1477.06 2037.25 1468.33 Q2037.25 1459.58 2040.3 1455 Q2043.38 1450.39 2049.19 1450.39 Z" fill="#000000" fill-rule="evenodd" fill-opacity="1" /><path clip-path="url(#clip560)" d="M1165.93 1532.4 L1153.04 1549.74 L1166.6 1568.04 L1159.69 1568.04 L1149.32 1554.04 L1138.94 1568.04 L1132.04 1568.04 L1145.88 1549.39 L1133.21 1532.4 L1140.12 1532.4 L1149.57 1545.1 L1159.03 1532.4 L1165.93 1532.4 Z" fill="#000000" fill-rule="evenodd" fill-opacity="1" /><path clip-path="url(#clip560)" d="M1195.06 1518.52 L1208.55 1518.52 L1208.55 1523.07 L1200.91 1523.07 L1200.91 1572.09 L1208.55 1572.09 L1208.55 1576.64 L1195.06 1576.64 L1195.06 1518.52 Z" fill="#000000" fill-rule="evenodd" fill-opacity="1" /><path clip-path="url(#clip560)" d="M1226.69 1562.7 L1226.69 1581.6 L1220.81 1581.6 L1220.81 1532.4 L1226.69 1532.4 L1226.69 1537.81 Q1228.54 1534.62 1231.34 1533.1 Q1234.17 1531.54 1238.09 1531.54 Q1244.58 1531.54 1248.62 1536.69 Q1252.7 1541.85 1252.7 1550.25 Q1252.7 1558.65 1248.62 1563.81 Q1244.58 1568.97 1238.09 1568.97 Q1234.17 1568.97 1231.34 1567.44 Q1228.54 1565.88 1226.69 1562.7 M1246.62 1550.25 Q1246.62 1543.79 1243.94 1540.13 Q1241.3 1536.44 1236.66 1536.44 Q1232.01 1536.44 1229.34 1540.13 Q1226.69 1543.79 1226.69 1550.25 Q1226.69 1556.71 1229.34 1560.4 Q1232.01 1564.07 1236.66 1564.07 Q1241.3 1564.07 1243.94 1560.4 Q1246.62 1556.71 1246.62 1550.25 Z" fill="#000000" fill-rule="evenodd" fill-opacity="1" /><path clip-path="url(#clip560)" d="M1262.4 1532.4 L1268.26 1532.4 L1268.26 1568.04 L1262.4 1568.04 L1262.4 1532.4 M1262.4 1518.52 L1268.26 1518.52 L1268.26 1525.93 L1262.4 1525.93 L1262.4 1518.52 Z" fill="#000000" fill-rule="evenodd" fill-opacity="1" /><path clip-path="url(#clip560)" d="M1310.15 1532.4 L1297.26 1549.74 L1310.82 1568.04 L1303.91 1568.04 L1293.53 1554.04 L1283.16 1568.04 L1276.25 1568.04 L1290.1 1549.39 L1277.43 1532.4 L1284.33 1532.4 L1293.79 1545.1 L1303.24 1532.4 L1310.15 1532.4 Z" fill="#000000" fill-rule="evenodd" fill-opacity="1" /><path clip-path="url(#clip560)" d="M1347.58 1548.76 L1347.58 1551.62 L1320.65 1551.62 Q1321.03 1557.67 1324.28 1560.85 Q1327.56 1564 1333.38 1564 Q1336.76 1564 1339.91 1563.17 Q1343.09 1562.35 1346.21 1560.69 L1346.21 1566.23 Q1343.06 1567.57 1339.75 1568.27 Q1336.44 1568.97 1333.03 1568.97 Q1324.5 1568.97 1319.51 1564 Q1314.54 1559.04 1314.54 1550.57 Q1314.54 1541.82 1319.25 1536.69 Q1323.99 1531.54 1332.01 1531.54 Q1339.21 1531.54 1343.38 1536.18 Q1347.58 1540.8 1347.58 1548.76 M1341.72 1547.04 Q1341.66 1542.23 1339.02 1539.37 Q1336.41 1536.5 1332.08 1536.5 Q1327.18 1536.5 1324.22 1539.27 Q1321.29 1542.04 1320.84 1547.07 L1341.72 1547.04 Z" fill="#000000" fill-rule="evenodd" fill-opacity="1" /><path clip-path="url(#clip560)" d="M1357.19 1518.52 L1363.05 1518.52 L1363.05 1568.04 L1357.19 1568.04 L1357.19 1518.52 Z" fill="#000000" fill-rule="evenodd" fill-opacity="1" /><path clip-path="url(#clip560)" d="M1398.03 1533.45 L1398.03 1538.98 Q1395.54 1537.71 1392.87 1537.07 Q1390.2 1536.44 1387.33 1536.44 Q1382.97 1536.44 1380.78 1537.77 Q1378.61 1539.11 1378.61 1541.79 Q1378.61 1543.82 1380.17 1545 Q1381.73 1546.15 1386.44 1547.2 L1388.45 1547.64 Q1394.68 1548.98 1397.29 1551.43 Q1399.94 1553.85 1399.94 1558.21 Q1399.94 1563.17 1395.99 1566.07 Q1392.07 1568.97 1385.2 1568.97 Q1382.33 1568.97 1379.22 1568.39 Q1376.13 1567.85 1372.69 1566.74 L1372.69 1560.69 Q1375.94 1562.38 1379.09 1563.24 Q1382.24 1564.07 1385.33 1564.07 Q1389.46 1564.07 1391.69 1562.66 Q1393.92 1561.23 1393.92 1558.65 Q1393.92 1556.27 1392.3 1554.99 Q1390.71 1553.72 1385.26 1552.54 L1383.23 1552.07 Q1377.78 1550.92 1375.36 1548.56 Q1372.95 1546.18 1372.95 1542.04 Q1372.95 1537.01 1376.51 1534.27 Q1380.08 1531.54 1386.63 1531.54 Q1389.88 1531.54 1392.74 1532.01 Q1395.61 1532.49 1398.03 1533.45 Z" fill="#000000" fill-rule="evenodd" fill-opacity="1" /><path clip-path="url(#clip560)" d="M1422.95 1518.52 L1422.95 1576.64 L1409.45 1576.64 L1409.45 1572.09 L1417.06 1572.09 L1417.06 1523.07 L1409.45 1523.07 L1409.45 1518.52 L1422.95 1518.52 Z" fill="#000000" fill-rule="evenodd" fill-opacity="1" /><polyline clip-path="url(#clip562)" style="stroke:#000000; stroke-linecap:butt; stroke-linejoin:round; stroke-width:2; stroke-opacity:0.1; fill:none" points="
  202.227,1337.62 2352.76,1337.62 
  "/>
<polyline clip-path="url(#clip562)" style="stroke:#000000; stroke-linecap:butt; stroke-linejoin:round; stroke-width:2; stroke-opacity:0.1; fill:none" points="
  202.227,1156.55 2352.76,1156.55 
  "/>
<polyline clip-path="url(#clip562)" style="stroke:#000000; stroke-linecap:butt; stroke-linejoin:round; stroke-width:2; stroke-opacity:0.1; fill:none" points="
  202.227,975.48 2352.76,975.48 
  "/>
<polyline clip-path="url(#clip562)" style="stroke:#000000; stroke-linecap:butt; stroke-linejoin:round; stroke-width:2; stroke-opacity:0.1; fill:none" points="
  202.227,794.413 2352.76,794.413 
  "/>
<polyline clip-path="url(#clip562)" style="stroke:#000000; stroke-linecap:butt; stroke-linejoin:round; stroke-width:2; stroke-opacity:0.1; fill:none" points="
  202.227,613.345 2352.76,613.345 
  "/>
<polyline clip-path="url(#clip562)" style="stroke:#000000; stroke-linecap:butt; stroke-linejoin:round; stroke-width:2; stroke-opacity:0.1; fill:none" points="
  202.227,432.277 2352.76,432.277 
  "/>
<polyline clip-path="url(#clip562)" style="stroke:#000000; stroke-linecap:butt; stroke-linejoin:round; stroke-width:2; stroke-opacity:0.1; fill:none" points="
  202.227,251.21 2352.76,251.21 
  "/>
<polyline clip-path="url(#clip560)" style="stroke:#000000; stroke-linecap:butt; stroke-linejoin:round; stroke-width:4; stroke-opacity:1; fill:none" points="
  202.227,1423.18 202.227,123.472 
  "/>
<polyline clip-path="url(#clip560)" style="stroke:#000000; stroke-linecap:butt; stroke-linejoin:round; stroke-width:4; stroke-opacity:1; fill:none" points="
  202.227,1337.62 221.125,1337.62 
  "/>
<polyline clip-path="url(#clip560)" style="stroke:#000000; stroke-linecap:butt; stroke-linejoin:round; stroke-width:4; stroke-opacity:1; fill:none" points="
  202.227,1156.55 221.125,1156.55 
  "/>
<polyline clip-path="url(#clip560)" style="stroke:#000000; stroke-linecap:butt; stroke-linejoin:round; stroke-width:4; stroke-opacity:1; fill:none" points="
  202.227,975.48 221.125,975.48 
  "/>
<polyline clip-path="url(#clip560)" style="stroke:#000000; stroke-linecap:butt; stroke-linejoin:round; stroke-width:4; stroke-opacity:1; fill:none" points="
  202.227,794.413 221.125,794.413 
  "/>
<polyline clip-path="url(#clip560)" style="stroke:#000000; stroke-linecap:butt; stroke-linejoin:round; stroke-width:4; stroke-opacity:1; fill:none" points="
  202.227,613.345 221.125,613.345 
  "/>
<polyline clip-path="url(#clip560)" style="stroke:#000000; stroke-linecap:butt; stroke-linejoin:round; stroke-width:4; stroke-opacity:1; fill:none" points="
  202.227,432.277 221.125,432.277 
  "/>
<polyline clip-path="url(#clip560)" style="stroke:#000000; stroke-linecap:butt; stroke-linejoin:round; stroke-width:4; stroke-opacity:1; fill:none" points="
  202.227,251.21 221.125,251.21 
  "/>
<path clip-path="url(#clip560)" d="M154.283 1323.41 Q150.672 1323.41 148.843 1326.98 Q147.038 1330.52 147.038 1337.65 Q147.038 1344.76 148.843 1348.32 Q150.672 1351.86 154.283 1351.86 Q157.917 1351.86 159.723 1348.32 Q161.552 1344.76 161.552 1337.65 Q161.552 1330.52 159.723 1326.98 Q157.917 1323.41 154.283 1323.41 M154.283 1319.71 Q160.093 1319.71 163.149 1324.32 Q166.227 1328.9 166.227 1337.65 Q166.227 1346.38 163.149 1350.98 Q160.093 1355.57 154.283 1355.57 Q148.473 1355.57 145.394 1350.98 Q142.339 1346.38 142.339 1337.65 Q142.339 1328.9 145.394 1324.32 Q148.473 1319.71 154.283 1319.71 Z" fill="#000000" fill-rule="evenodd" fill-opacity="1" /><path clip-path="url(#clip560)" d="M149.908 1169.89 L166.227 1169.89 L166.227 1173.83 L144.283 1173.83 L144.283 1169.89 Q146.945 1167.14 151.528 1162.51 Q156.135 1157.86 157.315 1156.51 Q159.561 1153.99 160.44 1152.25 Q161.343 1150.49 161.343 1148.8 Q161.343 1146.05 159.399 1144.31 Q157.478 1142.58 154.376 1142.58 Q152.177 1142.58 149.723 1143.34 Q147.292 1144.11 144.515 1145.66 L144.515 1140.93 Q147.339 1139.8 149.792 1139.22 Q152.246 1138.64 154.283 1138.64 Q159.653 1138.64 162.848 1141.33 Q166.042 1144.01 166.042 1148.5 Q166.042 1150.63 165.232 1152.55 Q164.445 1154.45 162.339 1157.05 Q161.76 1157.72 158.658 1160.93 Q155.556 1164.13 149.908 1169.89 Z" fill="#000000" fill-rule="evenodd" fill-opacity="1" /><path clip-path="url(#clip560)" d="M156.644 962.274 L144.839 980.723 L156.644 980.723 L156.644 962.274 M155.417 958.2 L161.297 958.2 L161.297 980.723 L166.227 980.723 L166.227 984.612 L161.297 984.612 L161.297 992.76 L156.644 992.76 L156.644 984.612 L141.042 984.612 L141.042 980.098 L155.417 958.2 Z" fill="#000000" fill-rule="evenodd" fill-opacity="1" /><path clip-path="url(#clip560)" d="M154.7 792.549 Q151.552 792.549 149.7 794.702 Q147.871 796.855 147.871 800.605 Q147.871 804.332 149.7 806.508 Q151.552 808.66 154.7 808.66 Q157.848 808.66 159.677 806.508 Q161.528 804.332 161.528 800.605 Q161.528 796.855 159.677 794.702 Q157.848 792.549 154.7 792.549 M163.982 777.897 L163.982 782.156 Q162.223 781.322 160.417 780.883 Q158.635 780.443 156.876 780.443 Q152.246 780.443 149.792 783.568 Q147.362 786.693 147.015 793.012 Q148.38 790.998 150.441 789.934 Q152.501 788.846 154.978 788.846 Q160.186 788.846 163.195 792.017 Q166.227 795.165 166.227 800.605 Q166.227 805.929 163.079 809.146 Q159.931 812.364 154.7 812.364 Q148.704 812.364 145.533 807.781 Q142.362 803.174 142.362 794.447 Q142.362 786.253 146.251 781.392 Q150.14 776.508 156.69 776.508 Q158.45 776.508 160.232 776.855 Q162.038 777.202 163.982 777.897 Z" fill="#000000" fill-rule="evenodd" fill-opacity="1" /><path clip-path="url(#clip560)" d="M154.376 614.213 Q151.042 614.213 149.121 615.995 Q147.223 617.778 147.223 620.903 Q147.223 624.028 149.121 625.81 Q151.042 627.593 154.376 627.593 Q157.709 627.593 159.63 625.81 Q161.552 624.005 161.552 620.903 Q161.552 617.778 159.63 615.995 Q157.732 614.213 154.376 614.213 M149.7 612.222 Q146.691 611.482 145.001 609.421 Q143.334 607.361 143.334 604.398 Q143.334 600.255 146.274 597.847 Q149.237 595.44 154.376 595.44 Q159.538 595.44 162.477 597.847 Q165.417 600.255 165.417 604.398 Q165.417 607.361 163.727 609.421 Q162.061 611.482 159.075 612.222 Q162.454 613.009 164.329 615.301 Q166.227 617.593 166.227 620.903 Q166.227 625.926 163.149 628.611 Q160.093 631.296 154.376 631.296 Q148.658 631.296 145.579 628.611 Q142.524 625.926 142.524 620.903 Q142.524 617.593 144.422 615.301 Q146.32 613.009 149.7 612.222 M147.987 604.838 Q147.987 607.523 149.653 609.028 Q151.343 610.533 154.376 610.533 Q157.385 610.533 159.075 609.028 Q160.788 607.523 160.788 604.838 Q160.788 602.153 159.075 600.648 Q157.385 599.144 154.376 599.144 Q151.343 599.144 149.653 600.648 Q147.987 602.153 147.987 604.838 Z" fill="#000000" fill-rule="evenodd" fill-opacity="1" /><path clip-path="url(#clip560)" d="M114.931 445.622 L122.57 445.622 L122.57 419.257 L114.26 420.923 L114.26 416.664 L122.524 414.997 L127.2 414.997 L127.2 445.622 L134.839 445.622 L134.839 449.557 L114.931 449.557 L114.931 445.622 Z" fill="#000000" fill-rule="evenodd" fill-opacity="1" /><path clip-path="url(#clip560)" d="M154.283 418.076 Q150.672 418.076 148.843 421.641 Q147.038 425.182 147.038 432.312 Q147.038 439.419 148.843 442.983 Q150.672 446.525 154.283 446.525 Q157.917 446.525 159.723 442.983 Q161.552 439.419 161.552 432.312 Q161.552 425.182 159.723 421.641 Q157.917 418.076 154.283 418.076 M154.283 414.372 Q160.093 414.372 163.149 418.979 Q166.227 423.562 166.227 432.312 Q166.227 441.039 163.149 445.645 Q160.093 450.229 154.283 450.229 Q148.473 450.229 145.394 445.645 Q142.339 441.039 142.339 432.312 Q142.339 423.562 145.394 418.979 Q148.473 414.372 154.283 414.372 Z" fill="#000000" fill-rule="evenodd" fill-opacity="1" /><path clip-path="url(#clip560)" d="M116.529 264.555 L124.168 264.555 L124.168 238.189 L115.857 239.856 L115.857 235.596 L124.121 233.93 L128.797 233.93 L128.797 264.555 L136.436 264.555 L136.436 268.49 L116.529 268.49 L116.529 264.555 Z" fill="#000000" fill-rule="evenodd" fill-opacity="1" /><path clip-path="url(#clip560)" d="M149.908 264.555 L166.227 264.555 L166.227 268.49 L144.283 268.49 L144.283 264.555 Q146.945 261.8 151.528 257.17 Q156.135 252.518 157.315 251.175 Q159.561 248.652 160.44 246.916 Q161.343 245.156 161.343 243.467 Q161.343 240.712 159.399 238.976 Q157.478 237.24 154.376 237.24 Q152.177 237.24 149.723 238.004 Q147.292 238.768 144.515 240.319 L144.515 235.596 Q147.339 234.462 149.792 233.883 Q152.246 233.305 154.283 233.305 Q159.653 233.305 162.848 235.99 Q166.042 238.675 166.042 243.166 Q166.042 245.295 165.232 247.217 Q164.445 249.115 162.339 251.707 Q161.76 252.379 158.658 255.596 Q155.556 258.791 149.908 264.555 Z" fill="#000000" fill-rule="evenodd" fill-opacity="1" /><path clip-path="url(#clip560)" d="M21.7677 948.065 L39.6235 948.065 L39.6235 939.98 Q39.6235 935.492 37.3 933.042 Q34.9765 930.591 30.6797 930.591 Q26.4147 930.591 24.0912 933.042 Q21.7677 935.492 21.7677 939.98 L21.7677 948.065 M16.4842 954.494 L16.4842 939.98 Q16.4842 931.991 20.1126 927.917 Q23.7092 923.811 30.6797 923.811 Q37.7138 923.811 41.3104 927.917 Q44.907 931.991 44.907 939.98 L44.907 948.065 L64.0042 948.065 L64.0042 954.494 L16.4842 954.494 Z" fill="#000000" fill-rule="evenodd" fill-opacity="1" /><path clip-path="url(#clip560)" d="M42.4881 885.808 L64.0042 885.808 L64.0042 891.664 L42.679 891.664 Q37.6183 891.664 35.1038 893.638 Q32.5894 895.611 32.5894 899.558 Q32.5894 904.3 35.6131 907.038 Q38.6368 909.775 43.8567 909.775 L64.0042 909.775 L64.0042 915.663 L14.479 915.663 L14.479 909.775 L33.8944 909.775 Q30.6797 907.674 29.0883 904.841 Q27.4968 901.977 27.4968 898.253 Q27.4968 892.11 31.3163 888.959 Q35.1038 885.808 42.4881 885.808 Z" fill="#000000" fill-rule="evenodd" fill-opacity="1" /><path clip-path="url(#clip560)" d="M46.0847 857.926 Q46.0847 865.024 47.7079 867.761 Q49.3312 870.498 53.2461 870.498 Q56.3653 870.498 58.2114 868.461 Q60.0256 866.393 60.0256 862.86 Q60.0256 857.99 56.5881 855.062 Q53.1188 852.102 47.3897 852.102 L46.0847 852.102 L46.0847 857.926 M43.6657 846.245 L64.0042 846.245 L64.0042 852.102 L58.5933 852.102 Q61.8398 854.107 63.3994 857.099 Q64.9272 860.091 64.9272 864.419 Q64.9272 869.894 61.8716 873.14 Q58.7843 876.355 53.6281 876.355 Q47.6125 876.355 44.5569 872.345 Q41.5014 868.302 41.5014 860.313 L41.5014 852.102 L40.9285 852.102 Q36.8862 852.102 34.6901 854.775 Q32.4621 857.417 32.4621 862.223 Q32.4621 865.279 33.1941 868.175 Q33.9262 871.071 35.3903 873.745 L29.9795 873.745 Q28.7381 870.53 28.1334 867.507 Q27.4968 864.483 27.4968 861.618 Q27.4968 853.884 31.5072 850.065 Q35.5176 846.245 43.6657 846.245 Z" fill="#000000" fill-rule="evenodd" fill-opacity="1" /><path clip-path="url(#clip560)" d="M29.4065 811.457 L34.9447 811.457 Q33.6716 813.939 33.035 816.613 Q32.3984 819.286 32.3984 822.151 Q32.3984 826.511 33.7352 828.708 Q35.072 830.872 37.7456 830.872 Q39.7826 830.872 40.9603 829.312 Q42.1061 827.753 43.1565 823.042 L43.6021 821.037 Q44.9389 814.799 47.3897 812.189 Q49.8086 809.547 54.1691 809.547 Q59.1344 809.547 62.0308 813.494 Q64.9272 817.409 64.9272 824.283 Q64.9272 827.148 64.3543 830.267 Q63.8132 833.355 62.6992 836.792 L56.6518 836.792 Q58.3387 833.546 59.198 830.395 Q60.0256 827.244 60.0256 824.156 Q60.0256 820.018 58.6251 817.79 Q57.1929 815.562 54.6147 815.562 Q52.2276 815.562 50.9545 817.186 Q49.6813 818.777 48.5037 824.22 L48.0262 826.257 Q46.8804 831.7 44.5251 834.118 Q42.138 836.537 38.0002 836.537 Q32.9713 836.537 30.2341 832.973 Q27.4968 829.408 27.4968 822.851 Q27.4968 819.605 27.9743 816.74 Q28.4517 813.876 29.4065 811.457 Z" fill="#000000" fill-rule="evenodd" fill-opacity="1" /><path clip-path="url(#clip560)" d="M44.7161 769.729 L47.5806 769.729 L47.5806 796.656 Q53.6281 796.274 56.8109 793.028 Q59.9619 789.75 59.9619 783.925 Q59.9619 780.551 59.1344 777.4 Q58.3069 774.217 56.6518 771.098 L62.1899 771.098 Q63.5267 774.249 64.227 777.559 Q64.9272 780.869 64.9272 784.275 Q64.9272 792.805 59.9619 797.802 Q54.9967 802.767 46.5303 802.767 Q37.7774 802.767 32.6531 798.057 Q27.4968 793.314 27.4968 785.294 Q27.4968 778.1 32.1438 773.931 Q36.7589 769.729 44.7161 769.729 M42.9973 775.586 Q38.1912 775.649 35.3266 778.291 Q32.4621 780.901 32.4621 785.23 Q32.4621 790.131 35.2312 793.092 Q38.0002 796.02 43.0292 796.465 L42.9973 775.586 Z" fill="#000000" fill-rule="evenodd" fill-opacity="1" /><path clip-path="url(#clip560)" d="M14.479 739.938 L14.479 726.443 L19.0304 726.443 L19.0304 734.081 L68.0464 734.081 L68.0464 726.443 L72.5979 726.443 L72.5979 739.938 L14.479 739.938 Z" fill="#000000" fill-rule="evenodd" fill-opacity="1" /><path clip-path="url(#clip560)" d="M33.8307 693.309 Q33.2578 694.296 33.0032 695.473 Q32.7167 696.619 32.7167 698.02 Q32.7167 702.985 35.9632 705.659 Q39.1779 708.3 45.2253 708.3 L64.0042 708.3 L64.0042 714.189 L28.3562 714.189 L28.3562 708.3 L33.8944 708.3 Q30.6479 706.454 29.0883 703.494 Q27.4968 700.534 27.4968 696.301 Q27.4968 695.696 27.5923 694.964 Q27.656 694.232 27.8151 693.341 L33.8307 693.309 Z" fill="#000000" fill-rule="evenodd" fill-opacity="1" /><path clip-path="url(#clip560)" d="M46.0847 670.965 Q46.0847 678.063 47.7079 680.8 Q49.3312 683.538 53.2461 683.538 Q56.3653 683.538 58.2114 681.501 Q60.0256 679.432 60.0256 675.899 Q60.0256 671.029 56.5881 668.101 Q53.1188 665.141 47.3897 665.141 L46.0847 665.141 L46.0847 670.965 M43.6657 659.284 L64.0042 659.284 L64.0042 665.141 L58.5933 665.141 Q61.8398 667.146 63.3994 670.138 Q64.9272 673.13 64.9272 677.458 Q64.9272 682.933 61.8716 686.179 Q58.7843 689.394 53.6281 689.394 Q47.6125 689.394 44.5569 685.384 Q41.5014 681.342 41.5014 673.353 L41.5014 665.141 L40.9285 665.141 Q36.8862 665.141 34.6901 667.814 Q32.4621 670.456 32.4621 675.262 Q32.4621 678.318 33.1941 681.214 Q33.9262 684.111 35.3903 686.784 L29.9795 686.784 Q28.7381 683.57 28.1334 680.546 Q27.4968 677.522 27.4968 674.658 Q27.4968 666.923 31.5072 663.104 Q35.5176 659.284 43.6657 659.284 Z" fill="#000000" fill-rule="evenodd" fill-opacity="1" /><path clip-path="url(#clip560)" d="M33.7671 623.764 L14.479 623.764 L14.479 617.907 L64.0042 617.907 L64.0042 623.764 L58.657 623.764 Q61.8398 625.61 63.3994 628.443 Q64.9272 631.243 64.9272 635.19 Q64.9272 641.651 59.771 645.725 Q54.6147 649.768 46.212 649.768 Q37.8093 649.768 32.6531 645.725 Q27.4968 641.651 27.4968 635.19 Q27.4968 631.243 29.0564 628.443 Q30.5842 625.61 33.7671 623.764 M46.212 643.72 Q52.6732 643.72 56.3653 641.078 Q60.0256 638.405 60.0256 633.758 Q60.0256 629.111 56.3653 626.437 Q52.6732 623.764 46.212 623.764 Q39.7508 623.764 36.0905 626.437 Q32.3984 629.111 32.3984 633.758 Q32.3984 638.405 36.0905 641.078 Q39.7508 643.72 46.212 643.72 Z" fill="#000000" fill-rule="evenodd" fill-opacity="1" /><path clip-path="url(#clip560)" d="M14.479 592.158 L72.5979 592.158 L72.5979 605.653 L68.0464 605.653 L68.0464 598.046 L19.0304 598.046 L19.0304 605.653 L14.479 605.653 L14.479 592.158 Z" fill="#000000" fill-rule="evenodd" fill-opacity="1" /><path clip-path="url(#clip560)" d="M1001.54 44.2197 Q1004.18 45.1109 1006.65 48.0275 Q1009.16 50.9442 1011.67 56.0483 L1019.98 72.576 L1011.19 72.576 L1003.45 57.061 Q1000.45 50.9847 997.615 48.9997 Q994.82 47.0148 989.959 47.0148 L981.047 47.0148 L981.047 72.576 L972.864 72.576 L972.864 12.096 L991.336 12.096 Q1001.71 12.096 1006.81 16.4305 Q1011.91 20.7649 1011.91 29.5149 Q1011.91 35.2267 1009.24 38.994 Q1006.61 42.7613 1001.54 44.2197 M981.047 18.8205 L981.047 40.2903 L991.336 40.2903 Q997.25 40.2903 1000.25 37.5762 Q1003.29 34.8216 1003.29 29.5149 Q1003.29 24.2082 1000.25 21.5346 Q997.25 18.8205 991.336 18.8205 L981.047 18.8205 Z" fill="#000000" fill-rule="evenodd" fill-opacity="1" /><path clip-path="url(#clip560)" d="M1048.98 49.7694 Q1039.95 49.7694 1036.46 51.8354 Q1032.98 53.9013 1032.98 58.8839 Q1032.98 62.8538 1035.57 65.2034 Q1038.2 67.5124 1042.7 67.5124 Q1048.9 67.5124 1052.63 63.1374 Q1056.39 58.7219 1056.39 51.4303 L1056.39 49.7694 L1048.98 49.7694 M1063.85 46.6907 L1063.85 72.576 L1056.39 72.576 L1056.39 65.6895 Q1053.84 69.8214 1050.03 71.8063 Q1046.23 73.7508 1040.72 73.7508 Q1033.75 73.7508 1029.62 69.8619 Q1025.53 65.9325 1025.53 59.3701 Q1025.53 51.7138 1030.63 47.825 Q1035.77 43.9361 1045.94 43.9361 L1056.39 43.9361 L1056.39 43.2069 Q1056.39 38.0623 1052.99 35.2672 Q1049.63 32.4315 1043.51 32.4315 Q1039.62 32.4315 1035.94 33.3632 Q1032.25 34.295 1028.85 36.1584 L1028.85 29.2718 Q1032.94 27.692 1036.79 26.9223 Q1040.64 26.1121 1044.28 26.1121 Q1054.12 26.1121 1058.99 31.2163 Q1063.85 36.3204 1063.85 46.6907 Z" fill="#000000" fill-rule="evenodd" fill-opacity="1" /><path clip-path="url(#clip560)" d="M1109.06 34.0924 L1109.06 9.54393 L1116.51 9.54393 L1116.51 72.576 L1109.06 72.576 L1109.06 65.7705 Q1106.71 69.8214 1103.1 71.8063 Q1099.54 73.7508 1094.51 73.7508 Q1086.29 73.7508 1081.1 67.1883 Q1075.96 60.6258 1075.96 49.9314 Q1075.96 39.2371 1081.1 32.6746 Q1086.29 26.1121 1094.51 26.1121 Q1099.54 26.1121 1103.1 28.0971 Q1106.71 30.0415 1109.06 34.0924 M1083.66 49.9314 Q1083.66 58.1548 1087.02 62.8538 Q1090.42 67.5124 1096.34 67.5124 Q1102.25 67.5124 1105.65 62.8538 Q1109.06 58.1548 1109.06 49.9314 Q1109.06 41.7081 1105.65 37.0496 Q1102.25 32.3505 1096.34 32.3505 Q1090.42 32.3505 1087.02 37.0496 Q1083.66 41.7081 1083.66 49.9314 Z" fill="#000000" fill-rule="evenodd" fill-opacity="1" /><path clip-path="url(#clip560)" d="M1131.86 27.2059 L1139.32 27.2059 L1139.32 72.576 L1131.86 72.576 L1131.86 27.2059 M1131.86 9.54393 L1139.32 9.54393 L1139.32 18.9825 L1131.86 18.9825 L1131.86 9.54393 Z" fill="#000000" fill-rule="evenodd" fill-opacity="1" /><path clip-path="url(#clip560)" d="M1154.14 54.671 L1154.14 27.2059 L1161.6 27.2059 L1161.6 54.3874 Q1161.6 60.8284 1164.11 64.0691 Q1166.62 67.2693 1171.64 67.2693 Q1177.68 67.2693 1181.16 63.421 Q1184.69 59.5726 1184.69 52.9291 L1184.69 27.2059 L1192.14 27.2059 L1192.14 72.576 L1184.69 72.576 L1184.69 65.6084 Q1181.97 69.7404 1178.37 71.7658 Q1174.8 73.7508 1170.06 73.7508 Q1162.24 73.7508 1158.19 68.8897 Q1154.14 64.0286 1154.14 54.671 M1172.9 26.1121 L1172.9 26.1121 Z" fill="#000000" fill-rule="evenodd" fill-opacity="1" /><path clip-path="url(#clip560)" d="M1236.42 28.5427 L1236.42 35.5912 Q1233.26 33.9709 1229.85 33.1607 Q1226.45 32.3505 1222.8 32.3505 Q1217.25 32.3505 1214.46 34.0519 Q1211.71 35.7533 1211.71 39.156 Q1211.71 41.7486 1213.69 43.2475 Q1215.67 44.7058 1221.67 46.0426 L1224.22 46.6097 Q1232.16 48.3111 1235.48 51.4303 Q1238.85 54.509 1238.85 60.0587 Q1238.85 66.3781 1233.82 70.0644 Q1228.84 73.7508 1220.09 73.7508 Q1216.44 73.7508 1212.47 73.0216 Q1208.55 72.3329 1204.17 70.9151 L1204.17 63.2184 Q1208.3 65.3654 1212.31 66.4591 Q1216.32 67.5124 1220.25 67.5124 Q1225.52 67.5124 1228.35 65.73 Q1231.19 63.9071 1231.19 60.6258 Q1231.19 57.5877 1229.12 55.9673 Q1227.1 54.3469 1220.17 52.8481 L1217.58 52.2405 Q1210.65 50.7821 1207.57 47.7845 Q1204.49 44.7463 1204.49 39.4801 Q1204.49 33.0797 1209.03 29.5959 Q1213.57 26.1121 1221.91 26.1121 Q1226.05 26.1121 1229.69 26.7198 Q1233.34 27.3274 1236.42 28.5427 Z" fill="#000000" fill-rule="evenodd" fill-opacity="1" /><path clip-path="url(#clip560)" d="M1252.62 62.2867 L1261.17 62.2867 L1261.17 72.576 L1252.62 72.576 L1252.62 62.2867 M1252.62 29.6769 L1261.17 29.6769 L1261.17 39.9662 L1252.62 39.9662 L1252.62 29.6769 Z" fill="#000000" fill-rule="evenodd" fill-opacity="1" /><path clip-path="url(#clip560)" d="M1306.17 12.096 L1338.3 12.096 L1338.3 18.9825 L1313.67 18.9825 L1313.67 33.8088 Q1315.45 33.2012 1317.23 32.9176 Q1319.01 32.5936 1320.8 32.5936 Q1330.92 32.5936 1336.84 38.1433 Q1342.75 43.6931 1342.75 53.1722 Q1342.75 62.9348 1336.68 68.3631 Q1330.6 73.7508 1319.54 73.7508 Q1315.73 73.7508 1311.76 73.1026 Q1307.83 72.4545 1303.62 71.1582 L1303.62 62.9348 Q1307.27 64.9198 1311.15 65.892 Q1315.04 66.8642 1319.38 66.8642 Q1326.39 66.8642 1330.48 63.1779 Q1334.57 59.4916 1334.57 53.1722 Q1334.57 46.8528 1330.48 43.1664 Q1326.39 39.4801 1319.38 39.4801 Q1316.1 39.4801 1312.82 40.2093 Q1309.57 40.9384 1306.17 42.4778 L1306.17 12.096 Z" fill="#000000" fill-rule="evenodd" fill-opacity="1" /><path clip-path="url(#clip560)" d="M1376.37 17.4837 Q1370.05 17.4837 1366.85 23.7221 Q1363.69 29.92 1363.69 42.3968 Q1363.69 54.833 1366.85 61.0714 Q1370.05 67.2693 1376.37 67.2693 Q1382.73 67.2693 1385.89 61.0714 Q1389.09 54.833 1389.09 42.3968 Q1389.09 29.92 1385.89 23.7221 Q1382.73 17.4837 1376.37 17.4837 M1376.37 11.0023 Q1386.54 11.0023 1391.89 19.0636 Q1397.28 27.0843 1397.28 42.3968 Q1397.28 57.6687 1391.89 65.73 Q1386.54 73.7508 1376.37 73.7508 Q1366.21 73.7508 1360.82 65.73 Q1355.47 57.6687 1355.47 42.3968 Q1355.47 27.0843 1360.82 19.0636 Q1366.21 11.0023 1376.37 11.0023 Z" fill="#000000" fill-rule="evenodd" fill-opacity="1" /><path clip-path="url(#clip560)" d="M1429.16 17.4837 Q1422.84 17.4837 1419.64 23.7221 Q1416.48 29.92 1416.48 42.3968 Q1416.48 54.833 1419.64 61.0714 Q1422.84 67.2693 1429.16 67.2693 Q1435.52 67.2693 1438.68 61.0714 Q1441.88 54.833 1441.88 42.3968 Q1441.88 29.92 1438.68 23.7221 Q1435.52 17.4837 1429.16 17.4837 M1429.16 11.0023 Q1439.33 11.0023 1444.67 19.0636 Q1450.06 27.0843 1450.06 42.3968 Q1450.06 57.6687 1444.67 65.73 Q1439.33 73.7508 1429.16 73.7508 Q1418.99 73.7508 1413.6 65.73 Q1408.25 57.6687 1408.25 42.3968 Q1408.25 27.0843 1413.6 19.0636 Q1418.99 11.0023 1429.16 11.0023 Z" fill="#000000" fill-rule="evenodd" fill-opacity="1" /><path clip-path="url(#clip560)" d="M1462.62 89.8329 L1462.62 27.2059 L1470.07 27.2059 L1470.07 55.4002 Q1470.07 61.274 1472.87 64.2716 Q1475.66 67.2693 1481.13 67.2693 Q1487.13 67.2693 1490.12 63.8666 Q1493.16 60.4638 1493.16 53.6583 L1493.16 27.2059 L1500.62 27.2059 L1500.62 62.1247 Q1500.62 64.5552 1501.3 65.73 Q1502.03 66.8642 1503.53 66.8642 Q1503.9 66.8642 1504.54 66.6617 Q1505.19 66.4186 1506.33 65.9325 L1506.33 71.9279 Q1504.67 72.8596 1503.17 73.3052 Q1501.71 73.7508 1500.29 73.7508 Q1497.5 73.7508 1495.84 72.1709 Q1494.17 70.5911 1493.57 67.3503 Q1491.54 70.5505 1488.58 72.1709 Q1485.67 73.7508 1481.7 73.7508 Q1477.57 73.7508 1474.65 72.1709 Q1471.77 70.5911 1470.07 67.4314 L1470.07 89.8329 L1462.62 89.8329 Z" fill="#000000" fill-rule="evenodd" fill-opacity="1" /><path clip-path="url(#clip560)" d="M1551.49 35.9153 Q1554.29 30.8922 1558.18 28.5022 Q1562.07 26.1121 1567.33 26.1121 Q1574.42 26.1121 1578.27 31.0947 Q1582.12 36.0368 1582.12 45.1919 L1582.12 72.576 L1574.63 72.576 L1574.63 45.4349 Q1574.63 38.913 1572.32 35.7533 Q1570.01 32.5936 1565.27 32.5936 Q1559.48 32.5936 1556.11 36.4419 Q1552.75 40.2903 1552.75 46.9338 L1552.75 72.576 L1545.26 72.576 L1545.26 45.4349 Q1545.26 38.8725 1542.95 35.7533 Q1540.64 32.5936 1535.82 32.5936 Q1530.11 32.5936 1526.74 36.4824 Q1523.38 40.3308 1523.38 46.9338 L1523.38 72.576 L1515.89 72.576 L1515.89 27.2059 L1523.38 27.2059 L1523.38 34.2544 Q1525.93 30.082 1529.5 28.0971 Q1533.06 26.1121 1537.96 26.1121 Q1542.91 26.1121 1546.35 28.6237 Q1549.83 31.1352 1551.49 35.9153 Z" fill="#000000" fill-rule="evenodd" fill-opacity="1" /><polyline clip-path="url(#clip562)" style="stroke:#009af9; stroke-linecap:butt; stroke-linejoin:round; stroke-width:4; stroke-opacity:1; fill:none" points="
  263.091,1337.62 283.584,1337.62 304.077,1337.62 324.57,1337.62 345.063,1337.62 365.556,1337.62 386.049,1337.62 406.542,1337.62 427.035,1337.62 447.528,1337.62 
  468.021,1337.62 488.514,1337.62 509.007,1337.62 529.5,1337.62 549.993,1337.62 570.485,1337.62 590.978,1337.62 611.471,1337.62 631.964,1337.62 652.457,1337.62 
  672.95,1337.62 693.443,1337.62 713.936,1337.62 734.429,1337.62 754.922,1337.62 775.415,1015.44 795.908,886.664 816.401,791.098 836.894,713.302 857.387,647.24 
  877.879,589.797 898.372,539.111 918.865,493.963 939.358,453.503 959.851,417.115 980.344,384.33 1000.84,354.79 1021.33,328.208 1041.82,304.356 1062.32,283.049 
  1082.81,264.136 1103.3,247.492 1123.79,233.015 1144.29,220.619 1164.78,210.237 1185.27,201.813 1205.77,195.304 1226.26,190.677 1246.75,187.91 1267.25,186.989 
  1287.74,187.91 1308.23,190.677 1328.72,195.304 1349.22,201.813 1369.71,210.237 1390.2,220.619 1410.7,233.015 1431.19,247.492 1451.68,264.136 1472.17,283.049 
  1492.67,304.356 1513.16,328.208 1533.65,354.79 1554.15,384.33 1574.64,417.115 1595.13,453.503 1615.63,493.963 1636.12,539.111 1656.61,589.797 1677.1,647.24 
  1697.6,713.302 1718.09,791.098 1738.58,886.664 1759.08,1015.44 1779.57,1337.62 1800.06,1337.62 1820.55,1337.62 1841.05,1337.62 1861.54,1337.62 1882.03,1337.62 
  1902.53,1337.62 1923.02,1337.62 1943.51,1337.62 1964,1337.62 1984.5,1337.62 2004.99,1337.62 2025.48,1337.62 2045.98,1337.62 2066.47,1337.62 2086.96,1337.62 
  2107.46,1337.62 2127.95,1337.62 2148.44,1337.62 2168.93,1337.62 2189.43,1337.62 2209.92,1337.62 2230.41,1337.62 2250.91,1337.62 2271.4,1337.62 2291.89,1337.62 
  
  "/>
<polyline clip-path="url(#clip562)" style="stroke:#e26f46; stroke-linecap:butt; stroke-linejoin:round; stroke-width:4; stroke-opacity:1; fill:none" points="
  263.091,1343.28 283.584,1341.56 304.077,1337.72 324.57,1332.21 345.063,1334.22 365.556,1334.36 386.049,1334.37 406.542,1344.27 427.035,1352.1 447.528,1357.52 
  468.021,1356.81 488.514,1362.92 509.007,1364.46 529.5,1362.83 549.993,1371.16 570.485,1374.07 590.978,1377.87 611.471,1386.4 631.964,1380.42 652.457,1381.87 
  672.95,1372.44 693.443,1373.63 713.936,1361.82 734.429,1368.15 754.922,1367.03 775.415,980.706 795.908,897.027 816.401,805.904 836.894,747.523 857.387,687.045 
  877.879,637.135 898.372,588.423 918.865,518.564 939.358,469.509 959.851,425.886 980.344,387.378 1000.84,352.133 1021.33,325.033 1041.82,293.24 1062.32,271.482 
  1082.81,248.985 1103.3,236.881 1123.79,222.357 1144.29,213.223 1164.78,201.355 1185.27,189.087 1205.77,180.329 1226.26,171.29 1246.75,166.145 1267.25,160.256 
  1287.74,167.291 1308.23,170.649 1328.72,180.495 1349.22,189.42 1369.71,201.215 1390.2,213.201 1410.7,222.779 1431.19,236.201 1451.68,250.398 1472.17,272.034 
  1492.67,294.548 1513.16,324.44 1533.65,352.856 1554.15,387.011 1574.64,427.247 1595.13,468.024 1615.63,520.519 1636.12,588.218 1656.61,637.842 1677.1,686.983 
  1697.6,747.679 1718.09,806.233 1738.58,896.418 1759.08,980.971 1779.57,1366.88 1800.06,1366.63 1820.55,1363.23 1841.05,1373.89 1861.54,1371.15 1882.03,1381.81 
  1902.53,1380.1 1923.02,1385.98 1943.51,1378.65 1964,1373.58 1984.5,1370.03 2004.99,1362.6 2025.48,1363.39 2045.98,1362.1 2066.47,1356.77 2086.96,1357.3 
  2107.46,1351.77 2127.95,1343.45 2148.44,1334.98 2168.93,1336.27 2189.43,1332.63 2209.92,1332.87 2230.41,1338.26 2250.91,1341.56 2271.4,1343.96 2291.89,1347.32 
  
  "/>
<path clip-path="url(#clip560)" d="
M1890.46 322.316 L2281.07 322.316 L2281.07 166.796 L1890.46 166.796  Z
  " fill="#ffffff" fill-rule="evenodd" fill-opacity="1"/>
<polyline clip-path="url(#clip560)" style="stroke:#000000; stroke-linecap:butt; stroke-linejoin:round; stroke-width:4; stroke-opacity:1; fill:none" points="
  1890.46,322.316 2281.07,322.316 2281.07,166.796 1890.46,166.796 1890.46,322.316 
  "/>
<polyline clip-path="url(#clip560)" style="stroke:#009af9; stroke-linecap:butt; stroke-linejoin:round; stroke-width:4; stroke-opacity:1; fill:none" points="
  1914.35,218.636 2057.72,218.636 
  "/>
<path clip-path="url(#clip560)" d="M2089.02 202.629 L2089.02 209.99 L2097.8 209.99 L2097.8 213.3 L2089.02 213.3 L2089.02 227.374 Q2089.02 230.545 2089.88 231.448 Q2090.76 232.351 2093.42 232.351 L2097.8 232.351 L2097.8 235.916 L2093.42 235.916 Q2088.49 235.916 2086.62 234.087 Q2084.74 232.235 2084.74 227.374 L2084.74 213.3 L2081.62 213.3 L2081.62 209.99 L2084.74 209.99 L2084.74 202.629 L2089.02 202.629 Z" fill="#000000" fill-rule="evenodd" fill-opacity="1" /><path clip-path="url(#clip560)" d="M2124.95 220.268 L2124.95 235.916 L2120.69 235.916 L2120.69 220.407 Q2120.69 216.726 2119.25 214.897 Q2117.82 213.069 2114.95 213.069 Q2111.5 213.069 2109.51 215.268 Q2107.52 217.467 2107.52 221.263 L2107.52 235.916 L2103.24 235.916 L2103.24 199.897 L2107.52 199.897 L2107.52 214.018 Q2109.05 211.68 2111.11 210.522 Q2113.19 209.365 2115.9 209.365 Q2120.37 209.365 2122.66 212.143 Q2124.95 214.897 2124.95 220.268 Z" fill="#000000" fill-rule="evenodd" fill-opacity="1" /><path clip-path="url(#clip560)" d="M2155.62 221.888 L2155.62 223.971 L2136.04 223.971 Q2136.32 228.369 2138.68 230.684 Q2141.06 232.976 2145.3 232.976 Q2147.75 232.976 2150.04 232.374 Q2152.36 231.772 2154.63 230.569 L2154.63 234.596 Q2152.33 235.568 2149.93 236.078 Q2147.52 236.587 2145.04 236.587 Q2138.84 236.587 2135.2 232.976 Q2131.59 229.365 2131.59 223.207 Q2131.59 216.842 2135.02 213.115 Q2138.47 209.365 2144.3 209.365 Q2149.53 209.365 2152.56 212.745 Q2155.62 216.101 2155.62 221.888 M2151.36 220.638 Q2151.31 217.143 2149.39 215.059 Q2147.5 212.976 2144.35 212.976 Q2140.78 212.976 2138.63 214.99 Q2136.5 217.004 2136.18 220.661 L2151.36 220.638 Z" fill="#000000" fill-rule="evenodd" fill-opacity="1" /><path clip-path="url(#clip560)" d="M2172.66 212.976 Q2169.23 212.976 2167.24 215.661 Q2165.25 218.323 2165.25 222.976 Q2165.25 227.629 2167.22 230.314 Q2169.21 232.976 2172.66 232.976 Q2176.06 232.976 2178.05 230.291 Q2180.04 227.606 2180.04 222.976 Q2180.04 218.37 2178.05 215.684 Q2176.06 212.976 2172.66 212.976 M2172.66 209.365 Q2178.21 209.365 2181.38 212.976 Q2184.56 216.587 2184.56 222.976 Q2184.56 229.342 2181.38 232.976 Q2178.21 236.587 2172.66 236.587 Q2167.08 236.587 2163.91 232.976 Q2160.76 229.342 2160.76 222.976 Q2160.76 216.587 2163.91 212.976 Q2167.08 209.365 2172.66 209.365 Z" fill="#000000" fill-rule="evenodd" fill-opacity="1" /><path clip-path="url(#clip560)" d="M2206.64 213.971 Q2205.92 213.555 2205.06 213.37 Q2204.23 213.161 2203.21 213.161 Q2199.6 213.161 2197.66 215.522 Q2195.74 217.86 2195.74 222.258 L2195.74 235.916 L2191.45 235.916 L2191.45 209.99 L2195.74 209.99 L2195.74 214.018 Q2197.08 211.657 2199.23 210.522 Q2201.38 209.365 2204.46 209.365 Q2204.9 209.365 2205.44 209.434 Q2205.97 209.481 2206.62 209.596 L2206.64 213.971 Z" fill="#000000" fill-rule="evenodd" fill-opacity="1" /><path clip-path="url(#clip560)" d="M2221.89 238.323 Q2220.09 242.953 2218.37 244.365 Q2216.66 245.777 2213.79 245.777 L2210.39 245.777 L2210.39 242.212 L2212.89 242.212 Q2214.65 242.212 2215.62 241.379 Q2216.59 240.545 2217.77 237.443 L2218.54 235.499 L2208.05 209.99 L2212.56 209.99 L2220.67 230.268 L2228.77 209.99 L2233.28 209.99 L2221.89 238.323 Z" fill="#000000" fill-rule="evenodd" fill-opacity="1" /><polyline clip-path="url(#clip560)" style="stroke:#e26f46; stroke-linecap:butt; stroke-linejoin:round; stroke-width:4; stroke-opacity:1; fill:none" points="
  1914.35,270.476 2057.72,270.476 
  "/>
<path clip-path="url(#clip560)" d="M2086.29 257.038 L2086.29 270.024 L2092.17 270.024 Q2095.44 270.024 2097.22 268.335 Q2099 266.645 2099 263.52 Q2099 260.418 2097.22 258.728 Q2095.44 257.038 2092.17 257.038 L2086.29 257.038 M2081.62 253.196 L2092.17 253.196 Q2097.98 253.196 2100.94 255.835 Q2103.93 258.45 2103.93 263.52 Q2103.93 268.635 2100.94 271.251 Q2097.98 273.867 2092.17 273.867 L2086.29 273.867 L2086.29 287.756 L2081.62 287.756 L2081.62 253.196 Z" fill="#000000" fill-rule="evenodd" fill-opacity="1" /><path clip-path="url(#clip560)" d="M2126.59 271.552 Q2128.1 272.061 2129.51 273.728 Q2130.94 275.395 2132.38 278.311 L2137.13 287.756 L2132.1 287.756 L2127.68 278.89 Q2125.97 275.418 2124.35 274.284 Q2122.75 273.149 2119.97 273.149 L2114.88 273.149 L2114.88 287.756 L2110.2 287.756 L2110.2 253.196 L2120.76 253.196 Q2126.69 253.196 2129.6 255.673 Q2132.52 258.149 2132.52 263.149 Q2132.52 266.413 2130.99 268.566 Q2129.49 270.719 2126.59 271.552 M2114.88 257.038 L2114.88 269.307 L2120.76 269.307 Q2124.14 269.307 2125.85 267.756 Q2127.59 266.182 2127.59 263.149 Q2127.59 260.117 2125.85 258.589 Q2124.14 257.038 2120.76 257.038 L2114.88 257.038 Z" fill="#000000" fill-rule="evenodd" fill-opacity="1" /></svg>
