<?xml version="1.0" encoding="utf-8"?>
<svg xmlns="http://www.w3.org/2000/svg" xmlns:xlink="http://www.w3.org/1999/xlink" width="600" height="400" viewBox="0 0 2400 1600">
<defs>
  <clipPath id="clip720">
    <rect x="0" y="0" width="2400" height="1600"/>
  </clipPath>
</defs>
<path clip-path="url(#clip720)" d="
M0 1600 L2400 1600 L2400 0 L0 0  Z
  " fill="#ffffff" fill-rule="evenodd" fill-opacity="1"/>
<defs>
  <clipPath id="clip721">
    <rect x="480" y="0" width="1681" height="1600"/>
  </clipPath>
</defs>
<path clip-path="url(#clip720)" d="
M202.227 1423.18 L2352.76 1423.18 L2352.76 123.472 L202.227 123.472  Z
  " fill="#ffffff" fill-rule="evenodd" fill-opacity="1"/>
<defs>
  <clipPath id="clip722">
    <rect x="202" y="123" width="2152" height="1301"/>
  </clipPath>
</defs>
<polyline clip-path="url(#clip722)" style="stroke:#000000; stroke-linecap:butt; stroke-linejoin:round; stroke-width:2; stroke-opacity:0.1; fill:none" points="
  365.556,1423.18 365.556,123.472 
  "/>
<polyline clip-path="url(#clip722)" style="stroke:#000000; stroke-linecap:butt; stroke-linejoin:round; stroke-width:2; stroke-opacity:0.1; fill:none" points="
  775.415,1423.18 775.415,123.472 
  "/>
<polyline clip-path="url(#clip722)" style="stroke:#000000; stroke-linecap:butt; stroke-linejoin:round; stroke-width:2; stroke-opacity:0.1; fill:none" points="
  1185.27,1423.18 1185.27,123.472 
  "/>
<polyline clip-path="url(#clip722)" style="stroke:#000000; stroke-linecap:butt; stroke-linejoin:round; stroke-width:2; stroke-opacity:0.1; fill:none" points="
  1595.13,1423.18 1595.13,123.472 
  "/>
<polyline clip-path="url(#clip722)" style="stroke:#000000; stroke-linecap:butt; stroke-linejoin:round; stroke-width:2; stroke-opacity:0.1; fill:none" points="
  2004.99,1423.18 2004.99,123.472 
  "/>
<polyline clip-path="url(#clip720)" style="stroke:#000000; stroke-linecap:butt; stroke-linejoin:round; stroke-width:4; stroke-opacity:1; fill:none" points="
  202.227,1423.18 2352.76,1423.18 
  "/>
<polyline clip-path="url(#clip720)" style="stroke:#000000; stroke-linecap:butt; stroke-linejoin:round; stroke-width:4; stroke-opacity:1; fill:none" points="
  365.556,1423.18 365.556,1404.28 
  "/>
<polyline clip-path="url(#clip720)" style="stroke:#000000; stroke-linecap:butt; stroke-linejoin:round; stroke-width:4; stroke-opacity:1; fill:none" points="
  775.415,1423.18 775.415,1404.28 
  "/>
<polyline clip-path="url(#clip720)" style="stroke:#000000; stroke-linecap:butt; stroke-linejoin:round; stroke-width:4; stroke-opacity:1; fill:none" points="
  1185.27,1423.18 1185.27,1404.28 
  "/>
<polyline clip-path="url(#clip720)" style="stroke:#000000; stroke-linecap:butt; stroke-linejoin:round; stroke-width:4; stroke-opacity:1; fill:none" points="
  1595.13,1423.18 1595.13,1404.28 
  "/>
<polyline clip-path="url(#clip720)" style="stroke:#000000; stroke-linecap:butt; stroke-linejoin:round; stroke-width:4; stroke-opacity:1; fill:none" points="
  2004.99,1423.18 2004.99,1404.28 
  "/>
<path clip-path="url(#clip720)" d="M325.603 1484.86 L325.603 1480.6 Q327.362 1481.44 329.167 1481.88 Q330.973 1482.32 332.709 1482.32 Q337.339 1482.32 339.769 1479.21 Q342.223 1476.09 342.57 1469.75 Q341.228 1471.74 339.167 1472.8 Q337.107 1473.87 334.607 1473.87 Q329.422 1473.87 326.39 1470.74 Q323.38 1467.59 323.38 1462.15 Q323.38 1456.83 326.529 1453.61 Q329.677 1450.39 334.908 1450.39 Q340.904 1450.39 344.052 1455 Q347.223 1459.58 347.223 1468.33 Q347.223 1476.51 343.334 1481.39 Q339.468 1486.25 332.917 1486.25 Q331.158 1486.25 329.353 1485.9 Q327.547 1485.56 325.603 1484.86 M334.908 1470.21 Q338.056 1470.21 339.885 1468.06 Q341.737 1465.9 341.737 1462.15 Q341.737 1458.43 339.885 1456.27 Q338.056 1454.1 334.908 1454.1 Q331.76 1454.1 329.908 1456.27 Q328.079 1458.43 328.079 1462.15 Q328.079 1465.9 329.908 1468.06 Q331.76 1470.21 334.908 1470.21 Z" fill="#000000" fill-rule="evenodd" fill-opacity="1" /><path clip-path="url(#clip720)" d="M365.626 1469.17 Q362.292 1469.17 360.371 1470.95 Q358.473 1472.73 358.473 1475.86 Q358.473 1478.98 360.371 1480.77 Q362.292 1482.55 365.626 1482.55 Q368.959 1482.55 370.88 1480.77 Q372.801 1478.96 372.801 1475.86 Q372.801 1472.73 370.88 1470.95 Q368.982 1469.17 365.626 1469.17 M360.95 1467.18 Q357.94 1466.44 356.251 1464.38 Q354.584 1462.32 354.584 1459.35 Q354.584 1455.21 357.524 1452.8 Q360.487 1450.39 365.626 1450.39 Q370.788 1450.39 373.727 1452.8 Q376.667 1455.21 376.667 1459.35 Q376.667 1462.32 374.977 1464.38 Q373.311 1466.44 370.325 1467.18 Q373.704 1467.96 375.579 1470.26 Q377.477 1472.55 377.477 1475.86 Q377.477 1480.88 374.399 1483.57 Q371.343 1486.25 365.626 1486.25 Q359.908 1486.25 356.829 1483.57 Q353.774 1480.88 353.774 1475.86 Q353.774 1472.55 355.672 1470.26 Q357.57 1467.96 360.95 1467.18 M359.237 1459.79 Q359.237 1462.48 360.903 1463.98 Q362.593 1465.49 365.626 1465.49 Q368.635 1465.49 370.325 1463.98 Q372.038 1462.48 372.038 1459.79 Q372.038 1457.11 370.325 1455.6 Q368.635 1454.1 365.626 1454.1 Q362.593 1454.1 360.903 1455.6 Q359.237 1457.11 359.237 1459.79 Z" fill="#000000" fill-rule="evenodd" fill-opacity="1" /><path clip-path="url(#clip720)" d="M395.787 1454.1 Q392.176 1454.1 390.348 1457.66 Q388.542 1461.2 388.542 1468.33 Q388.542 1475.44 390.348 1479.01 Q392.176 1482.55 395.787 1482.55 Q399.422 1482.55 401.227 1479.01 Q403.056 1475.44 403.056 1468.33 Q403.056 1461.2 401.227 1457.66 Q399.422 1454.1 395.787 1454.1 M395.787 1450.39 Q401.598 1450.39 404.653 1455 Q407.732 1459.58 407.732 1468.33 Q407.732 1477.06 404.653 1481.67 Q401.598 1486.25 395.787 1486.25 Q389.977 1486.25 386.899 1481.67 Q383.843 1477.06 383.843 1468.33 Q383.843 1459.58 386.899 1455 Q389.977 1450.39 395.787 1450.39 Z" fill="#000000" fill-rule="evenodd" fill-opacity="1" /><path clip-path="url(#clip720)" d="M719.941 1481.64 L727.579 1481.64 L727.579 1455.28 L719.269 1456.95 L719.269 1452.69 L727.533 1451.02 L732.209 1451.02 L732.209 1481.64 L739.848 1481.64 L739.848 1485.58 L719.941 1485.58 L719.941 1481.64 Z" fill="#000000" fill-rule="evenodd" fill-opacity="1" /><path clip-path="url(#clip720)" d="M759.292 1454.1 Q755.681 1454.1 753.852 1457.66 Q752.047 1461.2 752.047 1468.33 Q752.047 1475.44 753.852 1479.01 Q755.681 1482.55 759.292 1482.55 Q762.926 1482.55 764.732 1479.01 Q766.561 1475.44 766.561 1468.33 Q766.561 1461.2 764.732 1457.66 Q762.926 1454.1 759.292 1454.1 M759.292 1450.39 Q765.102 1450.39 768.158 1455 Q771.237 1459.58 771.237 1468.33 Q771.237 1477.06 768.158 1481.67 Q765.102 1486.25 759.292 1486.25 Q753.482 1486.25 750.403 1481.67 Q747.348 1477.06 747.348 1468.33 Q747.348 1459.58 750.403 1455 Q753.482 1450.39 759.292 1450.39 Z" fill="#000000" fill-rule="evenodd" fill-opacity="1" /><path clip-path="url(#clip720)" d="M789.454 1454.1 Q785.843 1454.1 784.014 1457.66 Q782.209 1461.2 782.209 1468.33 Q782.209 1475.44 784.014 1479.01 Q785.843 1482.55 789.454 1482.55 Q793.088 1482.55 794.894 1479.01 Q796.723 1475.44 796.723 1468.33 Q796.723 1461.2 794.894 1457.66 Q793.088 1454.1 789.454 1454.1 M789.454 1450.39 Q795.264 1450.39 798.32 1455 Q801.398 1459.58 801.398 1468.33 Q801.398 1477.06 798.32 1481.67 Q795.264 1486.25 789.454 1486.25 Q783.644 1486.25 780.565 1481.67 Q777.51 1477.06 777.51 1468.33 Q777.51 1459.58 780.565 1455 Q783.644 1450.39 789.454 1450.39 Z" fill="#000000" fill-rule="evenodd" fill-opacity="1" /><path clip-path="url(#clip720)" d="M819.616 1454.1 Q816.005 1454.1 814.176 1457.66 Q812.371 1461.2 812.371 1468.33 Q812.371 1475.44 814.176 1479.01 Q816.005 1482.55 819.616 1482.55 Q823.25 1482.55 825.056 1479.01 Q826.884 1475.44 826.884 1468.33 Q826.884 1461.2 825.056 1457.66 Q823.25 1454.1 819.616 1454.1 M819.616 1450.39 Q825.426 1450.39 828.482 1455 Q831.56 1459.58 831.56 1468.33 Q831.56 1477.06 828.482 1481.67 Q825.426 1486.25 819.616 1486.25 Q813.806 1486.25 810.727 1481.67 Q807.672 1477.06 807.672 1468.33 Q807.672 1459.58 810.727 1455 Q813.806 1450.39 819.616 1450.39 Z" fill="#000000" fill-rule="evenodd" fill-opacity="1" /><path clip-path="url(#clip720)" d="M1129.8 1481.64 L1137.44 1481.64 L1137.44 1455.28 L1129.13 1456.95 L1129.13 1452.69 L1137.39 1451.02 L1142.07 1451.02 L1142.07 1481.64 L1149.71 1481.64 L1149.71 1485.58 L1129.8 1485.58 L1129.8 1481.64 Z" fill="#000000" fill-rule="evenodd" fill-opacity="1" /><path clip-path="url(#clip720)" d="M1169.15 1454.1 Q1165.54 1454.1 1163.71 1457.66 Q1161.91 1461.2 1161.91 1468.33 Q1161.91 1475.44 1163.71 1479.01 Q1165.54 1482.55 1169.15 1482.55 Q1172.79 1482.55 1174.59 1479.01 Q1176.42 1475.44 1176.42 1468.33 Q1176.42 1461.2 1174.59 1457.66 Q1172.79 1454.1 1169.15 1454.1 M1169.15 1450.39 Q1174.96 1450.39 1178.02 1455 Q1181.1 1459.58 1181.1 1468.33 Q1181.1 1477.06 1178.02 1481.67 Q1174.96 1486.25 1169.15 1486.25 Q1163.34 1486.25 1160.26 1481.67 Q1157.21 1477.06 1157.21 1468.33 Q1157.21 1459.58 1160.26 1455 Q1163.34 1450.39 1169.15 1450.39 Z" fill="#000000" fill-rule="evenodd" fill-opacity="1" /><path clip-path="url(#clip720)" d="M1193.34 1481.64 L1209.66 1481.64 L1209.66 1485.58 L1187.72 1485.58 L1187.72 1481.64 Q1190.38 1478.89 1194.96 1474.26 Q1199.57 1469.61 1200.75 1468.27 Q1202.99 1465.74 1203.87 1464.01 Q1204.78 1462.25 1204.78 1460.56 Q1204.78 1457.8 1202.83 1456.07 Q1200.91 1454.33 1197.81 1454.33 Q1195.61 1454.33 1193.16 1455.09 Q1190.72 1455.86 1187.95 1457.41 L1187.95 1452.69 Q1190.77 1451.55 1193.22 1450.97 Q1195.68 1450.39 1197.72 1450.39 Q1203.09 1450.39 1206.28 1453.08 Q1209.47 1455.77 1209.47 1460.26 Q1209.47 1462.39 1208.66 1464.31 Q1207.88 1466.2 1205.77 1468.8 Q1205.19 1469.47 1202.09 1472.69 Q1198.99 1475.88 1193.34 1481.64 Z" fill="#000000" fill-rule="evenodd" fill-opacity="1" /><path clip-path="url(#clip720)" d="M1229.47 1454.1 Q1225.86 1454.1 1224.03 1457.66 Q1222.23 1461.2 1222.23 1468.33 Q1222.23 1475.44 1224.03 1479.01 Q1225.86 1482.55 1229.47 1482.55 Q1233.11 1482.55 1234.91 1479.01 Q1236.74 1475.44 1236.74 1468.33 Q1236.74 1461.2 1234.91 1457.66 Q1233.11 1454.1 1229.47 1454.1 M1229.47 1450.39 Q1235.28 1450.39 1238.34 1455 Q1241.42 1459.58 1241.42 1468.33 Q1241.42 1477.06 1238.34 1481.67 Q1235.28 1486.25 1229.47 1486.25 Q1223.66 1486.25 1220.59 1481.67 Q1217.53 1477.06 1217.53 1468.33 Q1217.53 1459.58 1220.59 1455 Q1223.66 1450.39 1229.47 1450.39 Z" fill="#000000" fill-rule="evenodd" fill-opacity="1" /><path clip-path="url(#clip720)" d="M1539.66 1481.64 L1547.3 1481.64 L1547.3 1455.28 L1538.99 1456.95 L1538.99 1452.69 L1547.25 1451.02 L1551.93 1451.02 L1551.93 1481.64 L1559.57 1481.64 L1559.57 1485.58 L1539.66 1485.58 L1539.66 1481.64 Z" fill="#000000" fill-rule="evenodd" fill-opacity="1" /><path clip-path="url(#clip720)" d="M1579.01 1454.1 Q1575.4 1454.1 1573.57 1457.66 Q1571.76 1461.2 1571.76 1468.33 Q1571.76 1475.44 1573.57 1479.01 Q1575.4 1482.55 1579.01 1482.55 Q1582.64 1482.55 1584.45 1479.01 Q1586.28 1475.44 1586.28 1468.33 Q1586.28 1461.2 1584.45 1457.66 Q1582.64 1454.1 1579.01 1454.1 M1579.01 1450.39 Q1584.82 1450.39 1587.88 1455 Q1590.95 1459.58 1590.95 1468.33 Q1590.95 1477.06 1587.88 1481.67 Q1584.82 1486.25 1579.01 1486.25 Q1573.2 1486.25 1570.12 1481.67 Q1567.07 1477.06 1567.07 1468.33 Q1567.07 1459.58 1570.12 1455 Q1573.2 1450.39 1579.01 1450.39 Z" fill="#000000" fill-rule="evenodd" fill-opacity="1" /><path clip-path="url(#clip720)" d="M1612.02 1455.09 L1600.21 1473.54 L1612.02 1473.54 L1612.02 1455.09 M1610.79 1451.02 L1616.67 1451.02 L1616.67 1473.54 L1621.6 1473.54 L1621.6 1477.43 L1616.67 1477.43 L1616.67 1485.58 L1612.02 1485.58 L1612.02 1477.43 L1596.42 1477.43 L1596.42 1472.92 L1610.79 1451.02 Z" fill="#000000" fill-rule="evenodd" fill-opacity="1" /><path clip-path="url(#clip720)" d="M1639.33 1454.1 Q1635.72 1454.1 1633.89 1457.66 Q1632.09 1461.2 1632.09 1468.33 Q1632.09 1475.44 1633.89 1479.01 Q1635.72 1482.55 1639.33 1482.55 Q1642.97 1482.55 1644.77 1479.01 Q1646.6 1475.44 1646.6 1468.33 Q1646.6 1461.2 1644.77 1457.66 Q1642.97 1454.1 1639.33 1454.1 M1639.33 1450.39 Q1645.14 1450.39 1648.2 1455 Q1651.28 1459.58 1651.28 1468.33 Q1651.28 1477.06 1648.2 1481.67 Q1645.14 1486.25 1639.33 1486.25 Q1633.52 1486.25 1630.44 1481.67 Q1627.39 1477.06 1627.39 1468.33 Q1627.39 1459.58 1630.44 1455 Q1633.52 1450.39 1639.33 1450.39 Z" fill="#000000" fill-rule="evenodd" fill-opacity="1" /><path clip-path="url(#clip720)" d="M1949.52 1481.64 L1957.16 1481.64 L1957.16 1455.28 L1948.85 1456.95 L1948.85 1452.69 L1957.11 1451.02 L1961.79 1451.02 L1961.79 1481.64 L1969.42 1481.64 L1969.42 1485.58 L1949.52 1485.58 L1949.52 1481.64 Z" fill="#000000" fill-rule="evenodd" fill-opacity="1" /><path clip-path="url(#clip720)" d="M1988.87 1454.1 Q1985.26 1454.1 1983.43 1457.66 Q1981.62 1461.2 1981.62 1468.33 Q1981.62 1475.44 1983.43 1479.01 Q1985.26 1482.55 1988.87 1482.55 Q1992.5 1482.55 1994.31 1479.01 Q1996.14 1475.44 1996.14 1468.33 Q1996.14 1461.2 1994.31 1457.66 Q1992.5 1454.1 1988.87 1454.1 M1988.87 1450.39 Q1994.68 1450.39 1997.73 1455 Q2000.81 1459.58 2000.81 1468.33 Q2000.81 1477.06 1997.73 1481.67 Q1994.68 1486.25 1988.87 1486.25 Q1983.06 1486.25 1979.98 1481.67 Q1976.92 1477.06 1976.92 1468.33 Q1976.92 1459.58 1979.98 1455 Q1983.06 1450.39 1988.87 1450.39 Z" fill="#000000" fill-rule="evenodd" fill-opacity="1" /><path clip-path="url(#clip720)" d="M2019.61 1466.44 Q2016.46 1466.44 2014.61 1468.59 Q2012.78 1470.74 2012.78 1474.49 Q2012.78 1478.22 2014.61 1480.39 Q2016.46 1482.55 2019.61 1482.55 Q2022.76 1482.55 2024.59 1480.39 Q2026.44 1478.22 2026.44 1474.49 Q2026.44 1470.74 2024.59 1468.59 Q2022.76 1466.44 2019.61 1466.44 M2028.89 1451.78 L2028.89 1456.04 Q2027.13 1455.21 2025.33 1454.77 Q2023.54 1454.33 2021.78 1454.33 Q2017.16 1454.33 2014.7 1457.45 Q2012.27 1460.58 2011.92 1466.9 Q2013.29 1464.89 2015.35 1463.82 Q2017.41 1462.73 2019.89 1462.73 Q2025.09 1462.73 2028.1 1465.9 Q2031.14 1469.05 2031.14 1474.49 Q2031.14 1479.82 2027.99 1483.03 Q2024.84 1486.25 2019.61 1486.25 Q2013.61 1486.25 2010.44 1481.67 Q2007.27 1477.06 2007.27 1468.33 Q2007.27 1460.14 2011.16 1455.28 Q2015.05 1450.39 2021.6 1450.39 Q2023.36 1450.39 2025.14 1450.74 Q2026.95 1451.09 2028.89 1451.78 Z" fill="#000000" fill-rule="evenodd" fill-opacity="1" /><path clip-path="url(#clip720)" d="M2049.19 1454.1 Q2045.58 1454.1 2043.75 1457.66 Q2041.95 1461.2 2041.95 1468.33 Q2041.95 1475.44 2043.75 1479.01 Q2045.58 1482.55 2049.19 1482.55 Q2052.83 1482.55 2054.63 1479.01 Q2056.46 1475.44 2056.46 1468.33 Q2056.46 1461.2 2054.63 1457.66 Q2052.83 1454.1 2049.19 1454.1 M2049.19 1450.39 Q2055 1450.39 2058.06 1455 Q2061.14 1459.58 2061.14 1468.33 Q2061.14 1477.06 2058.06 1481.67 Q2055 1486.25 2049.19 1486.25 Q2043.38 1486.25 2040.3 1481.67 Q2037.25 1477.06 2037.25 1468.33 Q2037.25 1459.58 2040.3 1455 Q2043.38 1450.39 2049.19 1450.39 Z" fill="#000000" fill-rule="evenodd" fill-opacity="1" /><path clip-path="url(#clip720)" d="M1165.93 1532.4 L1153.04 1549.74 L1166.6 1568.04 L1159.69 1568.04 L1149.32 1554.04 L1138.94 1568.04 L1132.04 1568.04 L1145.88 1549.39 L1133.21 1532.4 L1140.12 1532.4 L1149.57 1545.1 L1159.03 1532.4 L1165.93 1532.4 Z" fill="#000000" fill-rule="evenodd" fill-opacity="1" /><path clip-path="url(#clip720)" d="M1195.06 1518.52 L1208.55 1518.52 L1208.55 1523.07 L1200.91 1523.07 L1200.91 1572.09 L1208.55 1572.09 L1208.55 1576.64 L1195.06 1576.64 L1195.06 1518.52 Z" fill="#000000" fill-rule="evenodd" fill-opacity="1" /><path clip-path="url(#clip720)" d="M1226.69 1562.7 L1226.69 1581.6 L1220.81 1581.6 L1220.81 1532.4 L1226.69 1532.4 L1226.69 1537.81 Q1228.54 1534.62 1231.34 1533.1 Q1234.17 1531.54 1238.09 1531.54 Q1244.58 1531.54 1248.62 1536.69 Q1252.7 1541.85 1252.7 1550.25 Q1252.7 1558.65 1248.62 1563.81 Q1244.58 1568.97 1238.09 1568.97 Q1234.17 1568.97 1231.34 1567.44 Q1228.54 1565.88 1226.69 1562.7 M1246.62 1550.25 Q1246.62 1543.79 1243.94 1540.13 Q1241.3 1536.44 1236.66 1536.44 Q1232.01 1536.44 1229.34 1540.13 Q1226.69 1543.79 1226.69 1550.25 Q1226.69 1556.71 1229.34 1560.4 Q1232.01 1564.07 1236.66 1564.07 Q1241.3 1564.07 1243.94 1560.4 Q1246.62 1556.71 1246.62 1550.25 Z" fill="#000000" fill-rule="evenodd" fill-opacity="1" /><path clip-path="url(#clip720)" d="M1262.4 1532.4 L1268.26 1532.4 L1268.26 1568.04 L1262.4 1568.04 L1262.4 1532.4 M1262.4 1518.52 L1268.26 1518.52 L1268.26 1525.93 L1262.4 1525.93 L1262.4 1518.52 Z" fill="#000000" fill-rule="evenodd" fill-opacity="1" /><path clip-path="url(#clip720)" d="M1310.15 1532.4 L1297.26 1549.74 L1310.82 1568.04 L1303.91 1568.04 L1293.53 1554.04 L1283.16 1568.04 L1276.25 1568.04 L1290.1 1549.39 L1277.43 1532.4 L1284.33 1532.4 L1293.79 1545.1 L1303.24 1532.4 L1310.15 1532.4 Z" fill="#000000" fill-rule="evenodd" fill-opacity="1" /><path clip-path="url(#clip720)" d="M1347.58 1548.76 L1347.58 1551.62 L1320.65 1551.62 Q1321.03 1557.67 1324.28 1560.85 Q1327.56 1564 1333.38 1564 Q1336.76 1564 1339.91 1563.17 Q1343.09 1562.35 1346.21 1560.69 L1346.21 1566.23 Q1343.06 1567.57 1339.75 1568.27 Q1336.44 1568.97 1333.03 1568.97 Q1324.5 1568.97 1319.51 1564 Q1314.54 1559.04 1314.54 1550.57 Q1314.54 1541.82 1319.25 1536.69 Q1323.99 1531.54 1332.01 1531.54 Q1339.21 1531.54 1343.38 1536.18 Q1347.58 1540.8 1347.58 1548.76 M1341.72 1547.04 Q1341.66 1542.23 1339.02 1539.37 Q1336.41 1536.5 1332.08 1536.5 Q1327.18 1536.5 1324.22 1539.27 Q1321.29 1542.04 1320.84 1547.07 L1341.72 1547.04 Z" fill="#000000" fill-rule="evenodd" fill-opacity="1" /><path clip-path="url(#clip720)" d="M1357.19 1518.52 L1363.05 1518.52 L1363.05 1568.04 L1357.19 1568.04 L1357.19 1518.52 Z" fill="#000000" fill-rule="evenodd" fill-opacity="1" /><path clip-path="url(#clip720)" d="M1398.03 1533.45 L1398.03 1538.98 Q1395.54 1537.71 1392.87 1537.07 Q1390.2 1536.44 1387.33 1536.44 Q1382.97 1536.44 1380.78 1537.77 Q1378.61 1539.11 1378.61 1541.79 Q1378.61 1543.82 1380.17 1545 Q1381.73 1546.15 1386.44 1547.2 L1388.45 1547.64 Q1394.68 1548.98 1397.29 1551.43 Q1399.94 1553.85 1399.94 1558.21 Q1399.94 1563.17 1395.99 1566.07 Q1392.07 1568.97 1385.2 1568.97 Q1382.33 1568.97 1379.22 1568.39 Q1376.13 1567.85 1372.69 1566.74 L1372.69 1560.69 Q1375.94 1562.38 1379.09 1563.24 Q1382.24 1564.07 1385.33 1564.07 Q1389.46 1564.07 1391.69 1562.66 Q1393.92 1561.23 1393.92 1558.65 Q1393.92 1556.27 1392.3 1554.99 Q1390.71 1553.72 1385.26 1552.54 L1383.23 1552.07 Q1377.78 1550.92 1375.36 1548.56 Q1372.95 1546.18 1372.95 1542.04 Q1372.95 1537.01 1376.51 1534.27 Q1380.08 1531.54 1386.63 1531.54 Q1389.88 1531.54 1392.74 1532.01 Q1395.61 1532.49 1398.03 1533.45 Z" fill="#000000" fill-rule="evenodd" fill-opacity="1" /><path clip-path="url(#clip720)" d="M1422.95 1518.52 L1422.95 1576.64 L1409.45 1576.64 L1409.45 1572.09 L1417.06 1572.09 L1417.06 1523.07 L1409.45 1523.07 L1409.45 1518.52 L1422.95 1518.52 Z" fill="#000000" fill-rule="evenodd" fill-opacity="1" /><polyline clip-path="url(#clip722)" style="stroke:#000000; stroke-linecap:butt; stroke-linejoin:round; stroke-width:2; stroke-opacity:0.1; fill:none" points="
  202.227,1386.4 2352.76,1386.4 
  "/>
<polyline clip-path="url(#clip722)" style="stroke:#000000; stroke-linecap:butt; stroke-linejoin:round; stroke-width:2; stroke-opacity:0.1; fill:none" points="
  202.227,989.323 2352.76,989.323 
  "/>
<polyline clip-path="url(#clip722)" style="stroke:#000000; stroke-linecap:butt; stroke-linejoin:round; stroke-width:2; stroke-opacity:0.1; fill:none" points="
  202.227,592.251 2352.76,592.251 
  "/>
<polyline clip-path="url(#clip722)" style="stroke:#000000; stroke-linecap:butt; stroke-linejoin:round; stroke-width:2; stroke-opacity:0.1; fill:none" points="
  202.227,195.178 2352.76,195.178 
  "/>
<polyline clip-path="url(#clip720)" style="stroke:#000000; stroke-linecap:butt; stroke-linejoin:round; stroke-width:4; stroke-opacity:1; fill:none" points="
  202.227,1423.18 202.227,123.472 
  "/>
<polyline clip-path="url(#clip720)" style="stroke:#000000; stroke-linecap:butt; stroke-linejoin:round; stroke-width:4; stroke-opacity:1; fill:none" points="
  202.227,1386.4 221.125,1386.4 
  "/>
<polyline clip-path="url(#clip720)" style="stroke:#000000; stroke-linecap:butt; stroke-linejoin:round; stroke-width:4; stroke-opacity:1; fill:none" points="
  202.227,989.323 221.125,989.323 
  "/>
<polyline clip-path="url(#clip720)" style="stroke:#000000; stroke-linecap:butt; stroke-linejoin:round; stroke-width:4; stroke-opacity:1; fill:none" points="
  202.227,592.251 221.125,592.251 
  "/>
<polyline clip-path="url(#clip720)" style="stroke:#000000; stroke-linecap:butt; stroke-linejoin:round; stroke-width:4; stroke-opacity:1; fill:none" points="
  202.227,195.178 221.125,195.178 
  "/>
<path clip-path="url(#clip720)" d="M154.283 1372.19 Q150.672 1372.19 148.843 1375.76 Q147.038 1379.3 147.038 1386.43 Q147.038 1393.54 148.843 1397.1 Q150.672 1400.64 154.283 1400.64 Q157.917 1400.64 159.723 1397.1 Q161.552 1393.54 161.552 1386.43 Q161.552 1379.3 159.723 1375.76 Q157.917 1372.19 154.283 1372.19 M154.283 1368.49 Q160.093 1368.49 163.149 1373.1 Q166.227 1377.68 166.227 1386.43 Q166.227 1395.16 163.149 1399.76 Q160.093 1404.35 154.283 1404.35 Q148.473 1404.35 145.394 1399.76 Q142.339 1395.16 142.339 1386.43 Q142.339 1377.68 145.394 1373.1 Q148.473 1368.49 154.283 1368.49 Z" fill="#000000" fill-rule="evenodd" fill-opacity="1" /><path clip-path="url(#clip720)" d="M145.325 972.043 L163.681 972.043 L163.681 975.978 L149.607 975.978 L149.607 984.451 Q150.626 984.103 151.644 983.941 Q152.663 983.756 153.681 983.756 Q159.468 983.756 162.848 986.927 Q166.227 990.099 166.227 995.515 Q166.227 1001.09 162.755 1004.2 Q159.283 1007.27 152.964 1007.27 Q150.788 1007.27 148.519 1006.9 Q146.274 1006.53 143.866 1005.79 L143.866 1001.09 Q145.95 1002.23 148.172 1002.78 Q150.394 1003.34 152.871 1003.34 Q156.876 1003.34 159.214 1001.23 Q161.552 999.126 161.552 995.515 Q161.552 991.904 159.214 989.798 Q156.876 987.691 152.871 987.691 Q150.996 987.691 149.121 988.108 Q147.269 988.525 145.325 989.404 L145.325 972.043 Z" fill="#000000" fill-rule="evenodd" fill-opacity="1" /><path clip-path="url(#clip720)" d="M114.931 605.596 L122.57 605.596 L122.57 579.23 L114.26 580.897 L114.26 576.637 L122.524 574.971 L127.2 574.971 L127.2 605.596 L134.839 605.596 L134.839 609.531 L114.931 609.531 L114.931 605.596 Z" fill="#000000" fill-rule="evenodd" fill-opacity="1" /><path clip-path="url(#clip720)" d="M154.283 578.049 Q150.672 578.049 148.843 581.614 Q147.038 585.156 147.038 592.285 Q147.038 599.392 148.843 602.957 Q150.672 606.498 154.283 606.498 Q157.917 606.498 159.723 602.957 Q161.552 599.392 161.552 592.285 Q161.552 585.156 159.723 581.614 Q157.917 578.049 154.283 578.049 M154.283 574.346 Q160.093 574.346 163.149 578.952 Q166.227 583.535 166.227 592.285 Q166.227 601.012 163.149 605.619 Q160.093 610.202 154.283 610.202 Q148.473 610.202 145.394 605.619 Q142.339 601.012 142.339 592.285 Q142.339 583.535 145.394 578.952 Q148.473 574.346 154.283 574.346 Z" fill="#000000" fill-rule="evenodd" fill-opacity="1" /><path clip-path="url(#clip720)" d="M115.927 208.523 L123.566 208.523 L123.566 182.157 L115.256 183.824 L115.256 179.565 L123.519 177.898 L128.195 177.898 L128.195 208.523 L135.834 208.523 L135.834 212.458 L115.927 212.458 L115.927 208.523 Z" fill="#000000" fill-rule="evenodd" fill-opacity="1" /><path clip-path="url(#clip720)" d="M145.325 177.898 L163.681 177.898 L163.681 181.833 L149.607 181.833 L149.607 190.306 Q150.626 189.958 151.644 189.796 Q152.663 189.611 153.681 189.611 Q159.468 189.611 162.848 192.782 Q166.227 195.954 166.227 201.37 Q166.227 206.949 162.755 210.051 Q159.283 213.129 152.964 213.129 Q150.788 213.129 148.519 212.759 Q146.274 212.389 143.866 211.648 L143.866 206.949 Q145.95 208.083 148.172 208.639 Q150.394 209.194 152.871 209.194 Q156.876 209.194 159.214 207.088 Q161.552 204.981 161.552 201.37 Q161.552 197.759 159.214 195.653 Q156.876 193.546 152.871 193.546 Q150.996 193.546 149.121 193.963 Q147.269 194.38 145.325 195.259 L145.325 177.898 Z" fill="#000000" fill-rule="evenodd" fill-opacity="1" /><path clip-path="url(#clip720)" d="M21.7677 948.065 L39.6235 948.065 L39.6235 939.98 Q39.6235 935.492 37.3 933.042 Q34.9765 930.591 30.6797 930.591 Q26.4147 930.591 24.0912 933.042 Q21.7677 935.492 21.7677 939.98 L21.7677 948.065 M16.4842 954.494 L16.4842 939.98 Q16.4842 931.991 20.1126 927.917 Q23.7092 923.811 30.6797 923.811 Q37.7138 923.811 41.3104 927.917 Q44.907 931.991 44.907 939.98 L44.907 948.065 L64.0042 948.065 L64.0042 954.494 L16.4842 954.494 Z" fill="#000000" fill-rule="evenodd" fill-opacity="1" /><path clip-path="url(#clip720)" d="M42.4881 885.808 L64.0042 885.808 L64.0042 891.664 L42.679 891.664 Q37.6183 891.664 35.1038 893.638 Q32.5894 895.611 32.5894 899.558 Q32.5894 904.3 35.6131 907.038 Q38.6368 909.775 43.8567 909.775 L64.0042 909.775 L64.0042 915.663 L14.479 915.663 L14.479 909.775 L33.8944 909.775 Q30.6797 907.674 29.0883 904.841 Q27.4968 901.977 27.4968 898.253 Q27.4968 892.11 31.3163 888.959 Q35.1038 885.808 42.4881 885.808 Z" fill="#000000" fill-rule="evenodd" fill-opacity="1" /><path clip-path="url(#clip720)" d="M46.0847 857.926 Q46.0847 865.024 47.7079 867.761 Q49.3312 870.498 53.2461 870.498 Q56.3653 870.498 58.2114 868.461 Q60.0256 866.393 60.0256 862.86 Q60.0256 857.99 56.5881 855.062 Q53.1188 852.102 47.3897 852.102 L46.0847 852.102 L46.0847 857.926 M43.6657 846.245 L64.0042 846.245 L64.0042 852.102 L58.5933 852.102 Q61.8398 854.107 63.3994 857.099 Q64.9272 860.091 64.9272 864.419 Q64.9272 869.894 61.8716 873.14 Q58.7843 876.355 53.6281 876.355 Q47.6125 876.355 44.5569 872.345 Q41.5014 868.302 41.5014 860.313 L41.5014 852.102 L40.9285 852.102 Q36.8862 852.102 34.6901 854.775 Q32.4621 857.417 32.4621 862.223 Q32.4621 865.279 33.1941 868.175 Q33.9262 871.071 35.3903 873.745 L29.9795 873.745 Q28.7381 870.53 28.1334 867.507 Q27.4968 864.483 27.4968 861.618 Q27.4968 853.884 31.5072 850.065 Q35.5176 846.245 43.6657 846.245 Z" fill="#000000" fill-rule="evenodd" fill-opacity="1" /><path clip-path="url(#clip720)" d="M29.4065 811.457 L34.9447 811.457 Q33.6716 813.939 33.035 816.613 Q32.3984 819.286 32.3984 822.151 Q32.3984 826.511 33.7352 828.708 Q35.072 830.872 37.7456 830.872 Q39.7826 830.872 40.9603 829.312 Q42.1061 827.753 43.1565 823.042 L43.6021 821.037 Q44.9389 814.799 47.3897 812.189 Q49.8086 809.547 54.1691 809.547 Q59.1344 809.547 62.0308 813.494 Q64.9272 817.409 64.9272 824.283 Q64.9272 827.148 64.3543 830.267 Q63.8132 833.355 62.6992 836.792 L56.6518 836.792 Q58.3387 833.546 59.198 830.395 Q60.0256 827.244 60.0256 824.156 Q60.0256 820.018 58.6251 817.79 Q57.1929 815.562 54.6147 815.562 Q52.2276 815.562 50.9545 817.186 Q49.6813 818.777 48.5037 824.22 L48.0262 826.257 Q46.8804 831.7 44.5251 834.118 Q42.138 836.537 38.0002 836.537 Q32.9713 836.537 30.2341 832.973 Q27.4968 829.408 27.4968 822.851 Q27.4968 819.605 27.9743 816.74 Q28.4517 813.876 29.4065 811.457 Z" fill="#000000" fill-rule="evenodd" fill-opacity="1" /><path clip-path="url(#clip720)" d="M44.7161 769.729 L47.5806 769.729 L47.5806 796.656 Q53.6281 796.274 56.8109 793.028 Q59.9619 789.75 59.9619 783.925 Q59.9619 780.551 59.1344 777.4 Q58.3069 774.217 56.6518 771.098 L62.1899 771.098 Q63.5267 774.249 64.227 777.559 Q64.9272 780.869 64.9272 784.275 Q64.9272 792.805 59.9619 797.802 Q54.9967 802.767 46.5303 802.767 Q37.7774 802.767 32.6531 798.057 Q27.4968 793.314 27.4968 785.294 Q27.4968 778.1 32.1438 773.931 Q36.7589 769.729 44.7161 769.729 M42.9973 775.586 Q38.1912 775.649 35.3266 778.291 Q32.4621 780.901 32.4621 785.23 Q32.4621 790.131 35.2312 793.092 Q38.0002 796.02 43.0292 796.465 L42.9973 775.586 Z" fill="#000000" fill-rule="evenodd" fill-opacity="1" /><path clip-path="url(#clip720)" d="M14.479 739.938 L14.479 726.443 L19.0304 726.443 L19.0304 734.081 L68.0464 734.081 L68.0464 726.443 L72.5979 726.443 L72.5979 739.938 L14.479 739.938 Z" fill="#000000" fill-rule="evenodd" fill-opacity="1" /><path clip-path="url(#clip720)" d="M33.8307 693.309 Q33.2578 694.296 33.0032 695.473 Q32.7167 696.619 32.7167 698.02 Q32.7167 702.985 35.9632 705.659 Q39.1779 708.3 45.2253 708.3 L64.0042 708.3 L64.0042 714.189 L28.3562 714.189 L28.3562 708.3 L33.8944 708.3 Q30.6479 706.454 29.0883 703.494 Q27.4968 700.534 27.4968 696.301 Q27.4968 695.696 27.5923 694.964 Q27.656 694.232 27.8151 693.341 L33.8307 693.309 Z" fill="#000000" fill-rule="evenodd" fill-opacity="1" /><path clip-path="url(#clip720)" d="M46.0847 670.965 Q46.0847 678.063 47.7079 680.8 Q49.3312 683.538 53.2461 683.538 Q56.3653 683.538 58.2114 681.501 Q60.0256 679.432 60.0256 675.899 Q60.0256 671.029 56.5881 668.101 Q53.1188 665.141 47.3897 665.141 L46.0847 665.141 L46.0847 670.965 M43.6657 659.284 L64.0042 659.284 L64.0042 665.141 L58.5933 665.141 Q61.8398 667.146 63.3994 670.138 Q64.9272 673.13 64.9272 677.458 Q64.9272 682.933 61.8716 686.179 Q58.7843 689.394 53.6281 689.394 Q47.6125 689.394 44.5569 685.384 Q41.5014 681.342 41.5014 673.353 L41.5014 665.141 L40.9285 665.141 Q36.8862 665.141 34.6901 667.814 Q32.4621 670.456 32.4621 675.262 Q32.4621 678.318 33.1941 681.214 Q33.9262 684.111 35.3903 686.784 L29.9795 686.784 Q28.7381 683.57 28.1334 680.546 Q27.4968 677.522 27.4968 674.658 Q27.4968 666.923 31.5072 663.104 Q35.5176 659.284 43.6657 659.284 Z" fill="#000000" fill-rule="evenodd" fill-opacity="1" /><path clip-path="url(#clip720)" d="M33.7671 623.764 L14.479 623.764 L14.479 617.907 L64.0042 617.907 L64.0042 623.764 L58.657 623.764 Q61.8398 625.61 63.3994 628.443 Q64.9272 631.243 64.9272 635.19 Q64.9272 641.651 59.771 645.725 Q54.6147 649.768 46.212 649.768 Q37.8093 649.768 32.6531 645.725 Q27.4968 641.651 27.4968 635.19 Q27.4968 631.243 29.0564 628.443 Q30.5842 625.61 33.7671 623.764 M46.212 643.72 Q52.6732 643.72 56.3653 641.078 Q60.0256 638.405 60.0256 633.758 Q60.0256 629.111 56.3653 626.437 Q52.6732 623.764 46.212 623.764 Q39.7508 623.764 36.0905 626.437 Q32.3984 629.111 32.3984 633.758 Q32.3984 638.405 36.0905 641.078 Q39.7508 643.72 46.212 643.72 Z" fill="#000000" fill-rule="evenodd" fill-opacity="1" /><path clip-path="url(#clip720)" d="M14.479 592.158 L72.5979 592.158 L72.5979 605.653 L68.0464 605.653 L68.0464 598.046 L19.0304 598.046 L19.0304 605.653 L14.479 605.653 L14.479 592.158 Z" fill="#000000" fill-rule="evenodd" fill-opacity="1" /><path clip-path="url(#clip720)" d="M586.63 18.8205 L586.63 41.5461 L596.92 41.5461 Q602.631 41.5461 605.75 38.5889 Q608.87 35.6318 608.87 30.163 Q608.87 24.7348 605.75 21.7777 Q602.631 18.8205 596.92 18.8205 L586.63 18.8205 M578.447 12.096 L596.92 12.096 Q607.087 12.096 612.272 16.714 Q617.498 21.2916 617.498 30.163 Q617.498 39.1155 612.272 43.6931 Q607.087 48.2706 596.92 48.2706 L586.63 48.2706 L586.63 72.576 L578.447 72.576 L578.447 12.096 Z" fill="#000000" fill-rule="evenodd" fill-opacity="1" /><path clip-path="url(#clip720)" d="M652.984 34.1734 Q651.728 33.4443 650.229 33.1202 Q648.771 32.7556 646.989 32.7556 Q640.669 32.7556 637.267 36.8875 Q633.904 40.9789 633.904 48.6757 L633.904 72.576 L626.41 72.576 L626.41 27.2059 L633.904 27.2059 L633.904 34.2544 Q636.254 30.1225 640.021 28.1376 Q643.788 26.1121 649.176 26.1121 Q649.946 26.1121 650.878 26.2337 Q651.809 26.3147 652.944 26.5172 L652.984 34.1734 Z" fill="#000000" fill-rule="evenodd" fill-opacity="1" /><path clip-path="url(#clip720)" d="M676.56 32.4315 Q670.565 32.4315 667.081 37.1306 Q663.597 41.7891 663.597 49.9314 Q663.597 58.0738 667.041 62.7728 Q670.524 67.4314 676.56 67.4314 Q682.515 67.4314 685.999 62.7323 Q689.483 58.0333 689.483 49.9314 Q689.483 41.8701 685.999 37.1711 Q682.515 32.4315 676.56 32.4315 M676.56 26.1121 Q686.282 26.1121 691.832 32.4315 Q697.382 38.7509 697.382 49.9314 Q697.382 61.0714 691.832 67.4314 Q686.282 73.7508 676.56 73.7508 Q666.798 73.7508 661.248 67.4314 Q655.739 61.0714 655.739 49.9314 Q655.739 38.7509 661.248 32.4315 Q666.798 26.1121 676.56 26.1121 Z" fill="#000000" fill-rule="evenodd" fill-opacity="1" /><path clip-path="url(#clip720)" d="M716.948 65.7705 L716.948 89.8329 L709.454 89.8329 L709.454 27.2059 L716.948 27.2059 L716.948 34.0924 Q719.297 30.0415 722.862 28.0971 Q726.467 26.1121 731.45 26.1121 Q739.714 26.1121 744.859 32.6746 Q750.044 39.2371 750.044 49.9314 Q750.044 60.6258 744.859 67.1883 Q739.714 73.7508 731.45 73.7508 Q726.467 73.7508 722.862 71.8063 Q719.297 69.8214 716.948 65.7705 M742.306 49.9314 Q742.306 41.7081 738.904 37.0496 Q735.541 32.3505 729.627 32.3505 Q723.713 32.3505 720.31 37.0496 Q716.948 41.7081 716.948 49.9314 Q716.948 58.1548 720.31 62.8538 Q723.713 67.5124 729.627 67.5124 Q735.541 67.5124 738.904 62.8538 Q742.306 58.1548 742.306 49.9314 Z" fill="#000000" fill-rule="evenodd" fill-opacity="1" /><path clip-path="url(#clip720)" d="M783.018 49.7694 Q773.985 49.7694 770.501 51.8354 Q767.017 53.9013 767.017 58.8839 Q767.017 62.8538 769.61 65.2034 Q772.243 67.5124 776.739 67.5124 Q782.937 67.5124 786.664 63.1374 Q790.431 58.7219 790.431 51.4303 L790.431 49.7694 L783.018 49.7694 M797.885 46.6907 L797.885 72.576 L790.431 72.576 L790.431 65.6895 Q787.879 69.8214 784.071 71.8063 Q780.263 73.7508 774.754 73.7508 Q767.787 73.7508 763.655 69.8619 Q759.563 65.9325 759.563 59.3701 Q759.563 51.7138 764.667 47.825 Q769.812 43.9361 779.98 43.9361 L790.431 43.9361 L790.431 43.2069 Q790.431 38.0623 787.028 35.2672 Q783.666 32.4315 777.549 32.4315 Q773.66 32.4315 769.974 33.3632 Q766.288 34.295 762.885 36.1584 L762.885 29.2718 Q766.976 27.692 770.825 26.9223 Q774.673 26.1121 778.319 26.1121 Q788.163 26.1121 793.024 31.2163 Q797.885 36.3204 797.885 46.6907 Z" fill="#000000" fill-rule="evenodd" fill-opacity="1" /><path clip-path="url(#clip720)" d="M843.093 49.3643 Q843.093 41.2625 839.731 36.8065 Q836.409 32.3505 830.373 32.3505 Q824.378 32.3505 821.016 36.8065 Q817.694 41.2625 817.694 49.3643 Q817.694 57.4256 821.016 61.8816 Q824.378 66.3376 830.373 66.3376 Q836.409 66.3376 839.731 61.8816 Q843.093 57.4256 843.093 49.3643 M850.547 66.9452 Q850.547 78.5308 845.402 84.1616 Q840.257 89.8329 829.644 89.8329 Q825.715 89.8329 822.231 89.2252 Q818.747 88.6581 815.466 87.4428 L815.466 80.1917 Q818.747 81.9741 821.947 82.8248 Q825.147 83.6755 828.469 83.6755 Q835.801 83.6755 839.447 79.8271 Q843.093 76.0193 843.093 68.282 L843.093 64.5957 Q840.784 68.6061 837.179 70.5911 Q833.573 72.576 828.55 72.576 Q820.205 72.576 815.101 66.2161 Q809.997 59.8562 809.997 49.3643 Q809.997 38.832 815.101 32.472 Q820.205 26.1121 828.55 26.1121 Q833.573 26.1121 837.179 28.0971 Q840.784 30.082 843.093 34.0924 L843.093 27.2059 L850.547 27.2059 L850.547 66.9452 Z" fill="#000000" fill-rule="evenodd" fill-opacity="1" /><path clip-path="url(#clip720)" d="M886.519 49.7694 Q877.485 49.7694 874.001 51.8354 Q870.518 53.9013 870.518 58.8839 Q870.518 62.8538 873.11 65.2034 Q875.743 67.5124 880.24 67.5124 Q886.438 67.5124 890.164 63.1374 Q893.932 58.7219 893.932 51.4303 L893.932 49.7694 L886.519 49.7694 M901.385 46.6907 L901.385 72.576 L893.932 72.576 L893.932 65.6895 Q891.38 69.8214 887.572 71.8063 Q883.764 73.7508 878.255 73.7508 Q871.287 73.7508 867.155 69.8619 Q863.064 65.9325 863.064 59.3701 Q863.064 51.7138 868.168 47.825 Q873.313 43.9361 883.48 43.9361 L893.932 43.9361 L893.932 43.2069 Q893.932 38.0623 890.529 35.2672 Q887.167 32.4315 881.05 32.4315 Q877.161 32.4315 873.475 33.3632 Q869.788 34.295 866.386 36.1584 L866.386 29.2718 Q870.477 27.692 874.325 26.9223 Q878.174 26.1121 881.82 26.1121 Q891.663 26.1121 896.524 31.2163 Q901.385 36.3204 901.385 46.6907 Z" fill="#000000" fill-rule="evenodd" fill-opacity="1" /><path clip-path="url(#clip720)" d="M924.111 14.324 L924.111 27.2059 L939.464 27.2059 L939.464 32.9987 L924.111 32.9987 L924.111 57.6282 Q924.111 63.1779 925.61 64.7578 Q927.149 66.3376 931.808 66.3376 L939.464 66.3376 L939.464 72.576 L931.808 72.576 Q923.179 72.576 919.898 69.3758 Q916.617 66.1351 916.617 57.6282 L916.617 32.9987 L911.148 32.9987 L911.148 27.2059 L916.617 27.2059 L916.617 14.324 L924.111 14.324 Z" fill="#000000" fill-rule="evenodd" fill-opacity="1" /><path clip-path="url(#clip720)" d="M949.267 27.2059 L956.721 27.2059 L956.721 72.576 L949.267 72.576 L949.267 27.2059 M949.267 9.54393 L956.721 9.54393 L956.721 18.9825 L949.267 18.9825 L949.267 9.54393 Z" fill="#000000" fill-rule="evenodd" fill-opacity="1" /><path clip-path="url(#clip720)" d="M1010.03 45.1919 L1010.03 72.576 L1002.58 72.576 L1002.58 45.4349 Q1002.58 38.994 1000.07 35.7938 Q997.554 32.5936 992.531 32.5936 Q986.495 32.5936 983.011 36.4419 Q979.527 40.2903 979.527 46.9338 L979.527 72.576 L972.033 72.576 L972.033 27.2059 L979.527 27.2059 L979.527 34.2544 Q982.201 30.163 985.806 28.1376 Q989.452 26.1121 994.192 26.1121 Q1002.01 26.1121 1006.02 30.9732 Q1010.03 35.7938 1010.03 45.1919 Z" fill="#000000" fill-rule="evenodd" fill-opacity="1" /><path clip-path="url(#clip720)" d="M1054.75 49.3643 Q1054.75 41.2625 1051.39 36.8065 Q1048.07 32.3505 1042.03 32.3505 Q1036.04 32.3505 1032.68 36.8065 Q1029.35 41.2625 1029.35 49.3643 Q1029.35 57.4256 1032.68 61.8816 Q1036.04 66.3376 1042.03 66.3376 Q1048.07 66.3376 1051.39 61.8816 Q1054.75 57.4256 1054.75 49.3643 M1062.21 66.9452 Q1062.21 78.5308 1057.06 84.1616 Q1051.92 89.8329 1041.3 89.8329 Q1037.37 89.8329 1033.89 89.2252 Q1030.41 88.6581 1027.13 87.4428 L1027.13 80.1917 Q1030.41 81.9741 1033.61 82.8248 Q1036.81 83.6755 1040.13 83.6755 Q1047.46 83.6755 1051.11 79.8271 Q1054.75 76.0193 1054.75 68.282 L1054.75 64.5957 Q1052.44 68.6061 1048.84 70.5911 Q1045.23 72.576 1040.21 72.576 Q1031.87 72.576 1026.76 66.2161 Q1021.66 59.8562 1021.66 49.3643 Q1021.66 38.832 1026.76 32.472 Q1031.87 26.1121 1040.21 26.1121 Q1045.23 26.1121 1048.84 28.0971 Q1052.44 30.082 1054.75 34.0924 L1054.75 27.2059 L1062.21 27.2059 L1062.21 66.9452 Z" fill="#000000" fill-rule="evenodd" fill-opacity="1" /><path clip-path="url(#clip720)" d="M1133.79 34.0924 L1133.79 9.54393 L1141.24 9.54393 L1141.24 72.576 L1133.79 72.576 L1133.79 65.7705 Q1131.44 69.8214 1127.83 71.8063 Q1124.27 73.7508 1119.24 73.7508 Q1111.02 73.7508 1105.83 67.1883 Q1100.69 60.6258 1100.69 49.9314 Q1100.69 39.2371 1105.83 32.6746 Q1111.02 26.1121 1119.24 26.1121 Q1124.27 26.1121 1127.83 28.0971 Q1131.44 30.0415 1133.79 34.0924 M1108.39 49.9314 Q1108.39 58.1548 1111.75 62.8538 Q1115.15 67.5124 1121.07 67.5124 Q1126.98 67.5124 1130.38 62.8538 Q1133.79 58.1548 1133.79 49.9314 Q1133.79 41.7081 1130.38 37.0496 Q1126.98 32.3505 1121.07 32.3505 Q1115.15 32.3505 1111.75 37.0496 Q1108.39 41.7081 1108.39 49.9314 Z" fill="#000000" fill-rule="evenodd" fill-opacity="1" /><path clip-path="url(#clip720)" d="M1156.59 27.2059 L1164.05 27.2059 L1164.05 72.576 L1156.59 72.576 L1156.59 27.2059 M1156.59 9.54393 L1164.05 9.54393 L1164.05 18.9825 L1156.59 18.9825 L1156.59 9.54393 Z" fill="#000000" fill-rule="evenodd" fill-opacity="1" /><path clip-path="url(#clip720)" d="M1208.57 28.5427 L1208.57 35.5912 Q1205.41 33.9709 1202 33.1607 Q1198.6 32.3505 1194.95 32.3505 Q1189.4 32.3505 1186.61 34.0519 Q1183.86 35.7533 1183.86 39.156 Q1183.86 41.7486 1185.84 43.2475 Q1187.82 44.7058 1193.82 46.0426 L1196.37 46.6097 Q1204.31 48.3111 1207.63 51.4303 Q1211 54.509 1211 60.0587 Q1211 66.3781 1205.97 70.0644 Q1200.99 73.7508 1192.24 73.7508 Q1188.59 73.7508 1184.62 73.0216 Q1180.7 72.3329 1176.32 70.9151 L1176.32 63.2184 Q1180.45 65.3654 1184.46 66.4591 Q1188.47 67.5124 1192.4 67.5124 Q1197.67 67.5124 1200.5 65.73 Q1203.34 63.9071 1203.34 60.6258 Q1203.34 57.5877 1201.27 55.9673 Q1199.25 54.3469 1192.32 52.8481 L1189.73 52.2405 Q1182.8 50.7821 1179.72 47.7845 Q1176.64 44.7463 1176.64 39.4801 Q1176.64 33.0797 1181.18 29.5959 Q1185.72 26.1121 1194.06 26.1121 Q1198.2 26.1121 1201.84 26.7198 Q1205.49 27.3274 1208.57 28.5427 Z" fill="#000000" fill-rule="evenodd" fill-opacity="1" /><path clip-path="url(#clip720)" d="M1230.24 14.324 L1230.24 27.2059 L1245.59 27.2059 L1245.59 32.9987 L1230.24 32.9987 L1230.24 57.6282 Q1230.24 63.1779 1231.74 64.7578 Q1233.28 66.3376 1237.93 66.3376 L1245.59 66.3376 L1245.59 72.576 L1237.93 72.576 Q1229.31 72.576 1226.02 69.3758 Q1222.74 66.1351 1222.74 57.6282 L1222.74 32.9987 L1217.27 32.9987 L1217.27 27.2059 L1222.74 27.2059 L1222.74 14.324 L1230.24 14.324 Z" fill="#000000" fill-rule="evenodd" fill-opacity="1" /><path clip-path="url(#clip720)" d="M1276.01 49.7694 Q1266.98 49.7694 1263.5 51.8354 Q1260.01 53.9013 1260.01 58.8839 Q1260.01 62.8538 1262.6 65.2034 Q1265.24 67.5124 1269.73 67.5124 Q1275.93 67.5124 1279.66 63.1374 Q1283.43 58.7219 1283.43 51.4303 L1283.43 49.7694 L1276.01 49.7694 M1290.88 46.6907 L1290.88 72.576 L1283.43 72.576 L1283.43 65.6895 Q1280.87 69.8214 1277.07 71.8063 Q1273.26 73.7508 1267.75 73.7508 Q1260.78 73.7508 1256.65 69.8619 Q1252.56 65.9325 1252.56 59.3701 Q1252.56 51.7138 1257.66 47.825 Q1262.81 43.9361 1272.97 43.9361 L1283.43 43.9361 L1283.43 43.2069 Q1283.43 38.0623 1280.02 35.2672 Q1276.66 32.4315 1270.54 32.4315 Q1266.66 32.4315 1262.97 33.3632 Q1259.28 34.295 1255.88 36.1584 L1255.88 29.2718 Q1259.97 27.692 1263.82 26.9223 Q1267.67 26.1121 1271.31 26.1121 Q1281.16 26.1121 1286.02 31.2163 Q1290.88 36.3204 1290.88 46.6907 Z" fill="#000000" fill-rule="evenodd" fill-opacity="1" /><path clip-path="url(#clip720)" d="M1343.95 45.1919 L1343.95 72.576 L1336.49 72.576 L1336.49 45.4349 Q1336.49 38.994 1333.98 35.7938 Q1331.47 32.5936 1326.45 32.5936 Q1320.41 32.5936 1316.93 36.4419 Q1313.44 40.2903 1313.44 46.9338 L1313.44 72.576 L1305.95 72.576 L1305.95 27.2059 L1313.44 27.2059 L1313.44 34.2544 Q1316.12 30.163 1319.72 28.1376 Q1323.37 26.1121 1328.11 26.1121 Q1335.93 26.1121 1339.94 30.9732 Q1343.95 35.7938 1343.95 45.1919 Z" fill="#000000" fill-rule="evenodd" fill-opacity="1" /><path clip-path="url(#clip720)" d="M1391.46 28.9478 L1391.46 35.9153 Q1388.3 34.1734 1385.1 33.3227 Q1381.94 32.4315 1378.7 32.4315 Q1371.45 32.4315 1367.44 37.0496 Q1363.43 41.6271 1363.43 49.9314 Q1363.43 58.2358 1367.44 62.8538 Q1371.45 67.4314 1378.7 67.4314 Q1381.94 67.4314 1385.1 66.5807 Q1388.3 65.6895 1391.46 63.9476 L1391.46 70.8341 Q1388.34 72.2924 1384.98 73.0216 Q1381.66 73.7508 1377.89 73.7508 Q1367.64 73.7508 1361.61 67.3098 Q1355.57 60.8689 1355.57 49.9314 Q1355.57 38.832 1361.65 32.472 Q1367.77 26.1121 1378.38 26.1121 Q1381.82 26.1121 1385.1 26.8413 Q1388.39 27.5299 1391.46 28.9478 Z" fill="#000000" fill-rule="evenodd" fill-opacity="1" /><path clip-path="url(#clip720)" d="M1443.23 48.0275 L1443.23 51.6733 L1408.96 51.6733 Q1409.45 59.3701 1413.58 63.421 Q1417.75 67.4314 1425.17 67.4314 Q1429.46 67.4314 1433.47 66.3781 Q1437.52 65.3249 1441.49 63.2184 L1441.49 70.267 Q1437.48 71.9684 1433.27 72.8596 Q1429.06 73.7508 1424.72 73.7508 Q1413.87 73.7508 1407.51 67.4314 Q1401.19 61.1119 1401.19 50.3365 Q1401.19 39.1965 1407.18 32.6746 Q1413.22 26.1121 1423.43 26.1121 Q1432.58 26.1121 1437.89 32.0264 Q1443.23 37.9003 1443.23 48.0275 M1435.78 45.84 Q1435.7 39.7232 1432.34 36.0774 Q1429.02 32.4315 1423.51 32.4315 Q1417.27 32.4315 1413.5 35.9558 Q1409.77 39.4801 1409.21 45.8805 L1435.78 45.84 Z" fill="#000000" fill-rule="evenodd" fill-opacity="1" /><path clip-path="url(#clip720)" d="M1457.37 62.2867 L1465.92 62.2867 L1465.92 72.576 L1457.37 72.576 L1457.37 62.2867 M1457.37 29.6769 L1465.92 29.6769 L1465.92 39.9662 L1457.37 39.9662 L1457.37 29.6769 Z" fill="#000000" fill-rule="evenodd" fill-opacity="1" /><path clip-path="url(#clip720)" d="M1528.34 43.8551 Q1522.51 43.8551 1519.15 46.9743 Q1515.83 50.0935 1515.83 55.5622 Q1515.83 61.0309 1519.15 64.1501 Q1522.51 67.2693 1528.34 67.2693 Q1534.18 67.2693 1537.54 64.1501 Q1540.9 60.9904 1540.9 55.5622 Q1540.9 50.0935 1537.54 46.9743 Q1534.22 43.8551 1528.34 43.8551 M1520.16 40.3713 Q1514.89 39.075 1511.94 35.4697 Q1509.02 31.8644 1509.02 26.6793 Q1509.02 19.4281 1514.17 15.2152 Q1519.35 11.0023 1528.34 11.0023 Q1537.38 11.0023 1542.52 15.2152 Q1547.67 19.4281 1547.67 26.6793 Q1547.67 31.8644 1544.71 35.4697 Q1541.79 39.075 1536.57 40.3713 Q1542.48 41.7486 1545.76 45.759 Q1549.08 49.7694 1549.08 55.5622 Q1549.08 64.3527 1543.7 69.0517 Q1538.35 73.7508 1528.34 73.7508 Q1518.34 73.7508 1512.95 69.0517 Q1507.6 64.3527 1507.6 55.5622 Q1507.6 49.7694 1510.93 45.759 Q1514.25 41.7486 1520.16 40.3713 M1517.16 27.4489 Q1517.16 32.148 1520.08 34.7811 Q1523.04 37.4142 1528.34 37.4142 Q1533.61 37.4142 1536.57 34.7811 Q1539.56 32.148 1539.56 27.4489 Q1539.56 22.7499 1536.57 20.1168 Q1533.61 17.4837 1528.34 17.4837 Q1523.04 17.4837 1520.08 20.1168 Q1517.16 22.7499 1517.16 27.4489 Z" fill="#000000" fill-rule="evenodd" fill-opacity="1" /><path clip-path="url(#clip720)" d="M1597.9 35.9153 Q1600.69 30.8922 1604.58 28.5022 Q1608.47 26.1121 1613.74 26.1121 Q1620.83 26.1121 1624.67 31.0947 Q1628.52 36.0368 1628.52 45.1919 L1628.52 72.576 L1621.03 72.576 L1621.03 45.4349 Q1621.03 38.913 1618.72 35.7533 Q1616.41 32.5936 1611.67 32.5936 Q1605.88 32.5936 1602.52 36.4419 Q1599.15 40.2903 1599.15 46.9338 L1599.15 72.576 L1591.66 72.576 L1591.66 45.4349 Q1591.66 38.8725 1589.35 35.7533 Q1587.04 32.5936 1582.22 32.5936 Q1576.51 32.5936 1573.15 36.4824 Q1569.78 40.3308 1569.78 46.9338 L1569.78 72.576 L1562.29 72.576 L1562.29 27.2059 L1569.78 27.2059 L1569.78 34.2544 Q1572.34 30.082 1575.9 28.0971 Q1579.47 26.1121 1584.37 26.1121 Q1589.31 26.1121 1592.75 28.6237 Q1596.24 31.1352 1597.9 35.9153 Z" fill="#000000" fill-rule="evenodd" fill-opacity="1" /><path clip-path="url(#clip720)" d="M1678.71 35.9153 Q1681.51 30.8922 1685.4 28.5022 Q1689.29 26.1121 1694.55 26.1121 Q1701.64 26.1121 1705.49 31.0947 Q1709.34 36.0368 1709.34 45.1919 L1709.34 72.576 L1701.84 72.576 L1701.84 45.4349 Q1701.84 38.913 1699.54 35.7533 Q1697.23 32.5936 1692.49 32.5936 Q1686.69 32.5936 1683.33 36.4419 Q1679.97 40.2903 1679.97 46.9338 L1679.97 72.576 L1672.48 72.576 L1672.48 45.4349 Q1672.48 38.8725 1670.17 35.7533 Q1667.86 32.5936 1663.04 32.5936 Q1657.32 32.5936 1653.96 36.4824 Q1650.6 40.3308 1650.6 46.9338 L1650.6 72.576 L1643.11 72.576 L1643.11 27.2059 L1650.6 27.2059 L1650.6 34.2544 Q1653.15 30.082 1656.72 28.0971 Q1660.28 26.1121 1665.18 26.1121 Q1670.13 26.1121 1673.57 28.6237 Q1677.05 31.1352 1678.71 35.9153 Z" fill="#000000" fill-rule="evenodd" fill-opacity="1" /><path clip-path="url(#clip720)" d="M1726.68 65.6895 L1740.04 65.6895 L1740.04 19.5497 L1725.5 22.4663 L1725.5 15.0127 L1739.96 12.096 L1748.15 12.096 L1748.15 65.6895 L1761.51 65.6895 L1761.51 72.576 L1726.68 72.576 L1726.68 65.6895 Z" fill="#000000" fill-rule="evenodd" fill-opacity="1" /><path clip-path="url(#clip720)" d="M1785.09 65.6895 L1813.65 65.6895 L1813.65 72.576 L1775.25 72.576 L1775.25 65.6895 Q1779.91 60.8689 1787.93 52.7671 Q1795.99 44.6248 1798.05 42.2752 Q1801.98 37.8598 1803.52 34.8216 Q1805.1 31.7429 1805.1 28.7857 Q1805.1 23.9651 1801.7 20.927 Q1798.34 17.8888 1792.91 17.8888 Q1789.06 17.8888 1784.77 19.2256 Q1780.51 20.5624 1775.65 23.2765 L1775.65 15.0127 Q1780.59 13.0277 1784.89 12.015 Q1789.18 11.0023 1792.75 11.0023 Q1802.14 11.0023 1807.73 15.7013 Q1813.33 20.4004 1813.33 28.2591 Q1813.33 31.9859 1811.91 35.3482 Q1810.53 38.6699 1806.84 43.2069 Q1805.83 44.3817 1800.4 50.0125 Q1794.97 55.6027 1785.09 65.6895 Z" fill="#000000" fill-rule="evenodd" fill-opacity="1" /><path clip-path="url(#clip720)" d="M1865.1 35.9153 Q1867.89 30.8922 1871.78 28.5022 Q1875.67 26.1121 1880.93 26.1121 Q1888.02 26.1121 1891.87 31.0947 Q1895.72 36.0368 1895.72 45.1919 L1895.72 72.576 L1888.23 72.576 L1888.23 45.4349 Q1888.23 38.913 1885.92 35.7533 Q1883.61 32.5936 1878.87 32.5936 Q1873.08 32.5936 1869.71 36.4419 Q1866.35 40.2903 1866.35 46.9338 L1866.35 72.576 L1858.86 72.576 L1858.86 45.4349 Q1858.86 38.8725 1856.55 35.7533 Q1854.24 32.5936 1849.42 32.5936 Q1843.71 32.5936 1840.34 36.4824 Q1836.98 40.3308 1836.98 46.9338 L1836.98 72.576 L1829.49 72.576 L1829.49 27.2059 L1836.98 27.2059 L1836.98 34.2544 Q1839.53 30.082 1843.1 28.0971 Q1846.66 26.1121 1851.57 26.1121 Q1856.51 26.1121 1859.95 28.6237 Q1863.43 31.1352 1865.1 35.9153 Z" fill="#000000" fill-rule="evenodd" fill-opacity="1" /><path clip-path="url(#clip720)" d="M1945.91 35.9153 Q1948.71 30.8922 1952.6 28.5022 Q1956.48 26.1121 1961.75 26.1121 Q1968.84 26.1121 1972.69 31.0947 Q1976.54 36.0368 1976.54 45.1919 L1976.54 72.576 L1969.04 72.576 L1969.04 45.4349 Q1969.04 38.913 1966.73 35.7533 Q1964.42 32.5936 1959.68 32.5936 Q1953.89 32.5936 1950.53 36.4419 Q1947.17 40.2903 1947.17 46.9338 L1947.17 72.576 L1939.67 72.576 L1939.67 45.4349 Q1939.67 38.8725 1937.36 35.7533 Q1935.05 32.5936 1930.23 32.5936 Q1924.52 32.5936 1921.16 36.4824 Q1917.8 40.3308 1917.8 46.9338 L1917.8 72.576 L1910.3 72.576 L1910.3 27.2059 L1917.8 27.2059 L1917.8 34.2544 Q1920.35 30.082 1923.91 28.0971 Q1927.48 26.1121 1932.38 26.1121 Q1937.32 26.1121 1940.77 28.6237 Q1944.25 31.1352 1945.91 35.9153 Z" fill="#000000" fill-rule="evenodd" fill-opacity="1" /><polyline clip-path="url(#clip722)" style="stroke:#009af9; stroke-linecap:butt; stroke-linejoin:round; stroke-width:4; stroke-opacity:1; fill:none" points="
  263.091,1386.4 283.584,1386.4 304.077,1386.4 324.57,1386.4 345.063,1386.4 365.556,1386.4 386.049,1386.4 406.542,1386.4 427.035,1386.4 447.528,1386.4 
  468.021,1386.4 488.514,1386.4 509.007,1386.4 529.5,1386.4 549.993,1386.4 570.485,1386.4 590.978,1386.4 611.471,1386.4 631.964,1386.4 652.457,1386.4 
  672.95,1386.4 693.443,1386.4 713.936,1386.4 734.429,1386.4 754.922,1386.4 775.415,1103.79 795.908,990.83 816.401,907.002 836.894,838.76 857.387,780.812 
  877.879,730.424 898.372,685.963 918.865,646.36 939.358,610.87 959.851,578.95 980.344,550.193 1000.84,524.28 1021.33,500.963 1041.82,480.04 1062.32,461.351 
  1082.81,444.761 1103.3,430.161 1123.79,417.461 1144.29,406.588 1164.78,397.481 1185.27,390.092 1205.77,384.382 1226.26,380.324 1246.75,377.897 1267.25,377.089 
  1287.74,377.897 1308.23,380.324 1328.72,384.382 1349.22,390.092 1369.71,397.481 1390.2,406.588 1410.7,417.461 1431.19,430.161 1451.68,444.761 1472.17,461.351 
  1492.67,480.04 1513.16,500.963 1533.65,524.28 1554.15,550.193 1574.64,578.95 1595.13,610.87 1615.63,646.36 1636.12,685.963 1656.61,730.424 1677.1,780.812 
  1697.6,838.76 1718.09,907.002 1738.58,990.83 1759.08,1103.79 1779.57,1386.4 1800.06,1386.4 1820.55,1386.4 1841.05,1386.4 1861.54,1386.4 1882.03,1386.4 
  1902.53,1386.4 1923.02,1386.4 1943.51,1386.4 1964,1386.4 1984.5,1386.4 2004.99,1386.4 2025.48,1386.4 2045.98,1386.4 2066.47,1386.4 2086.96,1386.4 
  2107.46,1386.4 2127.95,1386.4 2148.44,1386.4 2168.93,1386.4 2189.43,1386.4 2209.92,1386.4 2230.41,1386.4 2250.91,1386.4 2271.4,1386.4 2291.89,1386.4 
  
  "/>
<polyline clip-path="url(#clip722)" style="stroke:#e26f46; stroke-linecap:butt; stroke-linejoin:round; stroke-width:4; stroke-opacity:1; fill:none" points="
  263.091,1225.06 283.584,1229.81 304.077,1232.21 324.57,1232.83 345.063,1231.89 365.556,1225.34 386.049,1216.85 406.542,1215.85 427.035,1219.85 447.528,1220.83 
  468.021,1222.57 488.514,1242.94 509.007,1248.11 529.5,1242.27 549.993,1231.14 570.485,1221.8 590.978,1222.21 611.471,1221.84 631.964,1227.58 652.457,1234.61 
  672.95,1237.08 693.443,1240.56 713.936,1226.05 734.429,1219.89 754.922,1226.93 775.415,939.038 795.908,834.884 816.401,784.817 836.894,750.559 857.387,720.769 
  877.879,700.43 898.372,697.309 918.865,722.63 939.358,761.755 959.851,762.256 980.344,750.723 1000.84,731.648 1021.33,720.437 1041.82,711.195 1062.32,699.477 
  1082.81,198.281 1103.3,198.907 1123.79,201.541 1144.29,222.336 1164.78,221.262 1185.27,191.45 1205.77,167.683 1226.26,160.256 1246.75,163.205 1267.25,167.57 
  1287.74,163.462 1308.23,160.585 1328.72,167.895 1349.22,191.264 1369.71,220.615 1390.2,221.972 1410.7,202.931 1431.19,198.761 1451.68,197.182 1472.17,699.494 
  1492.67,712.018 1513.16,719.162 1533.65,732.87 1554.15,749.393 1574.64,764.278 1595.13,762.722 1615.63,726.746 1636.12,695.142 1656.61,698.973 1677.1,721.631 
  1697.6,750.397 1718.09,783.928 1738.58,833.397 1759.08,939.434 1779.57,1228.99 1800.06,1221.19 1820.55,1227.1 1841.05,1238.96 1861.54,1237.17 1882.03,1231.64 
  1902.53,1226.71 1923.02,1221.59 1943.51,1221.12 1964,1223.01 1984.5,1229.51 2004.99,1244.98 2025.48,1248.06 2045.98,1238.44 2066.47,1222.97 2086.96,1220.96 
  2107.46,1223.4 2127.95,1214.75 2148.44,1217.56 2168.93,1225.91 2189.43,1232.68 2209.92,1233.72 2230.41,1234.39 2250.91,1229.73 2271.4,1225.17 2291.89,1224.18 
  
  "/>
<path clip-path="url(#clip720)" d="
M1890.46 322.316 L2281.07 322.316 L2281.07 166.796 L1890.46 166.796  Z
  " fill="#ffffff" fill-rule="evenodd" fill-opacity="1"/>
<polyline clip-path="url(#clip720)" style="stroke:#000000; stroke-linecap:butt; stroke-linejoin:round; stroke-width:4; stroke-opacity:1; fill:none" points="
  1890.46,322.316 2281.07,322.316 2281.07,166.796 1890.46,166.796 1890.46,322.316 
  "/>
<polyline clip-path="url(#clip720)" style="stroke:#009af9; stroke-linecap:butt; stroke-linejoin:round; stroke-width:4; stroke-opacity:1; fill:none" points="
  1914.35,218.636 2057.72,218.636 
  "/>
<path clip-path="url(#clip720)" d="M2089.02 202.629 L2089.02 209.99 L2097.8 209.99 L2097.8 213.3 L2089.02 213.3 L2089.02 227.374 Q2089.02 230.545 2089.88 231.448 Q2090.76 232.351 2093.42 232.351 L2097.8 232.351 L2097.8 235.916 L2093.42 235.916 Q2088.49 235.916 2086.62 234.087 Q2084.74 232.235 2084.74 227.374 L2084.74 213.3 L2081.62 213.3 L2081.62 209.99 L2084.74 209.99 L2084.74 202.629 L2089.02 202.629 Z" fill="#000000" fill-rule="evenodd" fill-opacity="1" /><path clip-path="url(#clip720)" d="M2124.95 220.268 L2124.95 235.916 L2120.69 235.916 L2120.69 220.407 Q2120.69 216.726 2119.25 214.897 Q2117.82 213.069 2114.95 213.069 Q2111.5 213.069 2109.51 215.268 Q2107.52 217.467 2107.52 221.263 L2107.52 235.916 L2103.24 235.916 L2103.24 199.897 L2107.52 199.897 L2107.52 214.018 Q2109.05 211.68 2111.11 210.522 Q2113.19 209.365 2115.9 209.365 Q2120.37 209.365 2122.66 212.143 Q2124.95 214.897 2124.95 220.268 Z" fill="#000000" fill-rule="evenodd" fill-opacity="1" /><path clip-path="url(#clip720)" d="M2155.62 221.888 L2155.62 223.971 L2136.04 223.971 Q2136.32 228.369 2138.68 230.684 Q2141.06 232.976 2145.3 232.976 Q2147.75 232.976 2150.04 232.374 Q2152.36 231.772 2154.63 230.569 L2154.63 234.596 Q2152.33 235.568 2149.93 236.078 Q2147.52 236.587 2145.04 236.587 Q2138.84 236.587 2135.2 232.976 Q2131.59 229.365 2131.59 223.207 Q2131.59 216.842 2135.02 213.115 Q2138.47 209.365 2144.3 209.365 Q2149.53 209.365 2152.56 212.745 Q2155.62 216.101 2155.62 221.888 M2151.36 220.638 Q2151.31 217.143 2149.39 215.059 Q2147.5 212.976 2144.35 212.976 Q2140.78 212.976 2138.63 214.99 Q2136.5 217.004 2136.18 220.661 L2151.36 220.638 Z" fill="#000000" fill-rule="evenodd" fill-opacity="1" /><path clip-path="url(#clip720)" d="M2172.66 212.976 Q2169.23 212.976 2167.24 215.661 Q2165.25 218.323 2165.25 222.976 Q2165.25 227.629 2167.22 230.314 Q2169.21 232.976 2172.66 232.976 Q2176.06 232.976 2178.05 230.291 Q2180.04 227.606 2180.04 222.976 Q2180.04 218.37 2178.05 215.684 Q2176.06 212.976 2172.66 212.976 M2172.66 209.365 Q2178.21 209.365 2181.38 212.976 Q2184.56 216.587 2184.56 222.976 Q2184.56 229.342 2181.38 232.976 Q2178.21 236.587 2172.66 236.587 Q2167.08 236.587 2163.91 232.976 Q2160.76 229.342 2160.76 222.976 Q2160.76 216.587 2163.91 212.976 Q2167.08 209.365 2172.66 209.365 Z" fill="#000000" fill-rule="evenodd" fill-opacity="1" /><path clip-path="url(#clip720)" d="M2206.64 213.971 Q2205.92 213.555 2205.06 213.37 Q2204.23 213.161 2203.21 213.161 Q2199.6 213.161 2197.66 215.522 Q2195.74 217.86 2195.74 222.258 L2195.74 235.916 L2191.45 235.916 L2191.45 209.99 L2195.74 209.99 L2195.74 214.018 Q2197.08 211.657 2199.23 210.522 Q2201.38 209.365 2204.46 209.365 Q2204.9 209.365 2205.44 209.434 Q2205.97 209.481 2206.62 209.596 L2206.64 213.971 Z" fill="#000000" fill-rule="evenodd" fill-opacity="1" /><path clip-path="url(#clip720)" d="M2221.89 238.323 Q2220.09 242.953 2218.37 244.365 Q2216.66 245.777 2213.79 245.777 L2210.39 245.777 L2210.39 242.212 L2212.89 242.212 Q2214.65 242.212 2215.62 241.379 Q2216.59 240.545 2217.77 237.443 L2218.54 235.499 L2208.05 209.99 L2212.56 209.99 L2220.67 230.268 L2228.77 209.99 L2233.28 209.99 L2221.89 238.323 Z" fill="#000000" fill-rule="evenodd" fill-opacity="1" /><polyline clip-path="url(#clip720)" style="stroke:#e26f46; stroke-linecap:butt; stroke-linejoin:round; stroke-width:4; stroke-opacity:1; fill:none" points="
  1914.35,270.476 2057.72,270.476 
  "/>
<path clip-path="url(#clip720)" d="M2086.29 257.038 L2086.29 270.024 L2092.17 270.024 Q2095.44 270.024 2097.22 268.335 Q2099 266.645 2099 263.52 Q2099 260.418 2097.22 258.728 Q2095.44 257.038 2092.17 257.038 L2086.29 257.038 M2081.62 253.196 L2092.17 253.196 Q2097.98 253.196 2100.94 255.835 Q2103.93 258.45 2103.93 263.52 Q2103.93 268.635 2100.94 271.251 Q2097.98 273.867 2092.17 273.867 L2086.29 273.867 L2086.29 287.756 L2081.62 287.756 L2081.62 253.196 Z" fill="#000000" fill-rule="evenodd" fill-opacity="1" /><path clip-path="url(#clip720)" d="M2126.59 271.552 Q2128.1 272.061 2129.51 273.728 Q2130.94 275.395 2132.38 278.311 L2137.13 287.756 L2132.1 287.756 L2127.68 278.89 Q2125.97 275.418 2124.35 274.284 Q2122.75 273.149 2119.97 273.149 L2114.88 273.149 L2114.88 287.756 L2110.2 287.756 L2110.2 253.196 L2120.76 253.196 Q2126.69 253.196 2129.6 255.673 Q2132.52 258.149 2132.52 263.149 Q2132.52 266.413 2130.99 268.566 Q2129.49 270.719 2126.59 271.552 M2114.88 257.038 L2114.88 269.307 L2120.76 269.307 Q2124.14 269.307 2125.85 267.756 Q2127.59 266.182 2127.59 263.149 Q2127.59 260.117 2125.85 258.589 Q2124.14 257.038 2120.76 257.038 L2114.88 257.038 Z" fill="#000000" fill-rule="evenodd" fill-opacity="1" /></svg>
