<?xml version="1.0" encoding="utf-8"?>
<svg xmlns="http://www.w3.org/2000/svg" xmlns:xlink="http://www.w3.org/1999/xlink" width="600" height="400" viewBox="0 0 2400 1600">
<defs>
  <clipPath id="clip440">
    <rect x="0" y="0" width="2400" height="1600"/>
  </clipPath>
</defs>
<path clip-path="url(#clip440)" d="
M0 1600 L2400 1600 L2400 0 L0 0  Z
  " fill="#ffffff" fill-rule="evenodd" fill-opacity="1"/>
<defs>
  <clipPath id="clip441">
    <rect x="480" y="0" width="1681" height="1600"/>
  </clipPath>
</defs>
<path clip-path="url(#clip440)" d="
M210.376 1423.18 L2352.76 1423.18 L2352.76 183.952 L210.376 183.952  Z
  " fill="#ffffff" fill-rule="evenodd" fill-opacity="1"/>
<defs>
  <clipPath id="clip442">
    <rect x="210" y="183" width="2143" height="1240"/>
  </clipPath>
</defs>
<polyline clip-path="url(#clip442)" style="stroke:#000000; stroke-linecap:butt; stroke-linejoin:round; stroke-width:2; stroke-opacity:0.1; fill:none" points="
  373.085,1423.18 373.085,183.952 
  "/>
<polyline clip-path="url(#clip442)" style="stroke:#000000; stroke-linecap:butt; stroke-linejoin:round; stroke-width:2; stroke-opacity:0.1; fill:none" points="
  781.391,1423.18 781.391,183.952 
  "/>
<polyline clip-path="url(#clip442)" style="stroke:#000000; stroke-linecap:butt; stroke-linejoin:round; stroke-width:2; stroke-opacity:0.1; fill:none" points="
  1189.7,1423.18 1189.7,183.952 
  "/>
<polyline clip-path="url(#clip442)" style="stroke:#000000; stroke-linecap:butt; stroke-linejoin:round; stroke-width:2; stroke-opacity:0.1; fill:none" points="
  1598,1423.18 1598,183.952 
  "/>
<polyline clip-path="url(#clip442)" style="stroke:#000000; stroke-linecap:butt; stroke-linejoin:round; stroke-width:2; stroke-opacity:0.1; fill:none" points="
  2006.31,1423.18 2006.31,183.952 
  "/>
<polyline clip-path="url(#clip440)" style="stroke:#000000; stroke-linecap:butt; stroke-linejoin:round; stroke-width:4; stroke-opacity:1; fill:none" points="
  210.376,1423.18 2352.76,1423.18 
  "/>
<polyline clip-path="url(#clip440)" style="stroke:#000000; stroke-linecap:butt; stroke-linejoin:round; stroke-width:4; stroke-opacity:1; fill:none" points="
  373.085,1423.18 373.085,1404.28 
  "/>
<polyline clip-path="url(#clip440)" style="stroke:#000000; stroke-linecap:butt; stroke-linejoin:round; stroke-width:4; stroke-opacity:1; fill:none" points="
  781.391,1423.18 781.391,1404.28 
  "/>
<polyline clip-path="url(#clip440)" style="stroke:#000000; stroke-linecap:butt; stroke-linejoin:round; stroke-width:4; stroke-opacity:1; fill:none" points="
  1189.7,1423.18 1189.7,1404.28 
  "/>
<polyline clip-path="url(#clip440)" style="stroke:#000000; stroke-linecap:butt; stroke-linejoin:round; stroke-width:4; stroke-opacity:1; fill:none" points="
  1598,1423.18 1598,1404.28 
  "/>
<polyline clip-path="url(#clip440)" style="stroke:#000000; stroke-linecap:butt; stroke-linejoin:round; stroke-width:4; stroke-opacity:1; fill:none" points="
  2006.31,1423.18 2006.31,1404.28 
  "/>
<path clip-path="url(#clip440)" d="M333.132 1484.86 L333.132 1480.6 Q334.891 1481.44 336.697 1481.88 Q338.502 1482.32 340.238 1482.32 Q344.868 1482.32 347.299 1479.21 Q349.752 1476.09 350.099 1469.75 Q348.757 1471.74 346.697 1472.8 Q344.637 1473.87 342.137 1473.87 Q336.951 1473.87 333.919 1470.74 Q330.91 1467.59 330.91 1462.15 Q330.91 1456.83 334.058 1453.61 Q337.206 1450.39 342.437 1450.39 Q348.433 1450.39 351.581 1455 Q354.752 1459.58 354.752 1468.33 Q354.752 1476.51 350.863 1481.39 Q346.998 1486.25 340.447 1486.25 Q338.687 1486.25 336.882 1485.9 Q335.076 1485.56 333.132 1484.86 M342.437 1470.21 Q345.586 1470.21 347.414 1468.06 Q349.266 1465.9 349.266 1462.15 Q349.266 1458.43 347.414 1456.27 Q345.586 1454.1 342.437 1454.1 Q339.289 1454.1 337.437 1456.27 Q335.609 1458.43 335.609 1462.15 Q335.609 1465.9 337.437 1468.06 Q339.289 1470.21 342.437 1470.21 Z" fill="#000000" fill-rule="evenodd" fill-opacity="1" /><path clip-path="url(#clip440)" d="M373.155 1469.17 Q369.822 1469.17 367.9 1470.95 Q366.002 1472.73 366.002 1475.86 Q366.002 1478.98 367.9 1480.77 Q369.822 1482.55 373.155 1482.55 Q376.488 1482.55 378.409 1480.77 Q380.331 1478.96 380.331 1475.86 Q380.331 1472.73 378.409 1470.95 Q376.511 1469.17 373.155 1469.17 M368.479 1467.18 Q365.47 1466.44 363.78 1464.38 Q362.113 1462.32 362.113 1459.35 Q362.113 1455.21 365.053 1452.8 Q368.016 1450.39 373.155 1450.39 Q378.317 1450.39 381.257 1452.8 Q384.196 1455.21 384.196 1459.35 Q384.196 1462.32 382.507 1464.38 Q380.84 1466.44 377.854 1467.18 Q381.234 1467.96 383.109 1470.26 Q385.007 1472.55 385.007 1475.86 Q385.007 1480.88 381.928 1483.57 Q378.872 1486.25 373.155 1486.25 Q367.437 1486.25 364.359 1483.57 Q361.303 1480.88 361.303 1475.86 Q361.303 1472.55 363.201 1470.26 Q365.099 1467.96 368.479 1467.18 M366.766 1459.79 Q366.766 1462.48 368.433 1463.98 Q370.122 1465.49 373.155 1465.49 Q376.164 1465.49 377.854 1463.98 Q379.567 1462.48 379.567 1459.79 Q379.567 1457.11 377.854 1455.6 Q376.164 1454.1 373.155 1454.1 Q370.122 1454.1 368.433 1455.6 Q366.766 1457.11 366.766 1459.79 Z" fill="#000000" fill-rule="evenodd" fill-opacity="1" /><path clip-path="url(#clip440)" d="M403.317 1454.1 Q399.706 1454.1 397.877 1457.66 Q396.071 1461.2 396.071 1468.33 Q396.071 1475.44 397.877 1479.01 Q399.706 1482.55 403.317 1482.55 Q406.951 1482.55 408.757 1479.01 Q410.585 1475.44 410.585 1468.33 Q410.585 1461.2 408.757 1457.66 Q406.951 1454.1 403.317 1454.1 M403.317 1450.39 Q409.127 1450.39 412.182 1455 Q415.261 1459.58 415.261 1468.33 Q415.261 1477.06 412.182 1481.67 Q409.127 1486.25 403.317 1486.25 Q397.507 1486.25 394.428 1481.67 Q391.372 1477.06 391.372 1468.33 Q391.372 1459.58 394.428 1455 Q397.507 1450.39 403.317 1450.39 Z" fill="#000000" fill-rule="evenodd" fill-opacity="1" /><path clip-path="url(#clip440)" d="M725.917 1481.64 L733.556 1481.64 L733.556 1455.28 L725.246 1456.95 L725.246 1452.69 L733.509 1451.02 L738.185 1451.02 L738.185 1481.64 L745.824 1481.64 L745.824 1485.58 L725.917 1485.58 L725.917 1481.64 Z" fill="#000000" fill-rule="evenodd" fill-opacity="1" /><path clip-path="url(#clip440)" d="M765.269 1454.1 Q761.657 1454.1 759.829 1457.66 Q758.023 1461.2 758.023 1468.33 Q758.023 1475.44 759.829 1479.01 Q761.657 1482.55 765.269 1482.55 Q768.903 1482.55 770.708 1479.01 Q772.537 1475.44 772.537 1468.33 Q772.537 1461.2 770.708 1457.66 Q768.903 1454.1 765.269 1454.1 M765.269 1450.39 Q771.079 1450.39 774.134 1455 Q777.213 1459.58 777.213 1468.33 Q777.213 1477.06 774.134 1481.67 Q771.079 1486.25 765.269 1486.25 Q759.458 1486.25 756.38 1481.67 Q753.324 1477.06 753.324 1468.33 Q753.324 1459.58 756.38 1455 Q759.458 1450.39 765.269 1450.39 Z" fill="#000000" fill-rule="evenodd" fill-opacity="1" /><path clip-path="url(#clip440)" d="M795.43 1454.1 Q791.819 1454.1 789.991 1457.66 Q788.185 1461.2 788.185 1468.33 Q788.185 1475.44 789.991 1479.01 Q791.819 1482.55 795.43 1482.55 Q799.065 1482.55 800.87 1479.01 Q802.699 1475.44 802.699 1468.33 Q802.699 1461.2 800.87 1457.66 Q799.065 1454.1 795.43 1454.1 M795.43 1450.39 Q801.241 1450.39 804.296 1455 Q807.375 1459.58 807.375 1468.33 Q807.375 1477.06 804.296 1481.67 Q801.241 1486.25 795.43 1486.25 Q789.62 1486.25 786.542 1481.67 Q783.486 1477.06 783.486 1468.33 Q783.486 1459.58 786.542 1455 Q789.62 1450.39 795.43 1450.39 Z" fill="#000000" fill-rule="evenodd" fill-opacity="1" /><path clip-path="url(#clip440)" d="M825.592 1454.1 Q821.981 1454.1 820.153 1457.66 Q818.347 1461.2 818.347 1468.33 Q818.347 1475.44 820.153 1479.01 Q821.981 1482.55 825.592 1482.55 Q829.227 1482.55 831.032 1479.01 Q832.861 1475.44 832.861 1468.33 Q832.861 1461.2 831.032 1457.66 Q829.227 1454.1 825.592 1454.1 M825.592 1450.39 Q831.402 1450.39 834.458 1455 Q837.537 1459.58 837.537 1468.33 Q837.537 1477.06 834.458 1481.67 Q831.402 1486.25 825.592 1486.25 Q819.782 1486.25 816.703 1481.67 Q813.648 1477.06 813.648 1468.33 Q813.648 1459.58 816.703 1455 Q819.782 1450.39 825.592 1450.39 Z" fill="#000000" fill-rule="evenodd" fill-opacity="1" /><path clip-path="url(#clip440)" d="M1134.22 1481.64 L1141.86 1481.64 L1141.86 1455.28 L1133.55 1456.95 L1133.55 1452.69 L1141.82 1451.02 L1146.49 1451.02 L1146.49 1481.64 L1154.13 1481.64 L1154.13 1485.58 L1134.22 1485.58 L1134.22 1481.64 Z" fill="#000000" fill-rule="evenodd" fill-opacity="1" /><path clip-path="url(#clip440)" d="M1173.57 1454.1 Q1169.96 1454.1 1168.13 1457.66 Q1166.33 1461.2 1166.33 1468.33 Q1166.33 1475.44 1168.13 1479.01 Q1169.96 1482.55 1173.57 1482.55 Q1177.21 1482.55 1179.01 1479.01 Q1180.84 1475.44 1180.84 1468.33 Q1180.84 1461.2 1179.01 1457.66 Q1177.21 1454.1 1173.57 1454.1 M1173.57 1450.39 Q1179.38 1450.39 1182.44 1455 Q1185.52 1459.58 1185.52 1468.33 Q1185.52 1477.06 1182.44 1481.67 Q1179.38 1486.25 1173.57 1486.25 Q1167.76 1486.25 1164.69 1481.67 Q1161.63 1477.06 1161.63 1468.33 Q1161.63 1459.58 1164.69 1455 Q1167.76 1450.39 1173.57 1450.39 Z" fill="#000000" fill-rule="evenodd" fill-opacity="1" /><path clip-path="url(#clip440)" d="M1197.76 1481.64 L1214.08 1481.64 L1214.08 1485.58 L1192.14 1485.58 L1192.14 1481.64 Q1194.8 1478.89 1199.38 1474.26 Q1203.99 1469.61 1205.17 1468.27 Q1207.42 1465.74 1208.3 1464.01 Q1209.2 1462.25 1209.2 1460.56 Q1209.2 1457.8 1207.25 1456.07 Q1205.33 1454.33 1202.23 1454.33 Q1200.03 1454.33 1197.58 1455.09 Q1195.15 1455.86 1192.37 1457.41 L1192.37 1452.69 Q1195.19 1451.55 1197.65 1450.97 Q1200.1 1450.39 1202.14 1450.39 Q1207.51 1450.39 1210.7 1453.08 Q1213.9 1455.77 1213.9 1460.26 Q1213.9 1462.39 1213.09 1464.31 Q1212.3 1466.2 1210.19 1468.8 Q1209.62 1469.47 1206.51 1472.69 Q1203.41 1475.88 1197.76 1481.64 Z" fill="#000000" fill-rule="evenodd" fill-opacity="1" /><path clip-path="url(#clip440)" d="M1233.9 1454.1 Q1230.29 1454.1 1228.46 1457.66 Q1226.65 1461.2 1226.65 1468.33 Q1226.65 1475.44 1228.46 1479.01 Q1230.29 1482.55 1233.9 1482.55 Q1237.53 1482.55 1239.34 1479.01 Q1241.17 1475.44 1241.17 1468.33 Q1241.17 1461.2 1239.34 1457.66 Q1237.53 1454.1 1233.9 1454.1 M1233.9 1450.39 Q1239.71 1450.39 1242.76 1455 Q1245.84 1459.58 1245.84 1468.33 Q1245.84 1477.06 1242.76 1481.67 Q1239.71 1486.25 1233.9 1486.25 Q1228.09 1486.25 1225.01 1481.67 Q1221.95 1477.06 1221.95 1468.33 Q1221.95 1459.58 1225.01 1455 Q1228.09 1450.39 1233.9 1450.39 Z" fill="#000000" fill-rule="evenodd" fill-opacity="1" /><path clip-path="url(#clip440)" d="M1542.53 1481.64 L1550.17 1481.64 L1550.17 1455.28 L1541.86 1456.95 L1541.86 1452.69 L1550.12 1451.02 L1554.8 1451.02 L1554.8 1481.64 L1562.44 1481.64 L1562.44 1485.58 L1542.53 1485.58 L1542.53 1481.64 Z" fill="#000000" fill-rule="evenodd" fill-opacity="1" /><path clip-path="url(#clip440)" d="M1581.88 1454.1 Q1578.27 1454.1 1576.44 1457.66 Q1574.63 1461.2 1574.63 1468.33 Q1574.63 1475.44 1576.44 1479.01 Q1578.27 1482.55 1581.88 1482.55 Q1585.51 1482.55 1587.32 1479.01 Q1589.15 1475.44 1589.15 1468.33 Q1589.15 1461.2 1587.32 1457.66 Q1585.51 1454.1 1581.88 1454.1 M1581.88 1450.39 Q1587.69 1450.39 1590.75 1455 Q1593.82 1459.58 1593.82 1468.33 Q1593.82 1477.06 1590.75 1481.67 Q1587.69 1486.25 1581.88 1486.25 Q1576.07 1486.25 1572.99 1481.67 Q1569.94 1477.06 1569.94 1468.33 Q1569.94 1459.58 1572.99 1455 Q1576.07 1450.39 1581.88 1450.39 Z" fill="#000000" fill-rule="evenodd" fill-opacity="1" /><path clip-path="url(#clip440)" d="M1614.89 1455.09 L1603.08 1473.54 L1614.89 1473.54 L1614.89 1455.09 M1613.66 1451.02 L1619.54 1451.02 L1619.54 1473.54 L1624.47 1473.54 L1624.47 1477.43 L1619.54 1477.43 L1619.54 1485.58 L1614.89 1485.58 L1614.89 1477.43 L1599.29 1477.43 L1599.29 1472.92 L1613.66 1451.02 Z" fill="#000000" fill-rule="evenodd" fill-opacity="1" /><path clip-path="url(#clip440)" d="M1642.2 1454.1 Q1638.59 1454.1 1636.76 1457.66 Q1634.96 1461.2 1634.96 1468.33 Q1634.96 1475.44 1636.76 1479.01 Q1638.59 1482.55 1642.2 1482.55 Q1645.84 1482.55 1647.64 1479.01 Q1649.47 1475.44 1649.47 1468.33 Q1649.47 1461.2 1647.64 1457.66 Q1645.84 1454.1 1642.2 1454.1 M1642.2 1450.39 Q1648.01 1450.39 1651.07 1455 Q1654.15 1459.58 1654.15 1468.33 Q1654.15 1477.06 1651.07 1481.67 Q1648.01 1486.25 1642.2 1486.25 Q1636.39 1486.25 1633.32 1481.67 Q1630.26 1477.06 1630.26 1468.33 Q1630.26 1459.58 1633.32 1455 Q1636.39 1450.39 1642.2 1450.39 Z" fill="#000000" fill-rule="evenodd" fill-opacity="1" /><path clip-path="url(#clip440)" d="M1950.83 1481.64 L1958.47 1481.64 L1958.47 1455.28 L1950.16 1456.95 L1950.16 1452.69 L1958.43 1451.02 L1963.1 1451.02 L1963.1 1481.64 L1970.74 1481.64 L1970.74 1485.58 L1950.83 1485.58 L1950.83 1481.64 Z" fill="#000000" fill-rule="evenodd" fill-opacity="1" /><path clip-path="url(#clip440)" d="M1990.19 1454.1 Q1986.57 1454.1 1984.75 1457.66 Q1982.94 1461.2 1982.94 1468.33 Q1982.94 1475.44 1984.75 1479.01 Q1986.57 1482.55 1990.19 1482.55 Q1993.82 1482.55 1995.63 1479.01 Q1997.45 1475.44 1997.45 1468.33 Q1997.45 1461.2 1995.63 1457.66 Q1993.82 1454.1 1990.19 1454.1 M1990.19 1450.39 Q1996 1450.39 1999.05 1455 Q2002.13 1459.58 2002.13 1468.33 Q2002.13 1477.06 1999.05 1481.67 Q1996 1486.25 1990.19 1486.25 Q1984.38 1486.25 1981.3 1481.67 Q1978.24 1477.06 1978.24 1468.33 Q1978.24 1459.58 1981.3 1455 Q1984.38 1450.39 1990.19 1450.39 Z" fill="#000000" fill-rule="evenodd" fill-opacity="1" /><path clip-path="url(#clip440)" d="M2020.93 1466.44 Q2017.78 1466.44 2015.93 1468.59 Q2014.1 1470.74 2014.1 1474.49 Q2014.1 1478.22 2015.93 1480.39 Q2017.78 1482.55 2020.93 1482.55 Q2024.07 1482.55 2025.9 1480.39 Q2027.76 1478.22 2027.76 1474.49 Q2027.76 1470.74 2025.9 1468.59 Q2024.07 1466.44 2020.93 1466.44 M2030.21 1451.78 L2030.21 1456.04 Q2028.45 1455.21 2026.64 1454.77 Q2024.86 1454.33 2023.1 1454.33 Q2018.47 1454.33 2016.02 1457.45 Q2013.59 1460.58 2013.24 1466.9 Q2014.61 1464.89 2016.67 1463.82 Q2018.73 1462.73 2021.2 1462.73 Q2026.41 1462.73 2029.42 1465.9 Q2032.45 1469.05 2032.45 1474.49 Q2032.45 1479.82 2029.31 1483.03 Q2026.16 1486.25 2020.93 1486.25 Q2014.93 1486.25 2011.76 1481.67 Q2008.59 1477.06 2008.59 1468.33 Q2008.59 1460.14 2012.48 1455.28 Q2016.37 1450.39 2022.92 1450.39 Q2024.68 1450.39 2026.46 1450.74 Q2028.26 1451.09 2030.21 1451.78 Z" fill="#000000" fill-rule="evenodd" fill-opacity="1" /><path clip-path="url(#clip440)" d="M2050.51 1454.1 Q2046.9 1454.1 2045.07 1457.66 Q2043.26 1461.2 2043.26 1468.33 Q2043.26 1475.44 2045.07 1479.01 Q2046.9 1482.55 2050.51 1482.55 Q2054.14 1482.55 2055.95 1479.01 Q2057.78 1475.44 2057.78 1468.33 Q2057.78 1461.2 2055.95 1457.66 Q2054.14 1454.1 2050.51 1454.1 M2050.51 1450.39 Q2056.32 1450.39 2059.38 1455 Q2062.45 1459.58 2062.45 1468.33 Q2062.45 1477.06 2059.38 1481.67 Q2056.32 1486.25 2050.51 1486.25 Q2044.7 1486.25 2041.62 1481.67 Q2038.57 1477.06 2038.57 1468.33 Q2038.57 1459.58 2041.62 1455 Q2044.7 1450.39 2050.51 1450.39 Z" fill="#000000" fill-rule="evenodd" fill-opacity="1" /><path clip-path="url(#clip440)" d="M1170.01 1532.4 L1157.12 1549.74 L1170.68 1568.04 L1163.77 1568.04 L1153.39 1554.04 L1143.02 1568.04 L1136.11 1568.04 L1149.95 1549.39 L1137.29 1532.4 L1144.19 1532.4 L1153.65 1545.1 L1163.1 1532.4 L1170.01 1532.4 Z" fill="#000000" fill-rule="evenodd" fill-opacity="1" /><path clip-path="url(#clip440)" d="M1199.13 1518.52 L1212.63 1518.52 L1212.63 1523.07 L1204.99 1523.07 L1204.99 1572.09 L1212.63 1572.09 L1212.63 1576.64 L1199.13 1576.64 L1199.13 1518.52 Z" fill="#000000" fill-rule="evenodd" fill-opacity="1" /><path clip-path="url(#clip440)" d="M1230.77 1562.7 L1230.77 1581.6 L1224.88 1581.6 L1224.88 1532.4 L1230.77 1532.4 L1230.77 1537.81 Q1232.61 1534.62 1235.41 1533.1 Q1238.25 1531.54 1242.16 1531.54 Q1248.66 1531.54 1252.7 1536.69 Q1256.77 1541.85 1256.77 1550.25 Q1256.77 1558.65 1252.7 1563.81 Q1248.66 1568.97 1242.16 1568.97 Q1238.25 1568.97 1235.41 1567.44 Q1232.61 1565.88 1230.77 1562.7 M1250.69 1550.25 Q1250.69 1543.79 1248.02 1540.13 Q1245.38 1536.44 1240.73 1536.44 Q1236.08 1536.44 1233.41 1540.13 Q1230.77 1543.79 1230.77 1550.25 Q1230.77 1556.71 1233.41 1560.4 Q1236.08 1564.07 1240.73 1564.07 Q1245.38 1564.07 1248.02 1560.4 Q1250.69 1556.71 1250.69 1550.25 Z" fill="#000000" fill-rule="evenodd" fill-opacity="1" /><path clip-path="url(#clip440)" d="M1266.48 1532.4 L1272.34 1532.4 L1272.34 1568.04 L1266.48 1568.04 L1266.48 1532.4 M1266.48 1518.52 L1272.34 1518.52 L1272.34 1525.93 L1266.48 1525.93 L1266.48 1518.52 Z" fill="#000000" fill-rule="evenodd" fill-opacity="1" /><path clip-path="url(#clip440)" d="M1314.22 1532.4 L1301.33 1549.74 L1314.89 1568.04 L1307.98 1568.04 L1297.61 1554.04 L1287.23 1568.04 L1280.32 1568.04 L1294.17 1549.39 L1281.5 1532.4 L1288.41 1532.4 L1297.86 1545.1 L1307.32 1532.4 L1314.22 1532.4 Z" fill="#000000" fill-rule="evenodd" fill-opacity="1" /><path clip-path="url(#clip440)" d="M1351.65 1548.76 L1351.65 1551.62 L1324.73 1551.62 Q1325.11 1557.67 1328.35 1560.85 Q1331.63 1564 1337.46 1564 Q1340.83 1564 1343.98 1563.17 Q1347.16 1562.35 1350.28 1560.69 L1350.28 1566.23 Q1347.13 1567.57 1343.82 1568.27 Q1340.51 1568.97 1337.11 1568.97 Q1328.58 1568.97 1323.58 1564 Q1318.61 1559.04 1318.61 1550.57 Q1318.61 1541.82 1323.32 1536.69 Q1328.07 1531.54 1336.09 1531.54 Q1343.28 1531.54 1347.45 1536.18 Q1351.65 1540.8 1351.65 1548.76 M1345.8 1547.04 Q1345.73 1542.23 1343.09 1539.37 Q1340.48 1536.5 1336.15 1536.5 Q1331.25 1536.5 1328.29 1539.27 Q1325.36 1542.04 1324.92 1547.07 L1345.8 1547.04 Z" fill="#000000" fill-rule="evenodd" fill-opacity="1" /><path clip-path="url(#clip440)" d="M1361.26 1518.52 L1367.12 1518.52 L1367.12 1568.04 L1361.26 1568.04 L1361.26 1518.52 Z" fill="#000000" fill-rule="evenodd" fill-opacity="1" /><path clip-path="url(#clip440)" d="M1402.1 1533.45 L1402.1 1538.98 Q1399.62 1537.71 1396.94 1537.07 Q1394.27 1536.44 1391.41 1536.44 Q1387.05 1536.44 1384.85 1537.77 Q1382.68 1539.11 1382.68 1541.79 Q1382.68 1543.82 1384.24 1545 Q1385.8 1546.15 1390.51 1547.2 L1392.52 1547.64 Q1398.76 1548.98 1401.37 1551.43 Q1404.01 1553.85 1404.01 1558.21 Q1404.01 1563.17 1400.06 1566.07 Q1396.15 1568.97 1389.27 1568.97 Q1386.41 1568.97 1383.29 1568.39 Q1380.2 1567.85 1376.76 1566.74 L1376.76 1560.69 Q1380.01 1562.38 1383.16 1563.24 Q1386.31 1564.07 1389.4 1564.07 Q1393.54 1564.07 1395.77 1562.66 Q1397.99 1561.23 1397.99 1558.65 Q1397.99 1556.27 1396.37 1554.99 Q1394.78 1553.72 1389.34 1552.54 L1387.3 1552.07 Q1381.86 1550.92 1379.44 1548.56 Q1377.02 1546.18 1377.02 1542.04 Q1377.02 1537.01 1380.58 1534.27 Q1384.15 1531.54 1390.71 1531.54 Q1393.95 1531.54 1396.82 1532.01 Q1399.68 1532.49 1402.1 1533.45 Z" fill="#000000" fill-rule="evenodd" fill-opacity="1" /><path clip-path="url(#clip440)" d="M1427.02 1518.52 L1427.02 1576.64 L1413.53 1576.64 L1413.53 1572.09 L1421.13 1572.09 L1421.13 1523.07 L1413.53 1523.07 L1413.53 1518.52 L1427.02 1518.52 Z" fill="#000000" fill-rule="evenodd" fill-opacity="1" /><polyline clip-path="url(#clip442)" style="stroke:#000000; stroke-linecap:butt; stroke-linejoin:round; stroke-width:2; stroke-opacity:0.1; fill:none" points="
  210.376,1300.32 2352.76,1300.32 
  "/>
<polyline clip-path="url(#clip442)" style="stroke:#000000; stroke-linecap:butt; stroke-linejoin:round; stroke-width:2; stroke-opacity:0.1; fill:none" points="
  210.376,1070.67 2352.76,1070.67 
  "/>
<polyline clip-path="url(#clip442)" style="stroke:#000000; stroke-linecap:butt; stroke-linejoin:round; stroke-width:2; stroke-opacity:0.1; fill:none" points="
  210.376,841.03 2352.76,841.03 
  "/>
<polyline clip-path="url(#clip442)" style="stroke:#000000; stroke-linecap:butt; stroke-linejoin:round; stroke-width:2; stroke-opacity:0.1; fill:none" points="
  210.376,611.384 2352.76,611.384 
  "/>
<polyline clip-path="url(#clip442)" style="stroke:#000000; stroke-linecap:butt; stroke-linejoin:round; stroke-width:2; stroke-opacity:0.1; fill:none" points="
  210.376,381.739 2352.76,381.739 
  "/>
<polyline clip-path="url(#clip440)" style="stroke:#000000; stroke-linecap:butt; stroke-linejoin:round; stroke-width:4; stroke-opacity:1; fill:none" points="
  210.376,1423.18 210.376,183.952 
  "/>
<polyline clip-path="url(#clip440)" style="stroke:#000000; stroke-linecap:butt; stroke-linejoin:round; stroke-width:4; stroke-opacity:1; fill:none" points="
  210.376,1300.32 229.273,1300.32 
  "/>
<polyline clip-path="url(#clip440)" style="stroke:#000000; stroke-linecap:butt; stroke-linejoin:round; stroke-width:4; stroke-opacity:1; fill:none" points="
  210.376,1070.67 229.273,1070.67 
  "/>
<polyline clip-path="url(#clip440)" style="stroke:#000000; stroke-linecap:butt; stroke-linejoin:round; stroke-width:4; stroke-opacity:1; fill:none" points="
  210.376,841.03 229.273,841.03 
  "/>
<polyline clip-path="url(#clip440)" style="stroke:#000000; stroke-linecap:butt; stroke-linejoin:round; stroke-width:4; stroke-opacity:1; fill:none" points="
  210.376,611.384 229.273,611.384 
  "/>
<polyline clip-path="url(#clip440)" style="stroke:#000000; stroke-linecap:butt; stroke-linejoin:round; stroke-width:4; stroke-opacity:1; fill:none" points="
  210.376,381.739 229.273,381.739 
  "/>
<path clip-path="url(#clip440)" d="M114.26 1300.77 L143.936 1300.77 L143.936 1304.71 L114.26 1304.71 L114.26 1300.77 Z" fill="#000000" fill-rule="evenodd" fill-opacity="1" /><path clip-path="url(#clip440)" d="M158.056 1313.66 L174.376 1313.66 L174.376 1317.6 L152.431 1317.6 L152.431 1313.66 Q155.093 1310.91 159.677 1306.28 Q164.283 1301.63 165.464 1300.29 Q167.709 1297.76 168.589 1296.03 Q169.491 1294.27 169.491 1292.58 Q169.491 1289.82 167.547 1288.09 Q165.626 1286.35 162.524 1286.35 Q160.325 1286.35 157.871 1287.11 Q155.44 1287.88 152.663 1289.43 L152.663 1284.71 Q155.487 1283.57 157.94 1282.99 Q160.394 1282.41 162.431 1282.41 Q167.802 1282.41 170.996 1285.1 Q174.19 1287.79 174.19 1292.28 Q174.19 1294.41 173.38 1296.33 Q172.593 1298.22 170.487 1300.82 Q169.908 1301.49 166.806 1304.71 Q163.704 1307.9 158.056 1313.66 Z" fill="#000000" fill-rule="evenodd" fill-opacity="1" /><path clip-path="url(#clip440)" d="M162.431 1056.47 Q158.82 1056.47 156.991 1060.04 Q155.186 1063.58 155.186 1070.71 Q155.186 1077.82 156.991 1081.38 Q158.82 1084.92 162.431 1084.92 Q166.065 1084.92 167.871 1081.38 Q169.7 1077.82 169.7 1070.71 Q169.7 1063.58 167.871 1060.04 Q166.065 1056.47 162.431 1056.47 M162.431 1052.77 Q168.241 1052.77 171.297 1057.38 Q174.376 1061.96 174.376 1070.71 Q174.376 1079.44 171.297 1084.04 Q168.241 1088.63 162.431 1088.63 Q156.621 1088.63 153.542 1084.04 Q150.487 1079.44 150.487 1070.71 Q150.487 1061.96 153.542 1057.38 Q156.621 1052.77 162.431 1052.77 Z" fill="#000000" fill-rule="evenodd" fill-opacity="1" /><path clip-path="url(#clip440)" d="M158.056 854.374 L174.376 854.374 L174.376 858.31 L152.431 858.31 L152.431 854.374 Q155.093 851.62 159.677 846.99 Q164.283 842.337 165.464 840.995 Q167.709 838.472 168.589 836.736 Q169.491 834.976 169.491 833.287 Q169.491 830.532 167.547 828.796 Q165.626 827.06 162.524 827.06 Q160.325 827.06 157.871 827.824 Q155.44 828.588 152.663 830.138 L152.663 825.416 Q155.487 824.282 157.94 823.703 Q160.394 823.125 162.431 823.125 Q167.802 823.125 170.996 825.81 Q174.19 828.495 174.19 832.986 Q174.19 835.115 173.38 837.037 Q172.593 838.935 170.487 841.527 Q169.908 842.199 166.806 845.416 Q163.704 848.611 158.056 854.374 Z" fill="#000000" fill-rule="evenodd" fill-opacity="1" /><path clip-path="url(#clip440)" d="M164.792 598.179 L152.987 616.628 L164.792 616.628 L164.792 598.179 M163.565 594.104 L169.445 594.104 L169.445 616.628 L174.376 616.628 L174.376 620.516 L169.445 620.516 L169.445 628.664 L164.792 628.664 L164.792 620.516 L149.191 620.516 L149.191 616.003 L163.565 594.104 Z" fill="#000000" fill-rule="evenodd" fill-opacity="1" /><path clip-path="url(#clip440)" d="M162.848 379.876 Q159.7 379.876 157.848 382.029 Q156.019 384.181 156.019 387.931 Q156.019 391.658 157.848 393.834 Q159.7 395.987 162.848 395.987 Q165.996 395.987 167.825 393.834 Q169.677 391.658 169.677 387.931 Q169.677 384.181 167.825 382.029 Q165.996 379.876 162.848 379.876 M172.13 365.223 L172.13 369.482 Q170.371 368.649 168.565 368.209 Q166.783 367.77 165.024 367.77 Q160.394 367.77 157.94 370.895 Q155.51 374.02 155.163 380.339 Q156.528 378.325 158.589 377.26 Q160.649 376.172 163.126 376.172 Q168.334 376.172 171.343 379.344 Q174.376 382.492 174.376 387.931 Q174.376 393.256 171.227 396.473 Q168.079 399.691 162.848 399.691 Q156.853 399.691 153.681 395.107 Q150.51 390.501 150.51 381.774 Q150.51 373.58 154.399 368.719 Q158.288 363.834 164.839 363.834 Q166.598 363.834 168.38 364.182 Q170.186 364.529 172.13 365.223 Z" fill="#000000" fill-rule="evenodd" fill-opacity="1" /><path clip-path="url(#clip440)" d="M21.7677 978.305 L39.6235 978.305 L39.6235 970.22 Q39.6235 965.732 37.3 963.282 Q34.9765 960.831 30.6797 960.831 Q26.4147 960.831 24.0912 963.282 Q21.7677 965.732 21.7677 970.22 L21.7677 978.305 M16.4842 984.734 L16.4842 970.22 Q16.4842 962.231 20.1126 958.157 Q23.7092 954.051 30.6797 954.051 Q37.7138 954.051 41.3104 958.157 Q44.907 962.231 44.907 970.22 L44.907 978.305 L64.0042 978.305 L64.0042 984.734 L16.4842 984.734 Z" fill="#000000" fill-rule="evenodd" fill-opacity="1" /><path clip-path="url(#clip440)" d="M42.4881 916.048 L64.0042 916.048 L64.0042 921.904 L42.679 921.904 Q37.6183 921.904 35.1038 923.878 Q32.5894 925.851 32.5894 929.798 Q32.5894 934.54 35.6131 937.278 Q38.6368 940.015 43.8567 940.015 L64.0042 940.015 L64.0042 945.903 L14.479 945.903 L14.479 940.015 L33.8944 940.015 Q30.6797 937.914 29.0883 935.081 Q27.4968 932.217 27.4968 928.493 Q27.4968 922.35 31.3163 919.199 Q35.1038 916.048 42.4881 916.048 Z" fill="#000000" fill-rule="evenodd" fill-opacity="1" /><path clip-path="url(#clip440)" d="M46.0847 888.166 Q46.0847 895.264 47.7079 898.001 Q49.3312 900.738 53.2461 900.738 Q56.3653 900.738 58.2114 898.701 Q60.0256 896.633 60.0256 893.1 Q60.0256 888.23 56.5881 885.302 Q53.1188 882.342 47.3897 882.342 L46.0847 882.342 L46.0847 888.166 M43.6657 876.485 L64.0042 876.485 L64.0042 882.342 L58.5933 882.342 Q61.8398 884.347 63.3994 887.339 Q64.9272 890.331 64.9272 894.659 Q64.9272 900.134 61.8716 903.38 Q58.7843 906.595 53.6281 906.595 Q47.6125 906.595 44.5569 902.585 Q41.5014 898.542 41.5014 890.553 L41.5014 882.342 L40.9285 882.342 Q36.8862 882.342 34.6901 885.015 Q32.4621 887.657 32.4621 892.463 Q32.4621 895.519 33.1941 898.415 Q33.9262 901.311 35.3903 903.985 L29.9795 903.985 Q28.7381 900.77 28.1334 897.747 Q27.4968 894.723 27.4968 891.858 Q27.4968 884.124 31.5072 880.305 Q35.5176 876.485 43.6657 876.485 Z" fill="#000000" fill-rule="evenodd" fill-opacity="1" /><path clip-path="url(#clip440)" d="M29.4065 841.697 L34.9447 841.697 Q33.6716 844.179 33.035 846.853 Q32.3984 849.526 32.3984 852.391 Q32.3984 856.751 33.7352 858.948 Q35.072 861.112 37.7456 861.112 Q39.7826 861.112 40.9603 859.552 Q42.1061 857.993 43.1565 853.282 L43.6021 851.277 Q44.9389 845.039 47.3897 842.429 Q49.8086 839.787 54.1691 839.787 Q59.1344 839.787 62.0308 843.734 Q64.9272 847.649 64.9272 854.523 Q64.9272 857.388 64.3543 860.507 Q63.8132 863.595 62.6992 867.032 L56.6518 867.032 Q58.3387 863.786 59.198 860.635 Q60.0256 857.484 60.0256 854.396 Q60.0256 850.258 58.6251 848.03 Q57.1929 845.802 54.6147 845.802 Q52.2276 845.802 50.9545 847.426 Q49.6813 849.017 48.5037 854.46 L48.0262 856.497 Q46.8804 861.94 44.5251 864.358 Q42.138 866.777 38.0002 866.777 Q32.9713 866.777 30.2341 863.213 Q27.4968 859.648 27.4968 853.091 Q27.4968 849.845 27.9743 846.98 Q28.4517 844.116 29.4065 841.697 Z" fill="#000000" fill-rule="evenodd" fill-opacity="1" /><path clip-path="url(#clip440)" d="M44.7161 799.969 L47.5806 799.969 L47.5806 826.896 Q53.6281 826.514 56.8109 823.268 Q59.9619 819.99 59.9619 814.165 Q59.9619 810.791 59.1344 807.64 Q58.3069 804.457 56.6518 801.338 L62.1899 801.338 Q63.5267 804.489 64.227 807.799 Q64.9272 811.109 64.9272 814.515 Q64.9272 823.045 59.9619 828.042 Q54.9967 833.007 46.5303 833.007 Q37.7774 833.007 32.6531 828.297 Q27.4968 823.554 27.4968 815.534 Q27.4968 808.34 32.1438 804.171 Q36.7589 799.969 44.7161 799.969 M42.9973 805.826 Q38.1912 805.889 35.3266 808.531 Q32.4621 811.141 32.4621 815.47 Q32.4621 820.371 35.2312 823.332 Q38.0002 826.26 43.0292 826.705 L42.9973 805.826 Z" fill="#000000" fill-rule="evenodd" fill-opacity="1" /><path clip-path="url(#clip440)" d="M14.479 770.178 L14.479 756.683 L19.0304 756.683 L19.0304 764.321 L68.0464 764.321 L68.0464 756.683 L72.5979 756.683 L72.5979 770.178 L14.479 770.178 Z" fill="#000000" fill-rule="evenodd" fill-opacity="1" /><path clip-path="url(#clip440)" d="M33.8307 723.549 Q33.2578 724.536 33.0032 725.713 Q32.7167 726.859 32.7167 728.26 Q32.7167 733.225 35.9632 735.899 Q39.1779 738.54 45.2253 738.54 L64.0042 738.54 L64.0042 744.429 L28.3562 744.429 L28.3562 738.54 L33.8944 738.54 Q30.6479 736.694 29.0883 733.734 Q27.4968 730.774 27.4968 726.541 Q27.4968 725.936 27.5923 725.204 Q27.656 724.472 27.8151 723.581 L33.8307 723.549 Z" fill="#000000" fill-rule="evenodd" fill-opacity="1" /><path clip-path="url(#clip440)" d="M46.0847 701.205 Q46.0847 708.303 47.7079 711.04 Q49.3312 713.778 53.2461 713.778 Q56.3653 713.778 58.2114 711.741 Q60.0256 709.672 60.0256 706.139 Q60.0256 701.269 56.5881 698.341 Q53.1188 695.381 47.3897 695.381 L46.0847 695.381 L46.0847 701.205 M43.6657 689.524 L64.0042 689.524 L64.0042 695.381 L58.5933 695.381 Q61.8398 697.386 63.3994 700.378 Q64.9272 703.37 64.9272 707.698 Q64.9272 713.173 61.8716 716.419 Q58.7843 719.634 53.6281 719.634 Q47.6125 719.634 44.5569 715.624 Q41.5014 711.582 41.5014 703.593 L41.5014 695.381 L40.9285 695.381 Q36.8862 695.381 34.6901 698.054 Q32.4621 700.696 32.4621 705.502 Q32.4621 708.558 33.1941 711.454 Q33.9262 714.351 35.3903 717.024 L29.9795 717.024 Q28.7381 713.81 28.1334 710.786 Q27.4968 707.762 27.4968 704.898 Q27.4968 697.163 31.5072 693.344 Q35.5176 689.524 43.6657 689.524 Z" fill="#000000" fill-rule="evenodd" fill-opacity="1" /><path clip-path="url(#clip440)" d="M33.7671 654.004 L14.479 654.004 L14.479 648.147 L64.0042 648.147 L64.0042 654.004 L58.657 654.004 Q61.8398 655.85 63.3994 658.683 Q64.9272 661.483 64.9272 665.43 Q64.9272 671.891 59.771 675.965 Q54.6147 680.008 46.212 680.008 Q37.8093 680.008 32.6531 675.965 Q27.4968 671.891 27.4968 665.43 Q27.4968 661.483 29.0564 658.683 Q30.5842 655.85 33.7671 654.004 M46.212 673.96 Q52.6732 673.96 56.3653 671.318 Q60.0256 668.645 60.0256 663.998 Q60.0256 659.351 56.3653 656.677 Q52.6732 654.004 46.212 654.004 Q39.7508 654.004 36.0905 656.677 Q32.3984 659.351 32.3984 663.998 Q32.3984 668.645 36.0905 671.318 Q39.7508 673.96 46.212 673.96 Z" fill="#000000" fill-rule="evenodd" fill-opacity="1" /><path clip-path="url(#clip440)" d="M14.479 622.398 L72.5979 622.398 L72.5979 635.893 L68.0464 635.893 L68.0464 628.286 L19.0304 628.286 L19.0304 635.893 L14.479 635.893 L14.479 622.398 Z" fill="#000000" fill-rule="evenodd" fill-opacity="1" /><path clip-path="url(#clip440)" d="M190.131 65.3877 Q192.764 66.2789 195.235 69.1955 Q197.746 72.1122 200.258 77.2163 L208.562 93.744 L199.772 93.744 L192.035 78.229 Q189.037 72.1527 186.201 70.1677 Q183.406 68.1828 178.545 68.1828 L169.633 68.1828 L169.633 93.744 L161.45 93.744 L161.45 33.264 L179.922 33.264 Q190.293 33.264 195.397 37.5985 Q200.501 41.9329 200.501 50.6829 Q200.501 56.3947 197.827 60.162 Q195.194 63.9293 190.131 65.3877 M169.633 39.9885 L169.633 61.4583 L179.922 61.4583 Q185.837 61.4583 188.834 58.7442 Q191.873 55.9896 191.873 50.6829 Q191.873 45.3762 188.834 42.7026 Q185.837 39.9885 179.922 39.9885 L169.633 39.9885 Z" fill="#000000" fill-rule="evenodd" fill-opacity="1" /><path clip-path="url(#clip440)" d="M237.567 70.9374 Q228.533 70.9374 225.049 73.0034 Q221.566 75.0693 221.566 80.0519 Q221.566 84.0218 224.158 86.3714 Q226.791 88.6804 231.288 88.6804 Q237.486 88.6804 241.213 84.3054 Q244.98 79.8899 244.98 72.5983 L244.98 70.9374 L237.567 70.9374 M252.434 67.8587 L252.434 93.744 L244.98 93.744 L244.98 86.8575 Q242.428 90.9894 238.62 92.9743 Q234.812 94.9188 229.303 94.9188 Q222.335 94.9188 218.203 91.0299 Q214.112 87.1005 214.112 80.5381 Q214.112 72.8818 219.216 68.993 Q224.361 65.1041 234.529 65.1041 L244.98 65.1041 L244.98 64.3749 Q244.98 59.2303 241.577 56.4352 Q238.215 53.5995 232.098 53.5995 Q228.209 53.5995 224.523 54.5312 Q220.836 55.463 217.434 57.3264 L217.434 50.4398 Q221.525 48.86 225.373 48.0903 Q229.222 47.2801 232.868 47.2801 Q242.711 47.2801 247.572 52.3843 Q252.434 57.4884 252.434 67.8587 Z" fill="#000000" fill-rule="evenodd" fill-opacity="1" /><path clip-path="url(#clip440)" d="M297.642 55.2604 L297.642 30.7119 L305.095 30.7119 L305.095 93.744 L297.642 93.744 L297.642 86.9385 Q295.292 90.9894 291.687 92.9743 Q288.122 94.9188 283.099 94.9188 Q274.876 94.9188 269.69 88.3563 Q264.546 81.7938 264.546 71.0994 Q264.546 60.4051 269.69 53.8426 Q274.876 47.2801 283.099 47.2801 Q288.122 47.2801 291.687 49.2651 Q295.292 51.2095 297.642 55.2604 M272.242 71.0994 Q272.242 79.3228 275.605 84.0218 Q279.007 88.6804 284.922 88.6804 Q290.836 88.6804 294.239 84.0218 Q297.642 79.3228 297.642 71.0994 Q297.642 62.8761 294.239 58.2176 Q290.836 53.5185 284.922 53.5185 Q279.007 53.5185 275.605 58.2176 Q272.242 62.8761 272.242 71.0994 Z" fill="#000000" fill-rule="evenodd" fill-opacity="1" /><path clip-path="url(#clip440)" d="M320.448 48.3739 L327.902 48.3739 L327.902 93.744 L320.448 93.744 L320.448 48.3739 M320.448 30.7119 L327.902 30.7119 L327.902 40.1505 L320.448 40.1505 L320.448 30.7119 Z" fill="#000000" fill-rule="evenodd" fill-opacity="1" /><path clip-path="url(#clip440)" d="M342.728 75.839 L342.728 48.3739 L350.182 48.3739 L350.182 75.5554 Q350.182 81.9964 352.693 85.2371 Q355.205 88.4373 360.228 88.4373 Q366.264 88.4373 369.748 84.589 Q373.272 80.7406 373.272 74.0971 L373.272 48.3739 L380.726 48.3739 L380.726 93.744 L373.272 93.744 L373.272 86.7764 Q370.558 90.9084 366.953 92.9338 Q363.388 94.9188 358.648 94.9188 Q350.83 94.9188 346.779 90.0577 Q342.728 85.1966 342.728 75.839 M361.484 47.2801 L361.484 47.2801 Z" fill="#000000" fill-rule="evenodd" fill-opacity="1" /><path clip-path="url(#clip440)" d="M425.002 49.7107 L425.002 56.7592 Q421.842 55.1389 418.44 54.3287 Q415.037 53.5185 411.391 53.5185 Q405.841 53.5185 403.046 55.2199 Q400.292 56.9213 400.292 60.324 Q400.292 62.9166 402.276 64.4155 Q404.261 65.8738 410.257 67.2106 L412.809 67.7777 Q420.749 69.4791 424.07 72.5983 Q427.433 75.677 427.433 81.2267 Q427.433 87.5461 422.409 91.2324 Q417.427 94.9188 408.677 94.9188 Q405.031 94.9188 401.061 94.1896 Q397.132 93.5009 392.757 92.0831 L392.757 84.3864 Q396.889 86.5334 400.899 87.6271 Q404.91 88.6804 408.839 88.6804 Q414.105 88.6804 416.941 86.898 Q419.776 85.0751 419.776 81.7938 Q419.776 78.7557 417.71 77.1353 Q415.685 75.5149 408.758 74.0161 L406.165 73.4085 Q399.238 71.9501 396.16 68.9525 Q393.081 65.9143 393.081 60.6481 Q393.081 54.2477 397.618 50.7639 Q402.155 47.2801 410.5 47.2801 Q414.632 47.2801 418.278 47.8878 Q421.923 48.4954 425.002 49.7107 Z" fill="#000000" fill-rule="evenodd" fill-opacity="1" /><path clip-path="url(#clip440)" d="M441.206 83.4547 L449.753 83.4547 L449.753 93.744 L441.206 93.744 L441.206 83.4547 M441.206 50.8449 L449.753 50.8449 L449.753 61.1342 L441.206 61.1342 L441.206 50.8449 Z" fill="#000000" fill-rule="evenodd" fill-opacity="1" /><path clip-path="url(#clip440)" d="M496.095 86.8575 L509.463 86.8575 L509.463 40.7177 L494.921 43.6343 L494.921 36.1807 L509.382 33.264 L517.565 33.264 L517.565 86.8575 L530.933 86.8575 L530.933 93.744 L496.095 93.744 L496.095 86.8575 Z" fill="#000000" fill-rule="evenodd" fill-opacity="1" /><path clip-path="url(#clip440)" d="M564.961 38.6517 Q558.641 38.6517 555.441 44.8901 Q552.281 51.088 552.281 63.5648 Q552.281 76.001 555.441 82.2394 Q558.641 88.4373 564.961 88.4373 Q571.321 88.4373 574.48 82.2394 Q577.681 76.001 577.681 63.5648 Q577.681 51.088 574.48 44.8901 Q571.321 38.6517 564.961 38.6517 M564.961 32.1703 Q575.129 32.1703 580.476 40.2316 Q585.863 48.2523 585.863 63.5648 Q585.863 78.8367 580.476 86.898 Q575.129 94.9188 564.961 94.9188 Q554.793 94.9188 549.405 86.898 Q544.058 78.8367 544.058 63.5648 Q544.058 48.2523 549.405 40.2316 Q554.793 32.1703 564.961 32.1703 Z" fill="#000000" fill-rule="evenodd" fill-opacity="1" /><path clip-path="url(#clip440)" d="M617.744 38.6517 Q611.425 38.6517 608.224 44.8901 Q605.065 51.088 605.065 63.5648 Q605.065 76.001 608.224 82.2394 Q611.425 88.4373 617.744 88.4373 Q624.104 88.4373 627.264 82.2394 Q630.464 76.001 630.464 63.5648 Q630.464 51.088 627.264 44.8901 Q624.104 38.6517 617.744 38.6517 M617.744 32.1703 Q627.912 32.1703 633.259 40.2316 Q638.647 48.2523 638.647 63.5648 Q638.647 78.8367 633.259 86.898 Q627.912 94.9188 617.744 94.9188 Q607.576 94.9188 602.189 86.898 Q596.841 78.8367 596.841 63.5648 Q596.841 48.2523 602.189 40.2316 Q607.576 32.1703 617.744 32.1703 Z" fill="#000000" fill-rule="evenodd" fill-opacity="1" /><path clip-path="url(#clip440)" d="M653.027 83.4547 L661.575 83.4547 L661.575 93.744 L653.027 93.744 L653.027 83.4547 Z" fill="#000000" fill-rule="evenodd" fill-opacity="1" /><path clip-path="url(#clip440)" d="M696.899 38.6517 Q690.579 38.6517 687.379 44.8901 Q684.219 51.088 684.219 63.5648 Q684.219 76.001 687.379 82.2394 Q690.579 88.4373 696.899 88.4373 Q703.259 88.4373 706.418 82.2394 Q709.619 76.001 709.619 63.5648 Q709.619 51.088 706.418 44.8901 Q703.259 38.6517 696.899 38.6517 M696.899 32.1703 Q707.067 32.1703 712.414 40.2316 Q717.801 48.2523 717.801 63.5648 Q717.801 78.8367 712.414 86.898 Q707.067 94.9188 696.899 94.9188 Q686.731 94.9188 681.343 86.898 Q675.996 78.8367 675.996 63.5648 Q675.996 48.2523 681.343 40.2316 Q686.731 32.1703 696.899 32.1703 Z" fill="#000000" fill-rule="evenodd" fill-opacity="1" /><path clip-path="url(#clip440)" d="M756.731 111.001 L756.731 48.3739 L764.184 48.3739 L764.184 76.5682 Q764.184 82.442 766.979 85.4396 Q769.775 88.4373 775.243 88.4373 Q781.239 88.4373 784.236 85.0346 Q787.274 81.6318 787.274 74.8263 L787.274 48.3739 L794.728 48.3739 L794.728 83.2927 Q794.728 85.7232 795.417 86.898 Q796.146 88.0322 797.645 88.0322 Q798.009 88.0322 798.657 87.8297 Q799.306 87.5866 800.44 87.1005 L800.44 93.0959 Q798.779 94.0276 797.28 94.4732 Q795.822 94.9188 794.404 94.9188 Q791.609 94.9188 789.948 93.3389 Q788.287 91.7591 787.679 88.5183 Q785.654 91.7185 782.697 93.3389 Q779.78 94.9188 775.81 94.9188 Q771.678 94.9188 768.762 93.3389 Q765.886 91.7591 764.184 88.5994 L764.184 111.001 L756.731 111.001 Z" fill="#000000" fill-rule="evenodd" fill-opacity="1" /><path clip-path="url(#clip440)" d="M845.607 57.0833 Q848.403 52.0602 852.291 49.6702 Q856.18 47.2801 861.446 47.2801 Q868.536 47.2801 872.384 52.2627 Q876.232 57.2048 876.232 66.3599 L876.232 93.744 L868.738 93.744 L868.738 66.6029 Q868.738 60.081 866.429 56.9213 Q864.12 53.7616 859.381 53.7616 Q853.588 53.7616 850.225 57.6099 Q846.863 61.4583 846.863 68.1018 L846.863 93.744 L839.369 93.744 L839.369 66.6029 Q839.369 60.0405 837.06 56.9213 Q834.751 53.7616 829.93 53.7616 Q824.219 53.7616 820.856 57.6504 Q817.494 61.4988 817.494 68.1018 L817.494 93.744 L810 93.744 L810 48.3739 L817.494 48.3739 L817.494 55.4224 Q820.046 51.25 823.611 49.2651 Q827.176 47.2801 832.077 47.2801 Q837.02 47.2801 840.463 49.7917 Q843.947 52.3032 845.607 57.0833 Z" fill="#000000" fill-rule="evenodd" fill-opacity="1" /><path clip-path="url(#clip440)" d="M893.003 83.4547 L901.55 83.4547 L901.55 90.4223 L894.907 103.385 L889.681 103.385 L893.003 90.4223 L893.003 83.4547 Z" fill="#000000" fill-rule="evenodd" fill-opacity="1" /><path clip-path="url(#clip440)" d="M940.601 48.3739 L976.006 48.3739 L976.006 55.1794 L947.974 87.7892 L976.006 87.7892 L976.006 93.744 L939.588 93.744 L939.588 86.9385 L967.621 54.3287 L940.601 54.3287 L940.601 48.3739 Z" fill="#000000" fill-rule="evenodd" fill-opacity="1" /><path clip-path="url(#clip440)" d="M989.86 86.8575 L1003.23 86.8575 L1003.23 40.7177 L988.685 43.6343 L988.685 36.1807 L1003.15 33.264 L1011.33 33.264 L1011.33 86.8575 L1024.7 86.8575 L1024.7 93.744 L989.86 93.744 L989.86 86.8575 Z" fill="#000000" fill-rule="evenodd" fill-opacity="1" /><path clip-path="url(#clip440)" d="M1042.08 83.4547 L1050.62 83.4547 L1050.62 93.744 L1042.08 93.744 L1042.08 83.4547 M1042.08 50.8449 L1050.62 50.8449 L1050.62 61.1342 L1042.08 61.1342 L1042.08 50.8449 Z" fill="#000000" fill-rule="evenodd" fill-opacity="1" /><path clip-path="url(#clip440)" d="M1095.63 33.264 L1127.75 33.264 L1127.75 40.1505 L1103.12 40.1505 L1103.12 54.9768 Q1104.91 54.3692 1106.69 54.0856 Q1108.47 53.7616 1110.25 53.7616 Q1120.38 53.7616 1126.29 59.3113 Q1132.21 64.8611 1132.21 74.3402 Q1132.21 84.1028 1126.13 89.5311 Q1120.06 94.9188 1109 94.9188 Q1105.19 94.9188 1101.22 94.2706 Q1097.29 93.6225 1093.08 92.3262 L1093.08 84.1028 Q1096.72 86.0878 1100.61 87.06 Q1104.5 88.0322 1108.84 88.0322 Q1115.84 88.0322 1119.93 84.3459 Q1124.03 80.6596 1124.03 74.3402 Q1124.03 68.0208 1119.93 64.3344 Q1115.84 60.6481 1108.84 60.6481 Q1105.55 60.6481 1102.27 61.3773 Q1099.03 62.1064 1095.63 63.6458 L1095.63 33.264 Z" fill="#000000" fill-rule="evenodd" fill-opacity="1" /><path clip-path="url(#clip440)" d="M1165.83 38.6517 Q1159.51 38.6517 1156.31 44.8901 Q1153.15 51.088 1153.15 63.5648 Q1153.15 76.001 1156.31 82.2394 Q1159.51 88.4373 1165.83 88.4373 Q1172.19 88.4373 1175.35 82.2394 Q1178.55 76.001 1178.55 63.5648 Q1178.55 51.088 1175.35 44.8901 Q1172.19 38.6517 1165.83 38.6517 M1165.83 32.1703 Q1176 32.1703 1181.35 40.2316 Q1186.73 48.2523 1186.73 63.5648 Q1186.73 78.8367 1181.35 86.898 Q1176 94.9188 1165.83 94.9188 Q1155.66 94.9188 1150.28 86.898 Q1144.93 78.8367 1144.93 63.5648 Q1144.93 48.2523 1150.28 40.2316 Q1155.66 32.1703 1165.83 32.1703 Z" fill="#000000" fill-rule="evenodd" fill-opacity="1" /><path clip-path="url(#clip440)" d="M1218.61 38.6517 Q1212.3 38.6517 1209.1 44.8901 Q1205.94 51.088 1205.94 63.5648 Q1205.94 76.001 1209.1 82.2394 Q1212.3 88.4373 1218.61 88.4373 Q1224.97 88.4373 1228.13 82.2394 Q1231.33 76.001 1231.33 63.5648 Q1231.33 51.088 1228.13 44.8901 Q1224.97 38.6517 1218.61 38.6517 M1218.61 32.1703 Q1228.78 32.1703 1234.13 40.2316 Q1239.52 48.2523 1239.52 63.5648 Q1239.52 78.8367 1234.13 86.898 Q1228.78 94.9188 1218.61 94.9188 Q1208.45 94.9188 1203.06 86.898 Q1197.71 78.8367 1197.71 63.5648 Q1197.71 48.2523 1203.06 40.2316 Q1208.45 32.1703 1218.61 32.1703 Z" fill="#000000" fill-rule="evenodd" fill-opacity="1" /><path clip-path="url(#clip440)" d="M1271.4 38.6517 Q1265.08 38.6517 1261.88 44.8901 Q1258.72 51.088 1258.72 63.5648 Q1258.72 76.001 1261.88 82.2394 Q1265.08 88.4373 1271.4 88.4373 Q1277.76 88.4373 1280.92 82.2394 Q1284.12 76.001 1284.12 63.5648 Q1284.12 51.088 1280.92 44.8901 Q1277.76 38.6517 1271.4 38.6517 M1271.4 32.1703 Q1281.57 32.1703 1286.91 40.2316 Q1292.3 48.2523 1292.3 63.5648 Q1292.3 78.8367 1286.91 86.898 Q1281.57 94.9188 1271.4 94.9188 Q1261.23 94.9188 1255.84 86.898 Q1250.5 78.8367 1250.5 63.5648 Q1250.5 48.2523 1255.84 40.2316 Q1261.23 32.1703 1271.4 32.1703 Z" fill="#000000" fill-rule="evenodd" fill-opacity="1" /><path clip-path="url(#clip440)" d="M1324.18 38.6517 Q1317.86 38.6517 1314.66 44.8901 Q1311.5 51.088 1311.5 63.5648 Q1311.5 76.001 1314.66 82.2394 Q1317.86 88.4373 1324.18 88.4373 Q1330.54 88.4373 1333.7 82.2394 Q1336.9 76.001 1336.9 63.5648 Q1336.9 51.088 1333.7 44.8901 Q1330.54 38.6517 1324.18 38.6517 M1324.18 32.1703 Q1334.35 32.1703 1339.7 40.2316 Q1345.08 48.2523 1345.08 63.5648 Q1345.08 78.8367 1339.7 86.898 Q1334.35 94.9188 1324.18 94.9188 Q1314.01 94.9188 1308.63 86.898 Q1303.28 78.8367 1303.28 63.5648 Q1303.28 48.2523 1308.63 40.2316 Q1314.01 32.1703 1324.18 32.1703 Z" fill="#000000" fill-rule="evenodd" fill-opacity="1" /><path clip-path="url(#clip440)" d="M1359.46 83.4547 L1368.01 83.4547 L1368.01 93.744 L1359.46 93.744 L1359.46 83.4547 Z" fill="#000000" fill-rule="evenodd" fill-opacity="1" /><path clip-path="url(#clip440)" d="M1403.34 38.6517 Q1397.02 38.6517 1393.82 44.8901 Q1390.66 51.088 1390.66 63.5648 Q1390.66 76.001 1393.82 82.2394 Q1397.02 88.4373 1403.34 88.4373 Q1409.7 88.4373 1412.86 82.2394 Q1416.06 76.001 1416.06 63.5648 Q1416.06 51.088 1412.86 44.8901 Q1409.7 38.6517 1403.34 38.6517 M1403.34 32.1703 Q1413.5 32.1703 1418.85 40.2316 Q1424.24 48.2523 1424.24 63.5648 Q1424.24 78.8367 1418.85 86.898 Q1413.5 94.9188 1403.34 94.9188 Q1393.17 94.9188 1387.78 86.898 Q1382.43 78.8367 1382.43 63.5648 Q1382.43 48.2523 1387.78 40.2316 Q1393.17 32.1703 1403.34 32.1703 Z" fill="#000000" fill-rule="evenodd" fill-opacity="1" /><path clip-path="url(#clip440)" d="M1463.17 111.001 L1463.17 48.3739 L1470.62 48.3739 L1470.62 76.5682 Q1470.62 82.442 1473.42 85.4396 Q1476.21 88.4373 1481.68 88.4373 Q1487.68 88.4373 1490.67 85.0346 Q1493.71 81.6318 1493.71 74.8263 L1493.71 48.3739 L1501.17 48.3739 L1501.17 83.2927 Q1501.17 85.7232 1501.85 86.898 Q1502.58 88.0322 1504.08 88.0322 Q1504.45 88.0322 1505.09 87.8297 Q1505.74 87.5866 1506.88 87.1005 L1506.88 93.0959 Q1505.22 94.0276 1503.72 94.4732 Q1502.26 94.9188 1500.84 94.9188 Q1498.05 94.9188 1496.39 93.3389 Q1494.72 91.7591 1494.12 88.5183 Q1492.09 91.7185 1489.13 93.3389 Q1486.22 94.9188 1482.25 94.9188 Q1478.12 94.9188 1475.2 93.3389 Q1472.32 91.7591 1470.62 88.5994 L1470.62 111.001 L1463.17 111.001 Z" fill="#000000" fill-rule="evenodd" fill-opacity="1" /><path clip-path="url(#clip440)" d="M1552.04 57.0833 Q1554.84 52.0602 1558.73 49.6702 Q1562.62 47.2801 1567.88 47.2801 Q1574.97 47.2801 1578.82 52.2627 Q1582.67 57.2048 1582.67 66.3599 L1582.67 93.744 L1575.18 93.744 L1575.18 66.6029 Q1575.18 60.081 1572.87 56.9213 Q1570.56 53.7616 1565.82 53.7616 Q1560.02 53.7616 1556.66 57.6099 Q1553.3 61.4583 1553.3 68.1018 L1553.3 93.744 L1545.81 93.744 L1545.81 66.6029 Q1545.81 60.0405 1543.5 56.9213 Q1541.19 53.7616 1536.37 53.7616 Q1530.66 53.7616 1527.29 57.6504 Q1523.93 61.4988 1523.93 68.1018 L1523.93 93.744 L1516.44 93.744 L1516.44 48.3739 L1523.93 48.3739 L1523.93 55.4224 Q1526.48 51.25 1530.05 49.2651 Q1533.61 47.2801 1538.51 47.2801 Q1543.46 47.2801 1546.9 49.7917 Q1550.38 52.3032 1552.04 57.0833 Z" fill="#000000" fill-rule="evenodd" fill-opacity="1" /><path clip-path="url(#clip440)" d="M1599.44 83.4547 L1607.99 83.4547 L1607.99 90.4223 L1601.34 103.385 L1596.12 103.385 L1599.44 90.4223 L1599.44 83.4547 Z" fill="#000000" fill-rule="evenodd" fill-opacity="1" /><path clip-path="url(#clip440)" d="M1647.04 48.3739 L1682.44 48.3739 L1682.44 55.1794 L1654.41 87.7892 L1682.44 87.7892 L1682.44 93.744 L1646.03 93.744 L1646.03 86.9385 L1674.06 54.3287 L1647.04 54.3287 L1647.04 48.3739 Z" fill="#000000" fill-rule="evenodd" fill-opacity="1" /><path clip-path="url(#clip440)" d="M1701.93 86.8575 L1730.49 86.8575 L1730.49 93.744 L1692.08 93.744 L1692.08 86.8575 Q1696.74 82.0369 1704.76 73.9351 Q1712.83 65.7928 1714.89 63.4432 Q1718.82 59.0278 1720.36 55.9896 Q1721.94 52.9109 1721.94 49.9537 Q1721.94 45.1331 1718.54 42.095 Q1715.17 39.0568 1709.75 39.0568 Q1705.9 39.0568 1701.6 40.3936 Q1697.35 41.7304 1692.49 44.4445 L1692.49 36.1807 Q1697.43 34.1957 1701.73 33.183 Q1706.02 32.1703 1709.58 32.1703 Q1718.98 32.1703 1724.57 36.8693 Q1730.16 41.5684 1730.16 49.4271 Q1730.16 53.1539 1728.75 56.5162 Q1727.37 59.8379 1723.68 64.3749 Q1722.67 65.5497 1717.24 71.1805 Q1711.81 76.7707 1701.93 86.8575 Z" fill="#000000" fill-rule="evenodd" fill-opacity="1" /><path clip-path="url(#clip440)" d="M1748.51 83.4547 L1757.06 83.4547 L1757.06 93.744 L1748.51 93.744 L1748.51 83.4547 M1748.51 50.8449 L1757.06 50.8449 L1757.06 61.1342 L1748.51 61.1342 L1748.51 50.8449 Z" fill="#000000" fill-rule="evenodd" fill-opacity="1" /><path clip-path="url(#clip440)" d="M1803.4 86.8575 L1816.77 86.8575 L1816.77 40.7177 L1802.23 43.6343 L1802.23 36.1807 L1816.69 33.264 L1824.87 33.264 L1824.87 86.8575 L1838.24 86.8575 L1838.24 93.744 L1803.4 93.744 L1803.4 86.8575 Z" fill="#000000" fill-rule="evenodd" fill-opacity="1" /><path clip-path="url(#clip440)" d="M1872.27 38.6517 Q1865.95 38.6517 1862.75 44.8901 Q1859.59 51.088 1859.59 63.5648 Q1859.59 76.001 1862.75 82.2394 Q1865.95 88.4373 1872.27 88.4373 Q1878.63 88.4373 1881.79 82.2394 Q1884.99 76.001 1884.99 63.5648 Q1884.99 51.088 1881.79 44.8901 Q1878.63 38.6517 1872.27 38.6517 M1872.27 32.1703 Q1882.44 32.1703 1887.78 40.2316 Q1893.17 48.2523 1893.17 63.5648 Q1893.17 78.8367 1887.78 86.898 Q1882.44 94.9188 1872.27 94.9188 Q1862.1 94.9188 1856.71 86.898 Q1851.37 78.8367 1851.37 63.5648 Q1851.37 48.2523 1856.71 40.2316 Q1862.1 32.1703 1872.27 32.1703 Z" fill="#000000" fill-rule="evenodd" fill-opacity="1" /><path clip-path="url(#clip440)" d="M1925.05 38.6517 Q1918.73 38.6517 1915.53 44.8901 Q1912.37 51.088 1912.37 63.5648 Q1912.37 76.001 1915.53 82.2394 Q1918.73 88.4373 1925.05 88.4373 Q1931.41 88.4373 1934.57 82.2394 Q1937.77 76.001 1937.77 63.5648 Q1937.77 51.088 1934.57 44.8901 Q1931.41 38.6517 1925.05 38.6517 M1925.05 32.1703 Q1935.22 32.1703 1940.57 40.2316 Q1945.95 48.2523 1945.95 63.5648 Q1945.95 78.8367 1940.57 86.898 Q1935.22 94.9188 1925.05 94.9188 Q1914.88 94.9188 1909.5 86.898 Q1904.15 78.8367 1904.15 63.5648 Q1904.15 48.2523 1909.5 40.2316 Q1914.88 32.1703 1925.05 32.1703 Z" fill="#000000" fill-rule="evenodd" fill-opacity="1" /><path clip-path="url(#clip440)" d="M1977.84 38.6517 Q1971.52 38.6517 1968.32 44.8901 Q1965.16 51.088 1965.16 63.5648 Q1965.16 76.001 1968.32 82.2394 Q1971.52 88.4373 1977.84 88.4373 Q1984.2 88.4373 1987.35 82.2394 Q1990.55 76.001 1990.55 63.5648 Q1990.55 51.088 1987.35 44.8901 Q1984.2 38.6517 1977.84 38.6517 M1977.84 32.1703 Q1988 32.1703 1993.35 40.2316 Q1998.74 48.2523 1998.74 63.5648 Q1998.74 78.8367 1993.35 86.898 Q1988 94.9188 1977.84 94.9188 Q1967.67 94.9188 1962.28 86.898 Q1956.93 78.8367 1956.93 63.5648 Q1956.93 48.2523 1962.28 40.2316 Q1967.67 32.1703 1977.84 32.1703 Z" fill="#000000" fill-rule="evenodd" fill-opacity="1" /><path clip-path="url(#clip440)" d="M2030.62 38.6517 Q2024.3 38.6517 2021.1 44.8901 Q2017.94 51.088 2017.94 63.5648 Q2017.94 76.001 2021.1 82.2394 Q2024.3 88.4373 2030.62 88.4373 Q2036.98 88.4373 2040.14 82.2394 Q2043.34 76.001 2043.34 63.5648 Q2043.34 51.088 2040.14 44.8901 Q2036.98 38.6517 2030.62 38.6517 M2030.62 32.1703 Q2040.79 32.1703 2046.13 40.2316 Q2051.52 48.2523 2051.52 63.5648 Q2051.52 78.8367 2046.13 86.898 Q2040.79 94.9188 2030.62 94.9188 Q2020.45 94.9188 2015.06 86.898 Q2009.72 78.8367 2009.72 63.5648 Q2009.72 48.2523 2015.06 40.2316 Q2020.45 32.1703 2030.62 32.1703 Z" fill="#000000" fill-rule="evenodd" fill-opacity="1" /><path clip-path="url(#clip440)" d="M2083.4 38.6517 Q2077.08 38.6517 2073.88 44.8901 Q2070.72 51.088 2070.72 63.5648 Q2070.72 76.001 2073.88 82.2394 Q2077.08 88.4373 2083.4 88.4373 Q2089.76 88.4373 2092.92 82.2394 Q2096.12 76.001 2096.12 63.5648 Q2096.12 51.088 2092.92 44.8901 Q2089.76 38.6517 2083.4 38.6517 M2083.4 32.1703 Q2093.57 32.1703 2098.92 40.2316 Q2104.3 48.2523 2104.3 63.5648 Q2104.3 78.8367 2098.92 86.898 Q2093.57 94.9188 2083.4 94.9188 Q2073.23 94.9188 2067.85 86.898 Q2062.5 78.8367 2062.5 63.5648 Q2062.5 48.2523 2067.85 40.2316 Q2073.23 32.1703 2083.4 32.1703 Z" fill="#000000" fill-rule="evenodd" fill-opacity="1" /><path clip-path="url(#clip440)" d="M2118.69 83.4547 L2127.23 83.4547 L2127.23 93.744 L2118.69 93.744 L2118.69 83.4547 Z" fill="#000000" fill-rule="evenodd" fill-opacity="1" /><path clip-path="url(#clip440)" d="M2162.56 38.6517 Q2156.24 38.6517 2153.04 44.8901 Q2149.88 51.088 2149.88 63.5648 Q2149.88 76.001 2153.04 82.2394 Q2156.24 88.4373 2162.56 88.4373 Q2168.92 88.4373 2172.08 82.2394 Q2175.28 76.001 2175.28 63.5648 Q2175.28 51.088 2172.08 44.8901 Q2168.92 38.6517 2162.56 38.6517 M2162.56 32.1703 Q2172.72 32.1703 2178.07 40.2316 Q2183.46 48.2523 2183.46 63.5648 Q2183.46 78.8367 2178.07 86.898 Q2172.72 94.9188 2162.56 94.9188 Q2152.39 94.9188 2147 86.898 Q2141.65 78.8367 2141.65 63.5648 Q2141.65 48.2523 2147 40.2316 Q2152.39 32.1703 2162.56 32.1703 Z" fill="#000000" fill-rule="evenodd" fill-opacity="1" /><path clip-path="url(#clip440)" d="M2222.39 111.001 L2222.39 48.3739 L2229.84 48.3739 L2229.84 76.5682 Q2229.84 82.442 2232.64 85.4396 Q2235.43 88.4373 2240.9 88.4373 Q2246.9 88.4373 2249.89 85.0346 Q2252.93 81.6318 2252.93 74.8263 L2252.93 48.3739 L2260.39 48.3739 L2260.39 83.2927 Q2260.39 85.7232 2261.07 86.898 Q2261.8 88.0322 2263.3 88.0322 Q2263.67 88.0322 2264.32 87.8297 Q2264.96 87.5866 2266.1 87.1005 L2266.1 93.0959 Q2264.44 94.0276 2262.94 94.4732 Q2261.48 94.9188 2260.06 94.9188 Q2257.27 94.9188 2255.61 93.3389 Q2253.94 91.7591 2253.34 88.5183 Q2251.31 91.7185 2248.35 93.3389 Q2245.44 94.9188 2241.47 94.9188 Q2237.34 94.9188 2234.42 93.3389 Q2231.54 91.7591 2229.84 88.5994 L2229.84 111.001 L2222.39 111.001 Z" fill="#000000" fill-rule="evenodd" fill-opacity="1" /><path clip-path="url(#clip440)" d="M2311.27 57.0833 Q2314.06 52.0602 2317.95 49.6702 Q2321.84 47.2801 2327.1 47.2801 Q2334.19 47.2801 2338.04 52.2627 Q2341.89 57.2048 2341.89 66.3599 L2341.89 93.744 L2334.4 93.744 L2334.4 66.6029 Q2334.4 60.081 2332.09 56.9213 Q2329.78 53.7616 2325.04 53.7616 Q2319.25 53.7616 2315.88 57.6099 Q2312.52 61.4583 2312.52 68.1018 L2312.52 93.744 L2305.03 93.744 L2305.03 66.6029 Q2305.03 60.0405 2302.72 56.9213 Q2300.41 53.7616 2295.59 53.7616 Q2289.88 53.7616 2286.51 57.6504 Q2283.15 61.4988 2283.15 68.1018 L2283.15 93.744 L2275.66 93.744 L2275.66 48.3739 L2283.15 48.3739 L2283.15 55.4224 Q2285.7 51.25 2289.27 49.2651 Q2292.83 47.2801 2297.74 47.2801 Q2302.68 47.2801 2306.12 49.7917 Q2309.6 52.3032 2311.27 57.0833 Z" fill="#000000" fill-rule="evenodd" fill-opacity="1" /><path clip-path="url(#clip440)" d="M2358.66 83.4547 L2367.21 83.4547 L2367.21 90.4223 L2360.56 103.385 L2355.34 103.385 L2358.66 90.4223 L2358.66 83.4547 Z" fill="#000000" fill-rule="evenodd" fill-opacity="1" /><path clip-path="url(#clip440)" d="M521.474 157.08 L521.474 184.464 L514.021 184.464 L514.021 157.323 Q514.021 150.882 511.509 147.682 Q508.998 144.482 503.974 144.482 Q497.939 144.482 494.455 148.33 Q490.971 152.178 490.971 158.822 L490.971 184.464 L483.477 184.464 L483.477 139.094 L490.971 139.094 L490.971 146.142 Q493.645 142.051 497.25 140.026 Q500.896 138 505.635 138 Q513.454 138 517.464 142.861 Q521.474 147.682 521.474 157.08 Z" fill="#000000" fill-rule="evenodd" fill-opacity="1" /><path clip-path="url(#clip440)" d="M566.196 145.98 L566.196 121.432 L573.65 121.432 L573.65 184.464 L566.196 184.464 L566.196 177.658 Q563.847 181.709 560.241 183.694 Q556.677 185.639 551.654 185.639 Q543.43 185.639 538.245 179.076 Q533.1 172.514 533.1 161.819 Q533.1 151.125 538.245 144.563 Q543.43 138 551.654 138 Q556.677 138 560.241 139.985 Q563.847 141.93 566.196 145.98 M540.797 161.819 Q540.797 170.043 544.159 174.742 Q547.562 179.4 553.476 179.4 Q559.391 179.4 562.794 174.742 Q566.196 170.043 566.196 161.819 Q566.196 153.596 562.794 148.938 Q559.391 144.239 553.476 144.239 Q547.562 144.239 544.159 148.938 Q540.797 153.596 540.797 161.819 Z" fill="#000000" fill-rule="evenodd" fill-opacity="1" /><path clip-path="url(#clip440)" d="M590.907 174.175 L599.454 174.175 L599.454 184.464 L590.907 184.464 L590.907 174.175 M590.907 141.565 L599.454 141.565 L599.454 151.854 L590.907 151.854 L590.907 141.565 Z" fill="#000000" fill-rule="evenodd" fill-opacity="1" /><path clip-path="url(#clip440)" d="M645.797 177.577 L659.165 177.577 L659.165 131.438 L644.622 134.354 L644.622 126.901 L659.084 123.984 L667.266 123.984 L667.266 177.577 L680.634 177.577 L680.634 184.464 L645.797 184.464 L645.797 177.577 Z" fill="#000000" fill-rule="evenodd" fill-opacity="1" /><path clip-path="url(#clip440)" d="M697.162 174.175 L705.709 174.175 L705.709 184.464 L697.162 184.464 L697.162 174.175 Z" fill="#000000" fill-rule="evenodd" fill-opacity="1" /><path clip-path="url(#clip440)" d="M723.614 123.984 L755.738 123.984 L755.738 130.871 L731.109 130.871 L731.109 145.697 Q732.891 145.089 734.673 144.806 Q736.456 144.482 738.238 144.482 Q748.365 144.482 754.28 150.031 Q760.194 155.581 760.194 165.06 Q760.194 174.823 754.118 180.251 Q748.041 185.639 736.982 185.639 Q733.175 185.639 729.205 184.991 Q725.275 184.342 721.062 183.046 L721.062 174.823 Q724.708 176.808 728.597 177.78 Q732.486 178.752 736.82 178.752 Q743.828 178.752 747.92 175.066 Q752.011 171.38 752.011 165.06 Q752.011 158.741 747.92 155.054 Q743.828 151.368 736.82 151.368 Q733.539 151.368 730.258 152.097 Q727.017 152.826 723.614 154.366 L723.614 123.984 Z" fill="#000000" fill-rule="evenodd" fill-opacity="1" /><path clip-path="url(#clip440)" d="M783.365 177.577 L811.924 177.577 L811.924 184.464 L773.522 184.464 L773.522 177.577 Q778.18 172.757 786.201 164.655 Q794.262 156.513 796.328 154.163 Q800.258 149.748 801.797 146.71 Q803.377 143.631 803.377 140.674 Q803.377 135.853 799.974 132.815 Q796.612 129.777 791.184 129.777 Q787.335 129.777 783.041 131.114 Q778.788 132.45 773.927 135.164 L773.927 126.901 Q778.869 124.916 783.163 123.903 Q787.457 122.89 791.021 122.89 Q800.42 122.89 806.01 127.589 Q811.6 132.288 811.6 140.147 Q811.6 143.874 810.182 147.236 Q808.805 150.558 805.119 155.095 Q804.106 156.27 798.678 161.9 Q793.249 167.491 783.365 177.577 Z" fill="#000000" fill-rule="evenodd" fill-opacity="1" /><path clip-path="url(#clip440)" d="M829.951 174.175 L838.498 174.175 L838.498 181.142 L831.855 194.105 L826.629 194.105 L829.951 181.142 L829.951 174.175 Z" fill="#000000" fill-rule="evenodd" fill-opacity="1" /><path clip-path="url(#clip440)" d="M918.503 157.08 L918.503 184.464 L911.05 184.464 L911.05 157.323 Q911.05 150.882 908.538 147.682 Q906.027 144.482 901.004 144.482 Q894.968 144.482 891.484 148.33 Q888 152.178 888 158.822 L888 184.464 L880.506 184.464 L880.506 139.094 L888 139.094 L888 146.142 Q890.674 142.051 894.279 140.026 Q897.925 138 902.664 138 Q910.483 138 914.493 142.861 Q918.503 147.682 918.503 157.08 Z" fill="#000000" fill-rule="evenodd" fill-opacity="1" /><path clip-path="url(#clip440)" d="M950.951 144.32 Q944.956 144.32 941.472 149.019 Q937.988 153.677 937.988 161.819 Q937.988 169.962 941.432 174.661 Q944.915 179.319 950.951 179.319 Q956.906 179.319 960.39 174.62 Q963.874 169.921 963.874 161.819 Q963.874 153.758 960.39 149.059 Q956.906 144.32 950.951 144.32 M950.951 138 Q960.673 138 966.223 144.32 Q971.773 150.639 971.773 161.819 Q971.773 172.959 966.223 179.319 Q960.673 185.639 950.951 185.639 Q941.189 185.639 935.639 179.319 Q930.13 172.959 930.13 161.819 Q930.13 150.639 935.639 144.32 Q941.189 138 950.951 138 Z" fill="#000000" fill-rule="evenodd" fill-opacity="1" /><path clip-path="url(#clip440)" d="M984.128 139.094 L991.582 139.094 L991.582 184.464 L984.128 184.464 L984.128 139.094 M984.128 121.432 L991.582 121.432 L991.582 130.871 L984.128 130.871 L984.128 121.432 Z" fill="#000000" fill-rule="evenodd" fill-opacity="1" /><path clip-path="url(#clip440)" d="M1007.18 121.432 L1014.63 121.432 L1014.63 184.464 L1007.18 184.464 L1007.18 121.432 Z" fill="#000000" fill-rule="evenodd" fill-opacity="1" /><path clip-path="url(#clip440)" d="M1032.13 174.175 L1040.68 174.175 L1040.68 184.464 L1032.13 184.464 L1032.13 174.175 M1032.13 141.565 L1040.68 141.565 L1040.68 151.854 L1032.13 151.854 L1032.13 141.565 Z" fill="#000000" fill-rule="evenodd" fill-opacity="1" /><path clip-path="url(#clip440)" d="M1087.02 177.577 L1100.39 177.577 L1100.39 131.438 L1085.85 134.354 L1085.85 126.901 L1100.31 123.984 L1108.49 123.984 L1108.49 177.577 L1121.86 177.577 L1121.86 184.464 L1087.02 184.464 L1087.02 177.577 Z" fill="#000000" fill-rule="evenodd" fill-opacity="1" /><path clip-path="url(#clip440)" d="M1138.39 174.175 L1146.93 174.175 L1146.93 184.464 L1138.39 184.464 L1138.39 174.175 Z" fill="#000000" fill-rule="evenodd" fill-opacity="1" /><path clip-path="url(#clip440)" d="M1164.84 123.984 L1196.96 123.984 L1196.96 130.871 L1172.33 130.871 L1172.33 145.697 Q1174.12 145.089 1175.9 144.806 Q1177.68 144.482 1179.46 144.482 Q1189.59 144.482 1195.5 150.031 Q1201.42 155.581 1201.42 165.06 Q1201.42 174.823 1195.34 180.251 Q1189.27 185.639 1178.21 185.639 Q1174.4 185.639 1170.43 184.991 Q1166.5 184.342 1162.29 183.046 L1162.29 174.823 Q1165.93 176.808 1169.82 177.78 Q1173.71 178.752 1178.04 178.752 Q1185.05 178.752 1189.14 175.066 Q1193.24 171.38 1193.24 165.06 Q1193.24 158.741 1189.14 155.054 Q1185.05 151.368 1178.04 151.368 Q1174.76 151.368 1171.48 152.097 Q1168.24 152.826 1164.84 154.366 L1164.84 123.984 Z" fill="#000000" fill-rule="evenodd" fill-opacity="1" /><path clip-path="url(#clip440)" d="M1218.96 177.577 L1232.33 177.577 L1232.33 131.438 L1217.78 134.354 L1217.78 126.901 L1232.25 123.984 L1240.43 123.984 L1240.43 177.577 L1253.8 177.577 L1253.8 184.464 L1218.96 184.464 L1218.96 177.577 Z" fill="#000000" fill-rule="evenodd" fill-opacity="1" /><path clip-path="url(#clip440)" d="M1277.37 177.577 L1305.93 177.577 L1305.93 184.464 L1267.53 184.464 L1267.53 177.577 Q1272.19 172.757 1280.21 164.655 Q1288.27 156.513 1290.34 154.163 Q1294.27 149.748 1295.8 146.71 Q1297.38 143.631 1297.38 140.674 Q1297.38 135.853 1293.98 132.815 Q1290.62 129.777 1285.19 129.777 Q1281.34 129.777 1277.05 131.114 Q1272.8 132.45 1267.93 135.164 L1267.93 126.901 Q1272.88 124.916 1277.17 123.903 Q1281.46 122.89 1285.03 122.89 Q1294.43 122.89 1300.02 127.589 Q1305.61 132.288 1305.61 140.147 Q1305.61 143.874 1304.19 147.236 Q1302.81 150.558 1299.13 155.095 Q1298.11 156.27 1292.69 161.9 Q1287.26 167.491 1277.37 177.577 Z" fill="#000000" fill-rule="evenodd" fill-opacity="1" /><path clip-path="url(#clip440)" d="M1323.19 123.984 L1355.31 123.984 L1355.31 130.871 L1330.68 130.871 L1330.68 145.697 Q1332.47 145.089 1334.25 144.806 Q1336.03 144.482 1337.81 144.482 Q1347.94 144.482 1353.85 150.031 Q1359.77 155.581 1359.77 165.06 Q1359.77 174.823 1353.69 180.251 Q1347.62 185.639 1336.56 185.639 Q1332.75 185.639 1328.78 184.991 Q1324.85 184.342 1320.64 183.046 L1320.64 174.823 Q1324.28 176.808 1328.17 177.78 Q1332.06 178.752 1336.39 178.752 Q1343.4 178.752 1347.49 175.066 Q1351.59 171.38 1351.59 165.06 Q1351.59 158.741 1347.49 155.054 Q1343.4 151.368 1336.39 151.368 Q1333.11 151.368 1329.83 152.097 Q1326.59 152.826 1323.19 154.366 L1323.19 123.984 Z" fill="#000000" fill-rule="evenodd" fill-opacity="1" /><path clip-path="url(#clip440)" d="M1400.68 151.854 Q1406.56 153.11 1409.84 157.08 Q1413.16 161.05 1413.16 166.883 Q1413.16 175.836 1407 180.737 Q1400.84 185.639 1389.5 185.639 Q1385.69 185.639 1381.64 184.869 Q1377.63 184.14 1373.34 182.641 L1373.34 174.742 Q1376.74 176.727 1380.79 177.739 Q1384.84 178.752 1389.26 178.752 Q1396.96 178.752 1400.97 175.714 Q1405.02 172.676 1405.02 166.883 Q1405.02 161.536 1401.25 158.538 Q1397.52 155.5 1390.84 155.5 L1383.79 155.5 L1383.79 148.776 L1391.16 148.776 Q1397.2 148.776 1400.4 146.386 Q1403.6 143.955 1403.6 139.418 Q1403.6 134.759 1400.28 132.288 Q1397 129.777 1390.84 129.777 Q1387.48 129.777 1383.63 130.506 Q1379.78 131.235 1375.16 132.774 L1375.16 125.483 Q1379.82 124.187 1383.87 123.538 Q1387.96 122.89 1391.57 122.89 Q1400.89 122.89 1406.31 127.144 Q1411.74 131.357 1411.74 138.567 Q1411.74 143.59 1408.87 147.074 Q1405.99 150.517 1400.68 151.854 Z" fill="#000000" fill-rule="evenodd" fill-opacity="1" /><path clip-path="url(#clip440)" d="M1429.53 174.175 L1438.07 174.175 L1438.07 181.142 L1431.43 194.105 L1426.2 194.105 L1429.53 181.142 L1429.53 174.175 Z" fill="#000000" fill-rule="evenodd" fill-opacity="1" /><path clip-path="url(#clip440)" d="M1518.08 157.08 L1518.08 184.464 L1510.62 184.464 L1510.62 157.323 Q1510.62 150.882 1508.11 147.682 Q1505.6 144.482 1500.58 144.482 Q1494.54 144.482 1491.06 148.33 Q1487.57 152.178 1487.57 158.822 L1487.57 184.464 L1480.08 184.464 L1480.08 139.094 L1487.57 139.094 L1487.57 146.142 Q1490.25 142.051 1493.85 140.026 Q1497.5 138 1502.24 138 Q1510.06 138 1514.07 142.861 Q1518.08 147.682 1518.08 157.08 Z" fill="#000000" fill-rule="evenodd" fill-opacity="1" /><path clip-path="url(#clip440)" d="M1527.6 139.094 L1535.5 139.094 L1549.67 177.172 L1563.85 139.094 L1571.75 139.094 L1554.74 184.464 L1544.61 184.464 L1527.6 139.094 Z" fill="#000000" fill-rule="evenodd" fill-opacity="1" /><path clip-path="url(#clip440)" d="M1582.04 139.094 L1589.5 139.094 L1589.5 184.464 L1582.04 184.464 L1582.04 139.094 M1582.04 121.432 L1589.5 121.432 L1589.5 130.871 L1582.04 130.871 L1582.04 121.432 Z" fill="#000000" fill-rule="evenodd" fill-opacity="1" /><path clip-path="url(#clip440)" d="M1642.81 157.08 L1642.81 184.464 L1635.35 184.464 L1635.35 157.323 Q1635.35 150.882 1632.84 147.682 Q1630.33 144.482 1625.31 144.482 Q1619.27 144.482 1615.79 148.33 Q1612.3 152.178 1612.3 158.822 L1612.3 184.464 L1604.81 184.464 L1604.81 139.094 L1612.3 139.094 L1612.3 146.142 Q1614.98 142.051 1618.58 140.026 Q1622.23 138 1626.97 138 Q1634.78 138 1638.79 142.861 Q1642.81 147.682 1642.81 157.08 Z" fill="#000000" fill-rule="evenodd" fill-opacity="1" /><path clip-path="url(#clip440)" d="M1676.55 188.677 Q1673.39 196.779 1670.39 199.25 Q1667.39 201.721 1662.37 201.721 L1656.42 201.721 L1656.42 195.482 L1660.79 195.482 Q1663.87 195.482 1665.57 194.024 Q1667.27 192.566 1669.34 187.138 L1670.68 183.735 L1652.32 139.094 L1660.22 139.094 L1674.4 174.58 L1688.58 139.094 L1696.48 139.094 L1676.55 188.677 Z" fill="#000000" fill-rule="evenodd" fill-opacity="1" /><path clip-path="url(#clip440)" d="M1706.77 121.432 L1714.22 121.432 L1714.22 184.464 L1706.77 184.464 L1706.77 121.432 Z" fill="#000000" fill-rule="evenodd" fill-opacity="1" /><path clip-path="url(#clip440)" d="M1731.72 174.175 L1740.27 174.175 L1740.27 184.464 L1731.72 184.464 L1731.72 174.175 M1731.72 141.565 L1740.27 141.565 L1740.27 151.854 L1731.72 151.854 L1731.72 141.565 Z" fill="#000000" fill-rule="evenodd" fill-opacity="1" /><path clip-path="url(#clip440)" d="M1786.61 177.577 L1799.98 177.577 L1799.98 131.438 L1785.44 134.354 L1785.44 126.901 L1799.9 123.984 L1808.08 123.984 L1808.08 177.577 L1821.45 177.577 L1821.45 184.464 L1786.61 184.464 L1786.61 177.577 Z" fill="#000000" fill-rule="evenodd" fill-opacity="1" /><path clip-path="url(#clip440)" d="M1837.98 174.175 L1846.53 174.175 L1846.53 184.464 L1837.98 184.464 L1837.98 174.175 Z" fill="#000000" fill-rule="evenodd" fill-opacity="1" /><path clip-path="url(#clip440)" d="M1864.43 123.984 L1896.55 123.984 L1896.55 130.871 L1871.92 130.871 L1871.92 145.697 Q1873.71 145.089 1875.49 144.806 Q1877.27 144.482 1879.05 144.482 Q1889.18 144.482 1895.1 150.031 Q1901.01 155.581 1901.01 165.06 Q1901.01 174.823 1894.93 180.251 Q1888.86 185.639 1877.8 185.639 Q1873.99 185.639 1870.02 184.991 Q1866.09 184.342 1861.88 183.046 L1861.88 174.823 Q1865.52 176.808 1869.41 177.78 Q1873.3 178.752 1877.64 178.752 Q1884.64 178.752 1888.74 175.066 Q1892.83 171.38 1892.83 165.06 Q1892.83 158.741 1888.74 155.054 Q1884.64 151.368 1877.64 151.368 Q1874.35 151.368 1871.07 152.097 Q1867.83 152.826 1864.43 154.366 L1864.43 123.984 Z" fill="#000000" fill-rule="evenodd" fill-opacity="1" /><path clip-path="url(#clip440)" d="M1918.55 177.577 L1931.92 177.577 L1931.92 131.438 L1917.38 134.354 L1917.38 126.901 L1931.84 123.984 L1940.02 123.984 L1940.02 177.577 L1953.39 177.577 L1953.39 184.464 L1918.55 184.464 L1918.55 177.577 Z" fill="#000000" fill-rule="evenodd" fill-opacity="1" /><path clip-path="url(#clip440)" d="M1970 123.984 L2002.12 123.984 L2002.12 130.871 L1977.49 130.871 L1977.49 145.697 Q1979.27 145.089 1981.06 144.806 Q1982.84 144.482 1984.62 144.482 Q1994.75 144.482 2000.66 150.031 Q2006.58 155.581 2006.58 165.06 Q2006.58 174.823 2000.5 180.251 Q1994.42 185.639 1983.36 185.639 Q1979.56 185.639 1975.59 184.991 Q1971.66 184.342 1967.44 183.046 L1967.44 174.823 Q1971.09 176.808 1974.98 177.78 Q1978.87 178.752 1983.2 178.752 Q1990.21 178.752 1994.3 175.066 Q1998.39 171.38 1998.39 165.06 Q1998.39 158.741 1994.3 155.054 Q1990.21 151.368 1983.2 151.368 Q1979.92 151.368 1976.64 152.097 Q1973.4 152.826 1970 154.366 L1970 123.984 Z" fill="#000000" fill-rule="evenodd" fill-opacity="1" /><path clip-path="url(#clip440)" d="M2040.2 129.372 Q2033.88 129.372 2030.68 135.61 Q2027.52 141.808 2027.52 154.285 Q2027.52 166.721 2030.68 172.959 Q2033.88 179.157 2040.2 179.157 Q2046.56 179.157 2049.72 172.959 Q2052.92 166.721 2052.92 154.285 Q2052.92 141.808 2049.72 135.61 Q2046.56 129.372 2040.2 129.372 M2040.2 122.89 Q2050.37 122.89 2055.71 130.952 Q2061.1 138.972 2061.1 154.285 Q2061.1 169.557 2055.71 177.618 Q2050.37 185.639 2040.2 185.639 Q2030.03 185.639 2024.64 177.618 Q2019.3 169.557 2019.3 154.285 Q2019.3 138.972 2024.64 130.952 Q2030.03 122.89 2040.2 122.89 Z" fill="#000000" fill-rule="evenodd" fill-opacity="1" /><path clip-path="url(#clip440)" d="M2075.73 183.208 L2075.73 175.755 Q2078.8 177.213 2081.96 177.983 Q2085.12 178.752 2088.16 178.752 Q2096.26 178.752 2100.52 173.324 Q2104.81 167.855 2105.42 156.756 Q2103.07 160.24 2099.46 162.103 Q2095.86 163.966 2091.48 163.966 Q2082.41 163.966 2077.1 158.498 Q2071.84 152.988 2071.84 143.469 Q2071.84 134.152 2077.35 128.521 Q2082.85 122.89 2092.01 122.89 Q2102.5 122.89 2108.01 130.952 Q2113.56 138.972 2113.56 154.285 Q2113.56 168.584 2106.76 177.132 Q2099.99 185.639 2088.53 185.639 Q2085.45 185.639 2082.29 185.031 Q2079.13 184.423 2075.73 183.208 M2092.01 157.566 Q2097.52 157.566 2100.72 153.799 Q2103.96 150.031 2103.96 143.469 Q2103.96 136.947 2100.72 133.18 Q2097.52 129.372 2092.01 129.372 Q2086.5 129.372 2083.26 133.18 Q2080.06 136.947 2080.06 143.469 Q2080.06 150.031 2083.26 153.799 Q2086.5 157.566 2092.01 157.566 Z" fill="#000000" fill-rule="evenodd" fill-opacity="1" /><polyline clip-path="url(#clip442)" style="stroke:#009af9; stroke-linecap:butt; stroke-linejoin:round; stroke-width:4; stroke-opacity:1; fill:none" points="
  271.009,1070.67 291.424,1070.67 311.84,1070.67 332.255,1070.67 352.67,1070.67 373.085,1070.67 393.501,1070.67 413.916,1070.67 434.331,1070.67 454.747,1070.67 
  475.162,1070.67 495.577,1070.67 515.992,1070.67 536.408,1070.67 556.823,1070.67 577.238,1070.67 597.654,1070.67 618.069,1070.67 638.484,1070.67 658.899,1070.67 
  679.315,1070.67 699.73,1070.67 720.145,1070.67 740.561,1070.67 760.976,1070.67 781.391,1070.67 801.806,1070.67 822.222,1070.67 842.637,1070.67 863.052,1070.67 
  883.468,1070.67 903.883,1070.67 924.298,1070.67 944.713,1070.67 965.129,1070.67 985.544,850.487 1005.96,694.219 1026.37,593.131 1046.79,516.173 1067.21,454.242 
  1087.62,403.142 1108.04,360.531 1128.45,324.953 1148.87,295.437 1169.28,271.314 1189.7,252.105 1210.11,237.471 1230.53,227.173 1250.94,221.054 1271.36,219.025 
  1291.77,221.054 1312.19,227.173 1332.6,237.471 1353.02,252.105 1373.43,271.314 1393.85,295.437 1414.27,324.953 1434.68,360.531 1455.1,403.142 1475.51,454.242 
  1495.93,516.173 1516.34,593.131 1536.76,694.219 1557.17,850.487 1577.59,1070.67 1598,1070.67 1618.42,1070.67 1638.83,1070.67 1659.25,1070.67 1679.66,1070.67 
  1700.08,1070.67 1720.49,1070.67 1740.91,1070.67 1761.33,1070.67 1781.74,1070.67 1802.16,1070.67 1822.57,1070.67 1842.99,1070.67 1863.4,1070.67 1883.82,1070.67 
  1904.23,1070.67 1924.65,1070.67 1945.06,1070.67 1965.48,1070.67 1985.89,1070.67 2006.31,1070.67 2026.72,1070.67 2047.14,1070.67 2067.55,1070.67 2087.97,1070.67 
  2108.38,1070.67 2128.8,1070.67 2149.22,1070.67 2169.63,1070.67 2190.05,1070.67 2210.46,1070.67 2230.88,1070.67 2251.29,1070.67 2271.71,1070.67 2292.12,1070.67 
  
  "/>
<polyline clip-path="url(#clip442)" style="stroke:#e26f46; stroke-linecap:butt; stroke-linejoin:round; stroke-width:4; stroke-opacity:1; fill:none" points="
  271.009,1277.51 291.424,1274.81 311.84,1279.82 332.255,1275.26 352.67,1274.59 373.085,1275.42 393.501,1280.76 413.916,1278.51 434.331,1273.33 454.747,1269.38 
  475.162,1270.25 495.577,1274.24 515.992,1279.59 536.408,1276.46 556.823,1271.32 577.238,1278.17 597.654,1289.19 618.069,1286.33 638.484,1275.73 658.899,1269.83 
  679.315,1265.15 699.73,1265.83 720.145,1267.11 740.561,1267.25 760.976,1266.17 781.391,1272.84 801.806,1281.1 822.222,1287.07 842.637,1271.43 863.052,1260.5 
  883.468,1266.52 903.883,1260.45 924.298,1251.19 944.713,1251.27 965.129,1252.17 985.544,1076.82 1005.96,890.151 1026.37,792 1046.79,729.128 1067.21,1383.67 
  1087.62,1330.5 1108.04,1289 1128.45,1255.21 1148.87,1249.32 1169.28,1234.81 1189.7,1207.84 1210.11,1180.65 1230.53,1158.32 1250.94,1141.01 1271.36,1127.65 
  1291.77,1137.71 1312.19,1150.62 1332.6,1173.89 1353.02,1199.24 1373.43,1232.29 1393.85,1245.59 1414.27,1259.97 1434.68,1300.83 1455.1,1340.06 1475.51,1388.11 
  1495.93,729.604 1516.34,775.481 1536.76,955.931 1557.17,1098.53 1577.59,1256.42 1598,1247.6 1618.42,1249.94 1638.83,1275.98 1659.25,1280.16 1679.66,1261.99 
  1700.08,1272.87 1720.49,1276.02 1740.91,1265.9 1761.33,1268.6 1781.74,1274.38 1802.16,1271.87 1822.57,1264.63 1842.99,1273.54 1863.4,1278.26 1883.82,1275.2 
  1904.23,1277.72 1924.65,1282.67 1945.06,1274.97 1965.48,1269.74 1985.89,1273.16 2006.31,1274.92 2026.72,1271.7 2047.14,1271.63 2067.55,1275.62 2087.97,1275.06 
  2108.38,1278.54 2128.8,1277.44 2149.22,1278.25 2169.63,1273.35 2190.05,1276.45 2210.46,1276.34 2230.88,1278.11 2251.29,1272.3 2271.71,1276.59 2292.12,1275.81 
  
  "/>
<path clip-path="url(#clip440)" d="
M1891.64 380.78 L2281.34 380.78 L2281.34 225.26 L1891.64 225.26  Z
  " fill="#ffffff" fill-rule="evenodd" fill-opacity="1"/>
<polyline clip-path="url(#clip440)" style="stroke:#000000; stroke-linecap:butt; stroke-linejoin:round; stroke-width:4; stroke-opacity:1; fill:none" points="
  1891.64,380.78 2281.34,380.78 2281.34,225.26 1891.64,225.26 1891.64,380.78 
  "/>
<polyline clip-path="url(#clip440)" style="stroke:#009af9; stroke-linecap:butt; stroke-linejoin:round; stroke-width:4; stroke-opacity:1; fill:none" points="
  1915.44,277.1 2058.26,277.1 
  "/>
<path clip-path="url(#clip440)" d="M2089.48 261.093 L2089.48 268.454 L2098.25 268.454 L2098.25 271.764 L2089.48 271.764 L2089.48 285.838 Q2089.48 289.009 2090.33 289.912 Q2091.21 290.815 2093.87 290.815 L2098.25 290.815 L2098.25 294.38 L2093.87 294.38 Q2088.94 294.38 2087.07 292.551 Q2085.19 290.699 2085.19 285.838 L2085.19 271.764 L2082.07 271.764 L2082.07 268.454 L2085.19 268.454 L2085.19 261.093 L2089.48 261.093 Z" fill="#000000" fill-rule="evenodd" fill-opacity="1" /><path clip-path="url(#clip440)" d="M2125.4 278.732 L2125.4 294.38 L2121.14 294.38 L2121.14 278.871 Q2121.14 275.19 2119.71 273.361 Q2118.27 271.533 2115.4 271.533 Q2111.95 271.533 2109.96 273.732 Q2107.97 275.931 2107.97 279.727 L2107.97 294.38 L2103.69 294.38 L2103.69 258.361 L2107.97 258.361 L2107.97 272.482 Q2109.5 270.144 2111.56 268.986 Q2113.64 267.829 2116.35 267.829 Q2120.82 267.829 2123.11 270.607 Q2125.4 273.361 2125.4 278.732 Z" fill="#000000" fill-rule="evenodd" fill-opacity="1" /><path clip-path="url(#clip440)" d="M2156.07 280.352 L2156.07 282.435 L2136.49 282.435 Q2136.77 286.833 2139.13 289.148 Q2141.51 291.44 2145.75 291.44 Q2148.2 291.44 2150.49 290.838 Q2152.81 290.236 2155.08 289.033 L2155.08 293.06 Q2152.79 294.032 2150.38 294.542 Q2147.97 295.051 2145.49 295.051 Q2139.29 295.051 2135.66 291.44 Q2132.05 287.829 2132.05 281.671 Q2132.05 275.306 2135.47 271.579 Q2138.92 267.829 2144.75 267.829 Q2149.99 267.829 2153.02 271.209 Q2156.07 274.565 2156.07 280.352 M2151.81 279.102 Q2151.77 275.607 2149.85 273.523 Q2147.95 271.44 2144.8 271.44 Q2141.24 271.44 2139.08 273.454 Q2136.95 275.468 2136.63 279.125 L2151.81 279.102 Z" fill="#000000" fill-rule="evenodd" fill-opacity="1" /><path clip-path="url(#clip440)" d="M2173.11 271.44 Q2169.68 271.44 2167.69 274.125 Q2165.7 276.787 2165.7 281.44 Q2165.7 286.093 2167.67 288.778 Q2169.66 291.44 2173.11 291.44 Q2176.51 291.44 2178.5 288.755 Q2180.49 286.07 2180.49 281.44 Q2180.49 276.834 2178.5 274.148 Q2176.51 271.44 2173.11 271.44 M2173.11 267.829 Q2178.67 267.829 2181.84 271.44 Q2185.01 275.051 2185.01 281.44 Q2185.01 287.806 2181.84 291.44 Q2178.67 295.051 2173.11 295.051 Q2167.53 295.051 2164.36 291.44 Q2161.21 287.806 2161.21 281.44 Q2161.21 275.051 2164.36 271.44 Q2167.53 267.829 2173.11 267.829 Z" fill="#000000" fill-rule="evenodd" fill-opacity="1" /><path clip-path="url(#clip440)" d="M2207.09 272.435 Q2206.37 272.019 2205.52 271.834 Q2204.68 271.625 2203.67 271.625 Q2200.05 271.625 2198.11 273.986 Q2196.19 276.324 2196.19 280.722 L2196.19 294.38 L2191.91 294.38 L2191.91 268.454 L2196.19 268.454 L2196.19 272.482 Q2197.53 270.121 2199.68 268.986 Q2201.84 267.829 2204.92 267.829 Q2205.36 267.829 2205.89 267.898 Q2206.42 267.945 2207.07 268.06 L2207.09 272.435 Z" fill="#000000" fill-rule="evenodd" fill-opacity="1" /><path clip-path="url(#clip440)" d="M2222.35 296.787 Q2220.54 301.417 2218.83 302.829 Q2217.11 304.241 2214.24 304.241 L2210.84 304.241 L2210.84 300.676 L2213.34 300.676 Q2215.1 300.676 2216.07 299.843 Q2217.05 299.009 2218.23 295.907 L2218.99 293.963 L2208.5 268.454 L2213.02 268.454 L2221.12 288.732 L2229.22 268.454 L2233.73 268.454 L2222.35 296.787 Z" fill="#000000" fill-rule="evenodd" fill-opacity="1" /><polyline clip-path="url(#clip440)" style="stroke:#e26f46; stroke-linecap:butt; stroke-linejoin:round; stroke-width:4; stroke-opacity:1; fill:none" points="
  1915.44,328.94 2058.26,328.94 
  "/>
<path clip-path="url(#clip440)" d="M2086.74 315.502 L2086.74 328.488 L2092.62 328.488 Q2095.89 328.488 2097.67 326.799 Q2099.45 325.109 2099.45 321.984 Q2099.45 318.882 2097.67 317.192 Q2095.89 315.502 2092.62 315.502 L2086.74 315.502 M2082.07 311.66 L2092.62 311.66 Q2098.43 311.66 2101.4 314.299 Q2104.38 316.914 2104.38 321.984 Q2104.38 327.099 2101.4 329.715 Q2098.43 332.331 2092.62 332.331 L2086.74 332.331 L2086.74 346.22 L2082.07 346.22 L2082.07 311.66 Z" fill="#000000" fill-rule="evenodd" fill-opacity="1" /><path clip-path="url(#clip440)" d="M2127.05 330.016 Q2128.55 330.525 2129.96 332.192 Q2131.4 333.859 2132.83 336.775 L2137.58 346.22 L2132.55 346.22 L2128.13 337.354 Q2126.42 333.882 2124.8 332.748 Q2123.2 331.613 2120.43 331.613 L2115.33 331.613 L2115.33 346.22 L2110.66 346.22 L2110.66 311.66 L2121.21 311.66 Q2127.14 311.66 2130.05 314.137 Q2132.97 316.613 2132.97 321.613 Q2132.97 324.877 2131.44 327.03 Q2129.94 329.183 2127.05 330.016 M2115.33 315.502 L2115.33 327.771 L2121.21 327.771 Q2124.59 327.771 2126.3 326.22 Q2128.04 324.646 2128.04 321.613 Q2128.04 318.581 2126.3 317.053 Q2124.59 315.502 2121.21 315.502 L2115.33 315.502 Z" fill="#000000" fill-rule="evenodd" fill-opacity="1" /></svg>
